{"glyphs":{"0":{"ha":924,"x_min":63,"x_max":864,"o":"m 357 -50 q 263 -33 304 -50 q 114 91 165 7 q 63 275 63 175 q 92 426 63 351 q 185 576 122 506 q 328 698 247 646 q 490 772 408 750 q 543 783 517 779 q 596 786 569 786 q 697 769 653 786 q 746 718 740 753 q 747 706 747 714 q 743 679 747 692 q 732 656 739 667 q 793 606 763 640 q 844 522 824 571 q 864 414 864 474 q 856 345 864 381 q 831 272 849 310 q 742 142 797 201 q 622 40 688 83 q 488 -26 557 -3 q 357 -50 419 -50 m 344 -6 q 483 31 414 -6 q 613 132 553 67 q 714 285 674 197 q 750 385 739 339 q 761 468 761 431 q 719 597 761 554 q 629 640 678 640 q 594 635 611 640 q 563 617 578 629 q 547 610 551 610 q 538 621 538 610 q 568 657 538 636 q 676 674 599 678 q 696 672 686 674 q 713 667 706 671 l 714 675 q 715 688 715 679 q 690 735 715 719 q 624 750 664 750 q 504 722 568 750 q 362 625 422 686 q 263 490 301 564 q 205 340 224 417 q 186 197 186 264 q 208 72 186 125 q 272 6 231 19 q 344 -6 310 -6 z "},"1":{"ha":572,"x_min":-28,"x_max":618,"o":"m 15 -36 q -28 -22 -28 -36 q -13 -4 -28 -14 q 19 13 1 6 q 50 19 38 19 l 140 19 q 153 97 139 50 q 183 190 168 144 q 216 271 194 221 q 267 380 238 321 q 332 497 297 439 q 403 601 367 556 q 365 584 394 597 q 301 555 336 571 q 237 526 265 539 q 203 510 208 513 q 182 504 192 504 q 169 513 169 504 q 189 536 169 522 q 273 582 225 549 q 367 653 321 615 q 447 722 413 692 q 490 758 481 753 q 530 775 506 768 q 575 782 554 782 q 606 774 594 782 q 613 747 618 767 q 590 710 607 735 q 540 642 572 686 q 476 553 514 608 q 399 432 439 499 q 323 297 358 365 q 265 168 288 229 q 238 76 243 111 q 232 15 232 42 l 468 18 q 478 7 478 18 q 470 -9 478 0 q 447 -18 463 -18 q 327 -21 394 -18 q 194 -27 260 -24 q 80 -33 129 -31 q 15 -36 31 -36 z "},"2":{"ha":894,"x_min":10,"x_max":840,"o":"m 608 -58 q 495 -40 546 -58 q 406 5 444 -21 q 341 53 367 31 q 304 83 315 75 q 115 7 201 7 q 74 14 94 7 q 24 63 39 31 q 10 131 10 96 q 25 205 10 171 q 64 250 40 239 q 111 257 85 257 q 190 238 143 257 q 304 153 238 218 q 381 207 333 174 q 485 288 429 240 q 596 404 542 336 q 692 563 650 472 q 710 643 710 599 q 676 747 710 700 q 581 793 642 793 q 505 775 546 793 q 428 729 464 757 q 369 672 392 701 q 346 618 346 642 q 354 596 346 607 q 361 581 361 586 q 313 563 361 563 q 263 582 282 563 q 243 631 243 601 q 261 686 243 658 q 332 763 288 728 q 444 821 376 799 q 608 843 513 843 q 764 797 701 843 q 826 667 826 750 q 806 569 826 622 q 732 443 779 504 q 628 328 685 382 q 513 232 571 275 q 409 158 456 189 q 338 110 363 126 q 390 88 353 101 q 475 64 426 75 q 571 49 524 53 q 599 47 586 47 q 624 46 613 46 q 722 57 685 46 q 780 83 760 68 q 810 110 800 99 q 826 121 821 121 q 836 113 831 121 q 821 26 840 65 q 751 -35 801 -12 q 608 -58 700 -58 m 154 76 q 213 90 182 76 q 261 122 243 104 q 189 174 219 160 q 138 189 158 189 q 107 181 119 189 q 88 163 94 174 q 78 133 78 149 q 125 83 78 100 q 154 76 139 76 z "},"3":{"ha":814,"x_min":19,"x_max":771,"o":"m 294 -11 q 455 24 386 -11 q 562 117 524 60 q 600 238 600 174 q 578 324 600 286 q 521 389 556 363 q 340 365 429 365 q 292 371 319 365 q 246 389 265 376 q 226 422 226 401 q 227 428 226 425 q 229 436 228 432 q 273 469 240 460 q 346 478 306 478 q 383 476 365 478 q 419 472 401 475 q 483 465 447 469 q 547 446 518 461 q 614 485 585 457 q 659 550 643 514 q 675 619 675 586 q 647 701 675 665 q 572 758 619 738 q 467 778 525 778 q 363 756 414 778 q 278 699 311 733 q 244 626 244 665 q 255 597 244 610 q 275 576 265 583 q 285 563 285 568 q 268 554 285 558 q 203 578 232 554 q 174 638 174 601 q 179 668 174 653 q 226 741 194 707 q 318 797 257 775 q 485 818 379 818 q 692 775 614 818 q 771 636 771 732 q 747 529 771 575 q 687 453 724 483 q 608 407 650 422 q 697 334 660 372 q 735 226 735 296 q 697 109 735 160 q 597 24 660 58 q 460 -29 535 -11 q 310 -47 385 -47 q 167 -28 233 -47 q 60 32 100 -8 q 19 135 19 72 q 58 212 19 188 q 139 236 96 236 q 175 232 158 236 q 194 226 186 232 q 203 214 203 221 q 183 203 203 203 q 175 203 179 203 q 164 206 171 204 q 131 188 146 204 q 108 146 115 171 q 107 138 107 142 q 107 131 107 133 q 135 57 107 89 q 206 7 163 25 q 294 -11 249 -11 m 372 406 q 418 412 396 408 q 464 421 440 415 q 408 435 442 431 q 378 440 394 438 q 347 443 363 443 q 322 440 332 443 q 313 429 311 436 q 323 410 315 415 q 372 406 331 406 z "},"4":{"ha":826,"x_min":54,"x_max":818,"o":"m 490 -74 q 454 -69 463 -74 q 412 -31 429 -58 q 394 50 394 -3 q 400 113 394 78 q 418 193 406 149 q 436 246 425 218 q 460 304 447 274 q 285 298 368 303 q 124 289 201 293 q 96 298 113 288 q 67 324 79 308 q 54 350 54 339 q 61 361 54 357 q 206 474 135 422 q 343 576 276 525 q 486 690 417 632 q 636 804 556 747 q 693 815 656 815 q 757 802 728 815 q 778 761 786 789 q 710 619 753 722 q 590 344 668 515 q 694 353 639 343 q 788 368 750 363 l 796 368 q 818 356 818 368 q 808 337 818 346 q 778 325 797 328 q 715 319 743 322 q 653 313 686 315 q 571 310 621 311 q 542 246 558 279 q 513 176 526 213 q 490 108 500 143 q 479 42 479 72 q 484 10 479 24 q 501 -14 489 -4 q 515 -23 506 -19 q 535 -26 525 -26 q 547 -24 542 -26 q 553 -22 550 -22 q 561 -32 561 -22 q 544 -62 561 -50 q 524 -71 540 -68 q 490 -74 507 -74 m 301 335 q 377 337 333 335 q 472 342 421 339 q 538 491 513 429 q 582 599 564 553 q 618 683 600 644 q 582 655 608 676 q 522 606 556 633 q 450 550 488 578 q 342 470 397 510 q 238 386 288 431 q 223 373 235 383 q 211 350 211 363 q 237 338 211 342 q 301 335 263 335 z "},"5":{"ha":721,"x_min":14,"x_max":793,"o":"m 88 -79 q 47 -71 61 -79 q 24 -51 32 -62 q 14 -28 14 -40 q 26 -7 14 -12 q 42 -3 35 -3 q 65 -20 58 -3 q 81 -40 71 -37 q 212 0 150 -22 q 346 81 274 22 q 444 194 408 132 q 481 304 481 257 q 453 364 481 342 q 381 398 425 386 q 288 415 336 410 q 196 425 239 421 q 129 435 153 429 q 101 486 101 447 q 118 558 101 518 q 157 629 135 597 q 210 691 179 660 q 265 744 240 722 q 289 765 289 765 q 362 785 311 781 q 472 792 413 790 q 578 796 532 793 q 649 801 611 800 q 716 803 686 803 q 753 803 746 803 q 785 790 776 803 q 793 761 793 776 q 785 732 793 743 q 771 728 779 728 q 731 740 754 728 q 676 751 708 751 q 637 750 668 751 q 563 744 606 749 q 478 733 521 740 q 403 715 435 726 q 339 676 364 696 q 282 618 314 656 q 229 540 240 569 q 215 500 218 511 q 213 482 213 492 q 219 468 213 475 q 250 460 226 461 q 322 456 275 458 q 418 446 368 453 q 503 422 468 439 q 600 362 571 396 q 629 289 629 328 q 593 180 629 233 q 498 79 557 126 q 367 -3 439 32 q 223 -59 296 -39 q 88 -79 150 -79 z "},"6":{"ha":735,"x_min":61,"x_max":679,"o":"m 294 -47 q 195 -31 249 -47 q 113 33 142 -15 q 74 122 88 76 q 61 222 61 168 q 110 463 61 321 q 160 565 126 511 q 236 667 193 618 q 324 751 279 715 q 408 800 369 788 q 536 822 471 822 q 636 798 593 822 q 679 714 679 774 q 679 699 679 707 q 676 682 679 690 q 666 665 675 671 q 647 658 657 658 q 633 664 639 658 q 628 682 626 669 q 611 748 633 731 q 558 765 589 765 q 511 758 535 765 q 474 746 488 751 q 400 703 443 732 q 311 623 357 674 q 224 496 265 572 q 153 311 182 419 q 222 408 183 361 q 321 487 260 456 q 481 518 382 518 q 625 466 581 518 q 669 340 669 414 q 642 210 669 278 q 564 85 614 143 q 445 -10 514 26 q 294 -47 376 -47 m 278 8 q 399 60 332 8 q 524 226 465 111 q 558 353 558 297 q 524 442 558 411 q 442 474 490 474 q 331 438 390 474 q 225 324 271 401 q 181 226 194 272 q 167 142 167 179 q 198 44 167 79 q 278 8 229 8 z "},"7":{"ha":713,"x_min":100,"x_max":824,"o":"m 186 -193 q 154 -187 161 -193 q 118 -159 136 -176 q 100 -106 100 -142 q 115 -35 100 -78 q 169 69 131 7 q 246 183 200 118 q 346 322 292 249 q 453 465 400 394 q 549 592 506 535 q 619 683 593 649 q 646 717 646 717 q 584 730 626 725 q 489 735 542 735 q 386 730 439 735 q 287 715 333 725 q 208 688 240 704 q 169 649 176 672 q 157 603 164 629 q 143 560 150 578 q 129 542 136 542 q 111 579 121 542 q 106 628 106 603 q 133 717 106 681 q 206 774 161 753 q 304 806 251 796 q 407 815 357 815 q 505 813 449 815 q 619 803 561 810 q 724 785 676 796 q 798 759 772 775 q 814 722 824 743 q 710 614 772 682 q 574 460 647 546 q 428 283 501 375 q 288 100 354 190 q 210 -28 235 28 q 185 -115 185 -83 q 196 -146 185 -137 q 201 -148 199 -147 q 207 -149 204 -149 q 232 -140 221 -149 q 253 -131 243 -131 q 267 -140 267 -131 q 258 -159 267 -147 q 238 -181 249 -171 q 214 -190 228 -186 q 186 -193 200 -193 z "},"8":{"ha":743,"x_min":11,"x_max":854,"o":"m 253 -37 q 140 -21 196 -37 q 47 33 83 -4 q 14 133 11 71 q 47 246 18 192 q 140 357 76 300 q 306 479 203 414 q 251 510 275 494 q 217 542 228 526 q 204 586 204 565 q 242 669 204 629 q 339 742 281 710 q 462 792 397 774 q 578 811 526 811 q 649 796 624 811 q 678 767 669 782 q 688 738 688 753 q 667 692 688 711 q 625 674 647 674 l 624 674 q 615 683 615 678 q 618 696 615 689 q 621 708 621 703 q 615 722 621 715 q 589 732 608 728 q 538 738 567 738 q 433 719 485 738 q 347 669 381 700 q 314 604 314 639 q 331 561 314 582 q 374 521 350 533 q 431 551 400 533 q 588 635 501 592 q 776 726 674 678 q 810 740 796 736 q 835 743 825 743 q 854 732 854 743 q 828 708 854 721 q 656 620 753 667 q 463 521 558 574 q 443 510 453 515 q 425 499 433 506 q 492 471 456 485 q 568 435 528 457 q 644 369 621 406 q 667 292 667 332 q 638 192 667 242 q 562 97 610 142 q 456 20 514 53 q 339 -28 397 -12 q 299 -35 321 -33 q 253 -37 276 -37 m 253 3 q 296 8 278 3 q 434 72 378 29 q 519 166 490 114 q 547 268 547 218 q 528 342 547 308 q 471 397 510 376 q 413 428 442 414 q 356 456 383 443 q 204 321 267 392 q 124 169 142 250 q 120 148 122 158 q 118 126 118 138 q 161 33 118 63 q 253 3 204 3 z "},"9":{"ha":746,"x_min":64,"x_max":739,"o":"m 406 -101 q 358 -92 381 -101 q 322 -56 336 -79 q 307 3 307 -33 q 333 112 307 46 q 425 275 360 178 q 448 310 431 283 q 490 374 465 338 q 540 448 514 410 q 589 519 567 486 q 624 571 611 553 q 494 494 567 536 q 345 410 422 451 q 193 340 268 369 q 178 337 186 339 q 161 335 169 335 q 95 353 126 335 q 69 403 64 371 q 112 524 83 469 q 190 630 140 578 q 321 742 240 682 q 532 815 422 815 q 614 804 572 815 q 688 765 669 789 q 706 717 706 740 q 702 694 706 704 q 696 678 699 683 q 684 667 689 672 q 668 661 679 661 q 663 661 667 661 q 656 663 660 661 q 647 669 647 664 q 655 681 647 675 q 661 694 663 688 q 641 742 661 725 q 586 758 621 758 q 514 744 556 758 q 426 697 472 729 q 347 635 389 672 q 267 556 306 597 q 202 478 229 515 q 168 417 175 442 q 167 410 167 414 q 183 397 167 397 q 246 415 206 397 q 328 455 286 432 q 397 494 371 478 q 535 582 483 550 q 617 629 586 614 q 669 650 647 644 q 695 640 679 651 q 725 608 711 628 q 739 563 739 588 q 719 510 739 535 q 653 422 703 489 q 529 260 603 354 q 478 191 507 231 q 425 110 450 151 q 383 31 400 68 q 367 -31 367 -6 q 382 -61 367 -53 q 396 -65 390 -65 q 411 -60 404 -65 q 429 -53 418 -54 l 435 -53 q 458 -71 458 -53 q 442 -93 458 -82 q 406 -101 429 -101 z "},"\r":{"ha":833,"x_min":0,"x_max":0,"o":""}," ":{"ha":444,"x_min":0,"x_max":0,"o":""}," ":{"ha":444,"x_min":0,"x_max":0,"o":""},"A":{"ha":801,"x_min":-28,"x_max":846,"o":"m 0 -69 q -19 -61 -10 -69 q -28 -37 -28 -53 q -21 -10 -28 -26 q 4 26 -14 7 q 65 142 36 97 q 129 238 93 186 q 103 251 111 240 q 94 275 94 261 q 108 317 94 297 q 132 338 121 338 q 167 342 149 338 q 206 346 186 346 q 287 465 256 418 q 338 542 318 513 q 372 590 357 571 q 401 627 386 610 q 439 668 417 644 q 497 728 461 692 q 479 801 479 765 q 508 883 479 851 q 569 915 538 915 q 601 906 586 915 q 625 875 615 897 q 680 649 664 786 q 701 357 696 511 q 846 319 806 349 q 790 308 828 314 q 701 294 753 301 q 703 182 701 239 q 704 69 704 125 q 692 -39 704 -8 q 669 -69 681 -69 q 654 -42 654 -69 q 646 133 654 51 q 622 285 638 214 q 478 270 554 278 q 328 256 403 263 q 189 242 253 249 q 101 96 144 172 q 17 -60 57 19 q 0 -69 13 -69 m 264 351 q 436 360 346 358 q 607 363 526 363 q 556 537 583 461 q 514 667 529 613 q 410 549 478 631 q 264 351 343 467 z "},"Æ":{"ha":1457,"x_min":-28,"x_max":1440,"o":"m 957 -72 q 927 -72 942 -72 q 897 -69 913 -71 q 781 -50 829 -62 q 697 -17 732 -37 q 684 -58 692 -46 q 669 -69 676 -69 q 654 -42 654 -69 q 654 -9 654 -25 q 653 22 654 7 q 614 113 624 58 q 607 244 604 168 q 609 264 607 254 q 613 283 611 274 q 397 263 511 274 q 189 242 283 253 q 101 96 144 172 q 17 -60 57 19 q 0 -69 13 -69 q -19 -61 -10 -69 q -28 -37 -28 -53 q -21 -10 -28 -26 q 4 26 -14 7 q 65 142 36 97 q 129 238 93 186 q 103 251 111 240 q 94 275 94 261 q 108 317 94 297 q 132 338 121 338 q 167 342 149 338 q 206 346 186 346 q 287 465 256 418 q 338 542 318 513 q 372 590 357 571 q 401 627 386 610 q 439 668 417 644 q 497 728 461 692 q 479 801 479 765 q 508 883 479 851 q 569 915 538 915 q 601 906 586 915 q 625 875 615 897 q 670 716 654 810 q 693 514 686 622 q 827 678 744 601 q 1026 789 910 754 q 1190 814 1114 814 q 1326 792 1268 814 q 1403 736 1383 771 q 1408 714 1408 726 q 1395 675 1408 693 q 1368 657 1382 657 q 1351 692 1351 657 q 1236 771 1351 771 q 1158 763 1201 771 q 1061 738 1114 756 q 955 676 1010 721 q 852 571 900 632 q 771 440 804 510 l 783 442 q 886 449 828 447 q 1004 451 944 451 q 1144 449 1078 451 q 1251 440 1210 446 q 1293 428 1293 435 q 1224 411 1293 419 q 1010 379 1122 399 q 794 342 899 360 q 756 327 772 329 q 731 314 739 325 q 722 263 722 303 q 770 83 722 156 q 907 -4 818 11 q 952 -10 929 -8 q 999 -11 975 -11 q 1124 0 1061 -11 q 1240 30 1186 11 q 1329 73 1293 49 q 1374 125 1365 97 q 1396 172 1383 154 q 1419 190 1408 190 q 1440 126 1440 190 q 1394 49 1440 85 q 1275 -14 1349 14 q 1117 -57 1201 -42 q 957 -72 1033 -72 m 264 351 q 425 373 340 358 q 586 388 510 388 q 600 432 589 418 q 553 567 578 514 q 514 667 528 619 q 410 549 478 631 q 264 351 343 467 z "},"Ǽ":{"ha":1457,"x_min":-28,"x_max":1440,"o":"m 957 -72 q 927 -72 942 -72 q 897 -69 913 -71 q 781 -50 829 -62 q 697 -17 732 -37 q 684 -58 692 -46 q 669 -69 676 -69 q 654 -42 654 -69 q 654 -9 654 -25 q 653 22 654 7 q 614 113 624 58 q 607 244 604 168 q 609 264 607 254 q 613 283 611 274 q 397 263 511 274 q 189 242 283 253 q 101 96 144 172 q 17 -60 57 19 q 0 -69 13 -69 q -19 -61 -10 -69 q -28 -37 -28 -53 q -21 -10 -28 -26 q 4 26 -14 7 q 65 142 36 97 q 129 238 93 186 q 103 251 111 240 q 94 275 94 261 q 108 317 94 297 q 132 338 121 338 q 167 342 149 338 q 206 346 186 346 q 287 465 256 418 q 338 542 318 513 q 372 590 357 571 q 401 627 386 610 q 439 668 417 644 q 497 728 461 692 q 479 801 479 765 q 508 883 479 851 q 569 915 538 915 q 601 906 586 915 q 625 875 615 897 q 670 716 654 810 q 693 514 686 622 q 827 678 744 601 q 1026 789 910 754 q 1190 814 1114 814 q 1326 792 1268 814 q 1403 736 1383 771 q 1408 714 1408 726 q 1395 675 1408 693 q 1368 657 1382 657 q 1351 692 1351 657 q 1236 771 1351 771 q 1158 763 1201 771 q 1061 738 1114 756 q 955 676 1010 721 q 852 571 900 632 q 771 440 804 510 l 783 442 q 886 449 828 447 q 1004 451 944 451 q 1144 449 1078 451 q 1251 440 1210 446 q 1293 428 1293 435 q 1224 411 1293 419 q 1010 379 1122 399 q 794 342 899 360 q 756 327 772 329 q 731 314 739 325 q 722 263 722 303 q 770 83 722 156 q 907 -4 818 11 q 952 -10 929 -8 q 999 -11 975 -11 q 1124 0 1061 -11 q 1240 30 1186 11 q 1329 73 1293 49 q 1374 125 1365 97 q 1396 172 1383 154 q 1419 190 1408 190 q 1440 126 1440 190 q 1394 49 1440 85 q 1275 -14 1349 14 q 1117 -57 1201 -42 q 957 -72 1033 -72 m 264 351 q 425 373 340 358 q 586 388 510 388 q 600 432 589 418 q 553 567 578 514 q 514 667 528 619 q 410 549 478 631 q 264 351 343 467 m 865 899 q 840 914 840 899 q 922 976 879 942 q 1001 1042 965 1011 q 1044 1073 1025 1061 q 1076 1085 1063 1085 q 1101 1047 1101 1085 q 1097 1026 1101 1042 q 1069 999 1093 1011 q 1022 972 1051 989 q 963 939 993 956 q 906 910 932 922 q 865 899 879 899 z "},"Á":{"ha":801,"x_min":-28,"x_max":846,"o":"m 0 -69 q -19 -61 -10 -69 q -28 -37 -28 -53 q -21 -10 -28 -26 q 4 26 -14 7 q 65 142 36 97 q 129 238 93 186 q 103 251 111 240 q 94 275 94 261 q 108 317 94 297 q 132 338 121 338 q 167 342 149 338 q 206 346 186 346 q 287 465 256 418 q 338 542 318 513 q 372 590 357 571 q 401 627 386 610 q 439 668 417 644 q 497 728 461 692 q 479 801 479 765 q 508 883 479 851 q 569 915 538 915 q 601 906 586 915 q 625 875 615 897 q 680 649 664 786 q 701 357 696 511 q 846 319 806 349 q 790 308 828 314 q 701 294 753 301 q 703 182 701 239 q 704 69 704 125 q 692 -39 704 -8 q 669 -69 681 -69 q 654 -42 654 -69 q 646 133 654 51 q 622 285 638 214 q 478 270 554 278 q 328 256 403 263 q 189 242 253 249 q 101 96 144 172 q 17 -60 57 19 q 0 -69 13 -69 m 264 351 q 436 360 346 358 q 607 363 526 363 q 556 537 583 461 q 514 667 529 613 q 410 549 478 631 q 264 351 343 467 m 499 968 q 474 983 474 968 q 535 1029 500 1003 q 604 1083 569 1056 q 663 1132 639 1111 q 705 1163 686 1151 q 738 1175 724 1175 q 760 1158 751 1175 q 769 1122 769 1142 q 765 1101 769 1117 q 738 1074 761 1086 q 685 1047 719 1064 q 613 1011 651 1029 q 544 981 575 993 q 499 968 513 968 z "},"Ă":{"ha":801,"x_min":-28,"x_max":846,"o":"m 0 -69 q -19 -61 -10 -69 q -28 -37 -28 -53 q -21 -10 -28 -26 q 4 26 -14 7 q 65 142 36 97 q 129 238 93 186 q 103 251 111 240 q 94 275 94 261 q 108 317 94 297 q 132 338 121 338 q 167 342 149 338 q 206 346 186 346 q 287 465 256 418 q 338 542 318 513 q 372 590 357 571 q 401 627 386 610 q 439 668 417 644 q 497 728 461 692 q 479 801 479 765 q 508 883 479 851 q 569 915 538 915 q 601 906 586 915 q 625 875 615 897 q 680 649 664 786 q 701 357 696 511 q 846 319 806 349 q 790 308 828 314 q 701 294 753 301 q 703 182 701 239 q 704 69 704 125 q 692 -39 704 -8 q 669 -69 681 -69 q 654 -42 654 -69 q 646 133 654 51 q 622 285 638 214 q 478 270 554 278 q 328 256 403 263 q 189 242 253 249 q 101 96 144 172 q 17 -60 57 19 q 0 -69 13 -69 m 264 351 q 436 360 346 358 q 607 363 526 363 q 556 537 583 461 q 514 667 529 613 q 410 549 478 631 q 264 351 343 467 m 571 981 q 499 995 535 981 q 438 1040 463 1010 q 407 1118 413 1071 q 412 1150 406 1138 q 428 1163 418 1163 q 437 1155 431 1163 q 447 1140 443 1147 q 508 1079 475 1094 q 578 1064 540 1064 q 653 1081 619 1064 q 728 1135 688 1099 q 753 1160 743 1147 q 764 1172 763 1172 q 775 1149 775 1172 q 767 1111 775 1132 q 681 1012 738 1043 q 571 981 625 981 z "},"Ắ":{"ha":801,"x_min":-28,"x_max":846,"o":"m 0 -69 q -19 -61 -10 -69 q -28 -37 -28 -53 q -21 -10 -28 -26 q 4 26 -14 7 q 65 142 36 97 q 129 238 93 186 q 103 251 111 240 q 94 275 94 261 q 108 317 94 297 q 132 338 121 338 q 167 342 149 338 q 206 346 186 346 q 287 465 256 418 q 338 542 318 513 q 372 590 357 571 q 401 627 386 610 q 439 668 417 644 q 497 728 461 692 q 479 801 479 765 q 508 883 479 851 q 569 915 538 915 q 601 906 586 915 q 625 875 615 897 q 680 649 664 786 q 701 357 696 511 q 846 319 806 349 q 790 308 828 314 q 701 294 753 301 q 703 182 701 239 q 704 69 704 125 q 692 -39 704 -8 q 669 -69 681 -69 q 654 -42 654 -69 q 646 133 654 51 q 622 285 638 214 q 478 270 554 278 q 328 256 403 263 q 189 242 253 249 q 101 96 144 172 q 17 -60 57 19 q 0 -69 13 -69 m 264 351 q 436 360 346 358 q 607 363 526 363 q 556 537 583 461 q 514 667 529 613 q 410 549 478 631 q 264 351 343 467 m 571 981 q 499 995 535 981 q 438 1040 463 1010 q 407 1118 413 1071 q 412 1150 406 1138 q 428 1163 418 1163 q 437 1155 431 1163 q 447 1140 443 1147 q 508 1079 475 1094 q 578 1064 540 1064 q 653 1081 619 1064 q 728 1135 688 1099 q 753 1160 743 1147 q 764 1172 763 1172 q 775 1149 775 1172 q 767 1111 775 1132 q 681 1012 738 1043 q 571 981 625 981 m 521 1199 q 496 1214 496 1199 q 557 1260 522 1233 q 626 1314 592 1286 q 685 1363 661 1342 q 727 1394 708 1382 q 760 1406 746 1406 q 783 1389 774 1406 q 792 1353 792 1372 q 788 1332 792 1347 q 760 1304 783 1317 q 708 1277 742 1294 q 635 1242 674 1260 q 566 1211 597 1224 q 521 1199 535 1199 z "},"Ặ":{"ha":801,"x_min":-28,"x_max":846,"o":"m 0 -69 q -19 -61 -10 -69 q -28 -37 -28 -53 q -21 -10 -28 -26 q 4 26 -14 7 q 65 142 36 97 q 129 238 93 186 q 103 251 111 240 q 94 275 94 261 q 108 317 94 297 q 132 338 121 338 q 167 342 149 338 q 206 346 186 346 q 287 465 256 418 q 338 542 318 513 q 372 590 357 571 q 401 627 386 610 q 439 668 417 644 q 497 728 461 692 q 479 801 479 765 q 508 883 479 851 q 569 915 538 915 q 601 906 586 915 q 625 875 615 897 q 680 649 664 786 q 701 357 696 511 q 846 319 806 349 q 790 308 828 314 q 701 294 753 301 q 703 182 701 239 q 704 69 704 125 q 692 -39 704 -8 q 669 -69 681 -69 q 654 -42 654 -69 q 646 133 654 51 q 622 285 638 214 q 478 270 554 278 q 328 256 403 263 q 189 242 253 249 q 101 96 144 172 q 17 -60 57 19 q 0 -69 13 -69 m 264 351 q 436 360 346 358 q 607 363 526 363 q 556 537 583 461 q 514 667 529 613 q 410 549 478 631 q 264 351 343 467 m 311 -203 q 290 -187 303 -203 q 269 -153 276 -171 q 268 -133 261 -136 q 350 -107 322 -107 q 383 -122 374 -107 q 403 -161 393 -137 q 387 -179 407 -169 q 342 -196 367 -189 q 311 -203 318 -203 m 571 981 q 499 995 535 981 q 438 1040 463 1010 q 407 1118 413 1071 q 412 1150 406 1138 q 428 1163 418 1163 q 437 1155 431 1163 q 447 1140 443 1147 q 508 1079 475 1094 q 578 1064 540 1064 q 653 1081 619 1064 q 728 1135 688 1099 q 753 1160 743 1147 q 764 1172 763 1172 q 775 1149 775 1172 q 767 1111 775 1132 q 681 1012 738 1043 q 571 981 625 981 z "},"Ằ":{"ha":801,"x_min":-28,"x_max":846,"o":"m 0 -69 q -19 -61 -10 -69 q -28 -37 -28 -53 q -21 -10 -28 -26 q 4 26 -14 7 q 65 142 36 97 q 129 238 93 186 q 103 251 111 240 q 94 275 94 261 q 108 317 94 297 q 132 338 121 338 q 167 342 149 338 q 206 346 186 346 q 287 465 256 418 q 338 542 318 513 q 372 590 357 571 q 401 627 386 610 q 439 668 417 644 q 497 728 461 692 q 479 801 479 765 q 508 883 479 851 q 569 915 538 915 q 601 906 586 915 q 625 875 615 897 q 680 649 664 786 q 701 357 696 511 q 846 319 806 349 q 790 308 828 314 q 701 294 753 301 q 703 182 701 239 q 704 69 704 125 q 692 -39 704 -8 q 669 -69 681 -69 q 654 -42 654 -69 q 646 133 654 51 q 622 285 638 214 q 478 270 554 278 q 328 256 403 263 q 189 242 253 249 q 101 96 144 172 q 17 -60 57 19 q 0 -69 13 -69 m 264 351 q 436 360 346 358 q 607 363 526 363 q 556 537 583 461 q 514 667 529 613 q 410 549 478 631 q 264 351 343 467 m 571 981 q 499 995 535 981 q 438 1040 463 1010 q 407 1118 413 1071 q 412 1150 406 1138 q 428 1163 418 1163 q 437 1155 431 1163 q 447 1140 443 1147 q 508 1079 475 1094 q 578 1064 540 1064 q 653 1081 619 1064 q 728 1135 688 1099 q 753 1160 743 1147 q 764 1172 763 1172 q 775 1149 775 1172 q 767 1111 775 1132 q 681 1012 738 1043 q 571 981 625 981 m 665 1197 q 620 1210 651 1197 q 551 1240 589 1222 q 479 1276 513 1258 q 426 1303 446 1293 q 399 1331 403 1315 q 394 1351 394 1346 q 403 1388 394 1371 q 426 1404 413 1404 q 458 1392 438 1404 q 501 1361 478 1381 q 560 1313 526 1340 q 630 1258 594 1285 q 690 1213 665 1232 q 665 1197 690 1197 z "},"Ẳ":{"ha":801,"x_min":-28,"x_max":846,"o":"m 0 -69 q -19 -61 -10 -69 q -28 -37 -28 -53 q -21 -10 -28 -26 q 4 26 -14 7 q 65 142 36 97 q 129 238 93 186 q 103 251 111 240 q 94 275 94 261 q 108 317 94 297 q 132 338 121 338 q 167 342 149 338 q 206 346 186 346 q 287 465 256 418 q 338 542 318 513 q 372 590 357 571 q 401 627 386 610 q 439 668 417 644 q 497 728 461 692 q 479 801 479 765 q 508 883 479 851 q 569 915 538 915 q 601 906 586 915 q 625 875 615 897 q 680 649 664 786 q 701 357 696 511 q 846 319 806 349 q 790 308 828 314 q 701 294 753 301 q 703 182 701 239 q 704 69 704 125 q 692 -39 704 -8 q 669 -69 681 -69 q 654 -42 654 -69 q 646 133 654 51 q 622 285 638 214 q 478 270 554 278 q 328 256 403 263 q 189 242 253 249 q 101 96 144 172 q 17 -60 57 19 q 0 -69 13 -69 m 264 351 q 436 360 346 358 q 607 363 526 363 q 556 537 583 461 q 514 667 529 613 q 410 549 478 631 q 264 351 343 467 m 571 981 q 499 995 535 981 q 438 1040 463 1010 q 407 1118 413 1071 q 412 1150 406 1138 q 428 1163 418 1163 q 437 1155 431 1163 q 447 1140 443 1147 q 508 1079 475 1094 q 578 1064 540 1064 q 653 1081 619 1064 q 728 1135 688 1099 q 753 1160 743 1147 q 764 1172 763 1172 q 775 1149 775 1172 q 767 1111 775 1132 q 681 1012 738 1043 q 571 981 625 981 m 588 1183 q 575 1185 582 1183 q 567 1193 568 1188 q 565 1201 565 1197 q 565 1210 565 1206 q 576 1251 565 1236 q 599 1283 588 1267 q 610 1326 610 1299 q 593 1370 610 1357 q 554 1383 576 1383 q 493 1367 524 1383 q 481 1364 485 1364 q 476 1381 467 1364 q 515 1416 486 1399 q 583 1433 543 1433 q 676 1408 644 1433 q 707 1344 707 1382 q 676 1268 707 1304 q 647 1238 660 1246 q 626 1224 635 1231 q 610 1196 618 1217 q 588 1183 604 1183 z "},"Ẵ":{"ha":801,"x_min":-28,"x_max":846,"o":"m 0 -69 q -19 -61 -10 -69 q -28 -37 -28 -53 q -21 -10 -28 -26 q 4 26 -14 7 q 65 142 36 97 q 129 238 93 186 q 103 251 111 240 q 94 275 94 261 q 108 317 94 297 q 132 338 121 338 q 167 342 149 338 q 206 346 186 346 q 287 465 256 418 q 338 542 318 513 q 372 590 357 571 q 401 627 386 610 q 439 668 417 644 q 497 728 461 692 q 479 801 479 765 q 508 883 479 851 q 569 915 538 915 q 601 906 586 915 q 625 875 615 897 q 680 649 664 786 q 701 357 696 511 q 846 319 806 349 q 790 308 828 314 q 701 294 753 301 q 703 182 701 239 q 704 69 704 125 q 692 -39 704 -8 q 669 -69 681 -69 q 654 -42 654 -69 q 646 133 654 51 q 622 285 638 214 q 478 270 554 278 q 328 256 403 263 q 189 242 253 249 q 101 96 144 172 q 17 -60 57 19 q 0 -69 13 -69 m 264 351 q 436 360 346 358 q 607 363 526 363 q 556 537 583 461 q 514 667 529 613 q 410 549 478 631 q 264 351 343 467 m 571 981 q 499 995 535 981 q 438 1040 463 1010 q 407 1118 413 1071 q 412 1150 406 1138 q 428 1163 418 1163 q 437 1155 431 1163 q 447 1140 443 1147 q 508 1079 475 1094 q 578 1064 540 1064 q 653 1081 619 1064 q 728 1135 688 1099 q 753 1160 743 1147 q 764 1172 763 1172 q 775 1149 775 1172 q 767 1111 775 1132 q 681 1012 738 1043 q 571 981 625 981 m 407 1189 q 392 1200 397 1189 q 386 1229 386 1211 q 419 1307 386 1278 q 504 1336 453 1336 q 574 1320 543 1336 q 633 1289 606 1304 q 688 1274 660 1274 q 718 1281 703 1274 q 751 1304 733 1288 q 771 1323 758 1307 q 786 1339 783 1339 q 797 1333 790 1339 q 803 1313 803 1326 q 798 1290 803 1303 q 782 1261 793 1278 q 723 1206 754 1222 q 647 1193 692 1189 q 595 1211 618 1196 q 551 1241 572 1226 q 506 1256 531 1256 q 462 1234 479 1256 q 426 1197 444 1213 q 407 1189 417 1189 z "},"Ǎ":{"ha":801,"x_min":-28,"x_max":846,"o":"m 800 1199 q 815 1195 808 1199 q 821 1182 822 1192 q 761 1131 796 1161 q 693 1070 726 1101 q 635 1015 660 1039 q 603 988 617 999 q 578 971 589 976 q 572 969 575 969 q 567 968 569 968 q 558 971 564 968 q 510 1015 539 982 q 465 1070 492 1039 q 410 1131 438 1101 q 361 1182 382 1161 q 385 1199 363 1199 q 422 1185 397 1199 q 478 1153 447 1172 q 536 1115 508 1133 q 581 1085 564 1096 q 632 1115 600 1096 q 698 1153 664 1133 q 760 1185 732 1172 q 800 1199 788 1199 m 0 -69 q -19 -61 -10 -69 q -28 -37 -28 -53 q -21 -10 -28 -26 q 4 26 -14 7 q 65 142 36 97 q 129 238 93 186 q 103 251 111 240 q 94 275 94 261 q 108 317 94 297 q 132 338 121 338 q 167 342 149 338 q 206 346 186 346 q 287 465 256 418 q 338 542 318 513 q 372 590 357 571 q 401 627 386 610 q 439 668 417 644 q 497 728 461 692 q 479 801 479 765 q 508 883 479 851 q 569 915 538 915 q 601 906 586 915 q 625 875 615 897 q 680 649 664 786 q 701 357 696 511 q 846 319 806 349 q 790 308 828 314 q 701 294 753 301 q 703 182 701 239 q 704 69 704 125 q 692 -39 704 -8 q 669 -69 681 -69 q 654 -42 654 -69 q 646 133 654 51 q 622 285 638 214 q 478 270 554 278 q 328 256 403 263 q 189 242 253 249 q 101 96 144 172 q 17 -60 57 19 q 0 -69 13 -69 m 264 351 q 436 360 346 358 q 607 363 526 363 q 556 537 583 461 q 514 667 529 613 q 410 549 478 631 q 264 351 343 467 z "},"Â":{"ha":801,"x_min":-28,"x_max":846,"o":"m 0 -69 q -19 -61 -10 -69 q -28 -37 -28 -53 q -21 -10 -28 -26 q 4 26 -14 7 q 65 142 36 97 q 129 238 93 186 q 103 251 111 240 q 94 275 94 261 q 108 317 94 297 q 132 338 121 338 q 167 342 149 338 q 206 346 186 346 q 287 465 256 418 q 338 542 318 513 q 372 590 357 571 q 401 627 386 610 q 439 668 417 644 q 497 728 461 692 q 479 801 479 765 q 508 883 479 851 q 569 915 538 915 q 601 906 586 915 q 625 875 615 897 q 680 649 664 786 q 701 357 696 511 q 846 319 806 349 q 790 308 828 314 q 701 294 753 301 q 703 182 701 239 q 704 69 704 125 q 692 -39 704 -8 q 669 -69 681 -69 q 654 -42 654 -69 q 646 133 654 51 q 622 285 638 214 q 478 270 554 278 q 328 256 403 263 q 189 242 253 249 q 101 96 144 172 q 17 -60 57 19 q 0 -69 13 -69 m 264 351 q 436 360 346 358 q 607 363 526 363 q 556 537 583 461 q 514 667 529 613 q 410 549 478 631 q 264 351 343 467 m 360 950 q 344 953 351 950 q 339 967 338 957 q 399 1017 365 988 q 467 1078 433 1047 q 525 1133 501 1110 q 558 1161 544 1150 q 582 1178 572 1172 q 588 1180 585 1179 q 593 1181 590 1181 q 601 1178 596 1181 q 650 1133 621 1167 q 695 1078 668 1110 q 751 1017 722 1047 q 799 967 779 988 q 775 950 797 950 q 738 963 763 950 q 682 996 713 976 q 624 1034 651 1015 q 579 1064 596 1053 q 528 1034 560 1053 q 462 996 496 1015 q 400 963 428 976 q 360 950 372 950 z "},"Ấ":{"ha":801,"x_min":-28,"x_max":1054,"o":"m 0 -69 q -19 -61 -10 -69 q -28 -37 -28 -53 q -21 -10 -28 -26 q 4 26 -14 7 q 65 142 36 97 q 129 238 93 186 q 103 251 111 240 q 94 275 94 261 q 108 317 94 297 q 132 338 121 338 q 167 342 149 338 q 206 346 186 346 q 287 465 256 418 q 338 542 318 513 q 372 590 357 571 q 401 627 386 610 q 439 668 417 644 q 497 728 461 692 q 479 801 479 765 q 508 883 479 851 q 569 915 538 915 q 601 906 586 915 q 625 875 615 897 q 680 649 664 786 q 701 357 696 511 q 846 319 806 349 q 790 308 828 314 q 701 294 753 301 q 703 182 701 239 q 704 69 704 125 q 692 -39 704 -8 q 669 -69 681 -69 q 654 -42 654 -69 q 646 133 654 51 q 622 285 638 214 q 478 270 554 278 q 328 256 403 263 q 189 242 253 249 q 101 96 144 172 q 17 -60 57 19 q 0 -69 13 -69 m 264 351 q 436 360 346 358 q 607 363 526 363 q 556 537 583 461 q 514 667 529 613 q 410 549 478 631 q 264 351 343 467 m 360 950 q 344 953 351 950 q 339 967 338 957 q 399 1017 365 988 q 467 1078 433 1047 q 525 1133 501 1110 q 558 1161 544 1150 q 582 1178 572 1172 q 588 1180 585 1179 q 593 1181 590 1181 q 601 1178 596 1181 q 650 1133 621 1167 q 695 1078 668 1110 q 751 1017 722 1047 q 799 967 779 988 q 775 950 797 950 q 738 963 763 950 q 682 996 713 976 q 624 1034 651 1015 q 579 1064 596 1053 q 528 1034 560 1053 q 462 996 496 1015 q 400 963 428 976 q 360 950 372 950 m 783 1133 q 758 1149 758 1133 q 819 1194 785 1168 q 889 1249 854 1221 q 947 1297 924 1276 q 990 1328 971 1317 q 1022 1340 1008 1340 q 1045 1324 1036 1340 q 1054 1288 1054 1307 q 1050 1267 1054 1282 q 1022 1239 1046 1251 q 970 1212 1004 1229 q 898 1176 936 1194 q 828 1146 860 1158 q 783 1133 797 1133 z "},"Ậ":{"ha":801,"x_min":-28,"x_max":846,"o":"m 0 -69 q -19 -61 -10 -69 q -28 -37 -28 -53 q -21 -10 -28 -26 q 4 26 -14 7 q 65 142 36 97 q 129 238 93 186 q 103 251 111 240 q 94 275 94 261 q 108 317 94 297 q 132 338 121 338 q 167 342 149 338 q 206 346 186 346 q 287 465 256 418 q 338 542 318 513 q 372 590 357 571 q 401 627 386 610 q 439 668 417 644 q 497 728 461 692 q 479 801 479 765 q 508 883 479 851 q 569 915 538 915 q 601 906 586 915 q 625 875 615 897 q 680 649 664 786 q 701 357 696 511 q 846 319 806 349 q 790 308 828 314 q 701 294 753 301 q 703 182 701 239 q 704 69 704 125 q 692 -39 704 -8 q 669 -69 681 -69 q 654 -42 654 -69 q 646 133 654 51 q 622 285 638 214 q 478 270 554 278 q 328 256 403 263 q 189 242 253 249 q 101 96 144 172 q 17 -60 57 19 q 0 -69 13 -69 m 264 351 q 436 360 346 358 q 607 363 526 363 q 556 537 583 461 q 514 667 529 613 q 410 549 478 631 q 264 351 343 467 m 311 -203 q 290 -187 303 -203 q 269 -153 276 -171 q 268 -133 261 -136 q 350 -107 322 -107 q 383 -122 374 -107 q 403 -161 393 -137 q 387 -179 407 -169 q 342 -196 367 -189 q 311 -203 318 -203 m 360 950 q 344 953 351 950 q 339 967 338 957 q 399 1017 365 988 q 467 1078 433 1047 q 525 1133 501 1110 q 558 1161 544 1150 q 582 1178 572 1172 q 588 1180 585 1179 q 593 1181 590 1181 q 601 1178 596 1181 q 650 1133 621 1167 q 695 1078 668 1110 q 751 1017 722 1047 q 799 967 779 988 q 775 950 797 950 q 738 963 763 950 q 682 996 713 976 q 624 1034 651 1015 q 579 1064 596 1053 q 528 1034 560 1053 q 462 996 496 1015 q 400 963 428 976 q 360 950 372 950 z "},"Ầ":{"ha":801,"x_min":-28,"x_max":846,"o":"m 0 -69 q -19 -61 -10 -69 q -28 -37 -28 -53 q -21 -10 -28 -26 q 4 26 -14 7 q 65 142 36 97 q 129 238 93 186 q 103 251 111 240 q 94 275 94 261 q 108 317 94 297 q 132 338 121 338 q 167 342 149 338 q 206 346 186 346 q 287 465 256 418 q 338 542 318 513 q 372 590 357 571 q 401 627 386 610 q 439 668 417 644 q 497 728 461 692 q 479 801 479 765 q 508 883 479 851 q 569 915 538 915 q 601 906 586 915 q 625 875 615 897 q 680 649 664 786 q 701 357 696 511 q 846 319 806 349 q 790 308 828 314 q 701 294 753 301 q 703 182 701 239 q 704 69 704 125 q 692 -39 704 -8 q 669 -69 681 -69 q 654 -42 654 -69 q 646 133 654 51 q 622 285 638 214 q 478 270 554 278 q 328 256 403 263 q 189 242 253 249 q 101 96 144 172 q 17 -60 57 19 q 0 -69 13 -69 m 264 351 q 436 360 346 358 q 607 363 526 363 q 556 537 583 461 q 514 667 529 613 q 410 549 478 631 q 264 351 343 467 m 360 950 q 344 953 351 950 q 339 967 338 957 q 399 1017 365 988 q 467 1078 433 1047 q 525 1133 501 1110 q 558 1161 544 1150 q 582 1178 572 1172 q 588 1180 585 1179 q 593 1181 590 1181 q 601 1178 596 1181 q 650 1133 621 1167 q 695 1078 668 1110 q 751 1017 722 1047 q 799 967 779 988 q 775 950 797 950 q 738 963 763 950 q 682 996 713 976 q 624 1034 651 1015 q 579 1064 596 1053 q 528 1034 560 1053 q 462 996 496 1015 q 400 963 428 976 q 360 950 372 950 m 796 1161 q 751 1174 782 1161 q 681 1204 719 1186 q 610 1240 643 1222 q 557 1267 576 1257 q 529 1294 533 1279 q 525 1315 525 1310 q 534 1351 525 1335 q 557 1368 543 1368 q 588 1356 568 1368 q 632 1325 608 1344 q 691 1276 657 1304 q 760 1222 725 1249 q 821 1176 796 1196 q 796 1161 821 1161 z "},"Ẩ":{"ha":801,"x_min":-28,"x_max":925,"o":"m 0 -69 q -19 -61 -10 -69 q -28 -37 -28 -53 q -21 -10 -28 -26 q 4 26 -14 7 q 65 142 36 97 q 129 238 93 186 q 103 251 111 240 q 94 275 94 261 q 108 317 94 297 q 132 338 121 338 q 167 342 149 338 q 206 346 186 346 q 287 465 256 418 q 338 542 318 513 q 372 590 357 571 q 401 627 386 610 q 439 668 417 644 q 497 728 461 692 q 479 801 479 765 q 508 883 479 851 q 569 915 538 915 q 601 906 586 915 q 625 875 615 897 q 680 649 664 786 q 701 357 696 511 q 846 319 806 349 q 790 308 828 314 q 701 294 753 301 q 703 182 701 239 q 704 69 704 125 q 692 -39 704 -8 q 669 -69 681 -69 q 654 -42 654 -69 q 646 133 654 51 q 622 285 638 214 q 478 270 554 278 q 328 256 403 263 q 189 242 253 249 q 101 96 144 172 q 17 -60 57 19 q 0 -69 13 -69 m 264 351 q 436 360 346 358 q 607 363 526 363 q 556 537 583 461 q 514 667 529 613 q 410 549 478 631 q 264 351 343 467 m 360 950 q 344 953 351 950 q 339 967 338 957 q 399 1017 365 988 q 467 1078 433 1047 q 525 1133 501 1110 q 558 1161 544 1150 q 582 1178 572 1172 q 588 1180 585 1179 q 593 1181 590 1181 q 601 1178 596 1181 q 650 1133 621 1167 q 695 1078 668 1110 q 751 1017 722 1047 q 799 967 779 988 q 775 950 797 950 q 738 963 763 950 q 682 996 713 976 q 624 1034 651 1015 q 579 1064 596 1053 q 528 1034 560 1053 q 462 996 496 1015 q 400 963 428 976 q 360 950 372 950 m 806 1068 q 793 1070 800 1068 q 785 1078 786 1072 q 783 1086 783 1082 q 783 1094 783 1090 q 794 1136 783 1121 q 817 1167 806 1151 q 828 1211 828 1183 q 811 1255 828 1242 q 772 1268 794 1268 q 711 1251 742 1268 q 699 1249 703 1249 q 694 1266 685 1249 q 733 1301 704 1283 q 801 1318 761 1318 q 894 1292 863 1318 q 925 1229 925 1267 q 894 1153 925 1189 q 865 1123 878 1131 q 844 1108 853 1115 q 828 1081 836 1101 q 806 1068 822 1068 z "},"Ẫ":{"ha":801,"x_min":-28,"x_max":858,"o":"m 0 -69 q -19 -61 -10 -69 q -28 -37 -28 -53 q -21 -10 -28 -26 q 4 26 -14 7 q 65 142 36 97 q 129 238 93 186 q 103 251 111 240 q 94 275 94 261 q 108 317 94 297 q 132 338 121 338 q 167 342 149 338 q 206 346 186 346 q 287 465 256 418 q 338 542 318 513 q 372 590 357 571 q 401 627 386 610 q 439 668 417 644 q 497 728 461 692 q 479 801 479 765 q 508 883 479 851 q 569 915 538 915 q 601 906 586 915 q 625 875 615 897 q 680 649 664 786 q 701 357 696 511 q 846 319 806 349 q 790 308 828 314 q 701 294 753 301 q 703 182 701 239 q 704 69 704 125 q 692 -39 704 -8 q 669 -69 681 -69 q 654 -42 654 -69 q 646 133 654 51 q 622 285 638 214 q 478 270 554 278 q 328 256 403 263 q 189 242 253 249 q 101 96 144 172 q 17 -60 57 19 q 0 -69 13 -69 m 264 351 q 436 360 346 358 q 607 363 526 363 q 556 537 583 461 q 514 667 529 613 q 410 549 478 631 q 264 351 343 467 m 360 950 q 344 953 351 950 q 339 967 338 957 q 399 1017 365 988 q 467 1078 433 1047 q 525 1133 501 1110 q 558 1161 544 1150 q 582 1178 572 1172 q 588 1180 585 1179 q 593 1181 590 1181 q 601 1178 596 1181 q 650 1133 621 1167 q 695 1078 668 1110 q 751 1017 722 1047 q 799 967 779 988 q 775 950 797 950 q 738 963 763 950 q 682 996 713 976 q 624 1034 651 1015 q 579 1064 596 1053 q 528 1034 560 1053 q 462 996 496 1015 q 400 963 428 976 q 360 950 372 950 m 463 1199 q 447 1210 453 1199 q 442 1239 442 1221 q 475 1317 442 1288 q 560 1346 508 1346 q 630 1330 599 1346 q 688 1299 661 1314 q 743 1283 715 1283 q 774 1290 758 1283 q 807 1314 789 1297 q 826 1333 814 1317 q 842 1349 839 1349 q 852 1342 846 1349 q 858 1322 858 1336 q 853 1300 858 1313 q 838 1271 849 1288 q 778 1215 810 1232 q 703 1203 747 1199 q 651 1221 674 1206 q 607 1251 628 1236 q 561 1265 586 1265 q 517 1244 535 1265 q 482 1207 500 1222 q 463 1199 472 1199 z "},"Ȁ":{"ha":801,"x_min":-28,"x_max":846,"o":"m 633 961 q 590 982 619 964 q 527 1024 561 1000 q 463 1072 493 1049 q 415 1107 432 1094 q 393 1139 394 1124 q 393 1160 392 1154 q 408 1194 396 1179 q 433 1207 419 1210 q 462 1190 444 1204 q 500 1151 479 1175 q 549 1093 519 1126 q 608 1028 578 1060 q 660 972 638 996 q 633 961 657 957 m 458 946 q 415 967 444 949 q 352 1009 386 985 q 288 1056 318 1033 q 240 1092 257 1079 q 218 1124 219 1108 q 218 1144 217 1139 q 233 1179 221 1164 q 258 1192 244 1194 q 287 1174 269 1189 q 325 1136 304 1160 q 374 1078 344 1111 q 433 1013 403 1044 q 485 957 463 981 q 458 946 482 942 m 0 -69 q -19 -61 -10 -69 q -28 -37 -28 -53 q -21 -10 -28 -26 q 4 26 -14 7 q 65 142 36 97 q 129 238 93 186 q 103 251 111 240 q 94 275 94 261 q 108 317 94 297 q 132 338 121 338 q 167 342 149 338 q 206 346 186 346 q 287 465 256 418 q 338 542 318 513 q 372 590 357 571 q 401 627 386 610 q 439 668 417 644 q 497 728 461 692 q 479 801 479 765 q 508 883 479 851 q 569 915 538 915 q 601 906 586 915 q 625 875 615 897 q 680 649 664 786 q 701 357 696 511 q 846 319 806 349 q 790 308 828 314 q 701 294 753 301 q 703 182 701 239 q 704 69 704 125 q 692 -39 704 -8 q 669 -69 681 -69 q 654 -42 654 -69 q 646 133 654 51 q 622 285 638 214 q 478 270 554 278 q 328 256 403 263 q 189 242 253 249 q 101 96 144 172 q 17 -60 57 19 q 0 -69 13 -69 m 264 351 q 436 360 346 358 q 607 363 526 363 q 556 537 583 461 q 514 667 529 613 q 410 549 478 631 q 264 351 343 467 z "},"Ä":{"ha":801,"x_min":-28,"x_max":846,"o":"m 0 -69 q -19 -61 -10 -69 q -28 -37 -28 -53 q -21 -10 -28 -26 q 4 26 -14 7 q 65 142 36 97 q 129 238 93 186 q 103 251 111 240 q 94 275 94 261 q 108 317 94 297 q 132 338 121 338 q 167 342 149 338 q 206 346 186 346 q 287 465 256 418 q 338 542 318 513 q 372 590 357 571 q 401 627 386 610 q 439 668 417 644 q 497 728 461 692 q 479 801 479 765 q 508 883 479 851 q 569 915 538 915 q 601 906 586 915 q 625 875 615 897 q 680 649 664 786 q 701 357 696 511 q 846 319 806 349 q 790 308 828 314 q 701 294 753 301 q 703 182 701 239 q 704 69 704 125 q 692 -39 704 -8 q 669 -69 681 -69 q 654 -42 654 -69 q 646 133 654 51 q 622 285 638 214 q 478 270 554 278 q 328 256 403 263 q 189 242 253 249 q 101 96 144 172 q 17 -60 57 19 q 0 -69 13 -69 m 264 351 q 436 360 346 358 q 607 363 526 363 q 556 537 583 461 q 514 667 529 613 q 410 549 478 631 q 264 351 343 467 m 439 961 q 417 977 431 961 q 397 1010 404 993 q 396 1031 389 1028 q 478 1057 450 1057 q 511 1042 501 1057 q 531 1003 521 1026 q 515 985 535 994 q 470 968 494 975 q 439 961 446 961 m 663 961 q 641 977 654 961 q 620 1010 628 993 q 619 1031 613 1028 q 701 1057 674 1057 q 735 1042 725 1057 q 754 1003 744 1026 q 738 985 758 994 q 694 968 718 975 q 663 961 669 961 z "},"Ạ":{"ha":801,"x_min":-28,"x_max":846,"o":"m 0 -69 q -19 -61 -10 -69 q -28 -37 -28 -53 q -21 -10 -28 -26 q 4 26 -14 7 q 65 142 36 97 q 129 238 93 186 q 103 251 111 240 q 94 275 94 261 q 108 317 94 297 q 132 338 121 338 q 167 342 149 338 q 206 346 186 346 q 287 465 256 418 q 338 542 318 513 q 372 590 357 571 q 401 627 386 610 q 439 668 417 644 q 497 728 461 692 q 479 801 479 765 q 508 883 479 851 q 569 915 538 915 q 601 906 586 915 q 625 875 615 897 q 680 649 664 786 q 701 357 696 511 q 846 319 806 349 q 790 308 828 314 q 701 294 753 301 q 703 182 701 239 q 704 69 704 125 q 692 -39 704 -8 q 669 -69 681 -69 q 654 -42 654 -69 q 646 133 654 51 q 622 285 638 214 q 478 270 554 278 q 328 256 403 263 q 189 242 253 249 q 101 96 144 172 q 17 -60 57 19 q 0 -69 13 -69 m 264 351 q 436 360 346 358 q 607 363 526 363 q 556 537 583 461 q 514 667 529 613 q 410 549 478 631 q 264 351 343 467 m 311 -203 q 290 -187 303 -203 q 269 -153 276 -171 q 268 -133 261 -136 q 350 -107 322 -107 q 383 -122 374 -107 q 403 -161 393 -137 q 387 -179 407 -169 q 342 -196 367 -189 q 311 -203 318 -203 z "},"À":{"ha":801,"x_min":-28,"x_max":846,"o":"m 0 -69 q -19 -61 -10 -69 q -28 -37 -28 -53 q -21 -10 -28 -26 q 4 26 -14 7 q 65 142 36 97 q 129 238 93 186 q 103 251 111 240 q 94 275 94 261 q 108 317 94 297 q 132 338 121 338 q 167 342 149 338 q 206 346 186 346 q 287 465 256 418 q 338 542 318 513 q 372 590 357 571 q 401 627 386 610 q 439 668 417 644 q 497 728 461 692 q 479 801 479 765 q 508 883 479 851 q 569 915 538 915 q 601 906 586 915 q 625 875 615 897 q 680 649 664 786 q 701 357 696 511 q 846 319 806 349 q 790 308 828 314 q 701 294 753 301 q 703 182 701 239 q 704 69 704 125 q 692 -39 704 -8 q 669 -69 681 -69 q 654 -42 654 -69 q 646 133 654 51 q 622 285 638 214 q 478 270 554 278 q 328 256 403 263 q 189 242 253 249 q 101 96 144 172 q 17 -60 57 19 q 0 -69 13 -69 m 264 351 q 436 360 346 358 q 607 363 526 363 q 556 537 583 461 q 514 667 529 613 q 410 549 478 631 q 264 351 343 467 m 643 967 q 598 979 629 967 q 528 1010 567 992 q 457 1045 490 1028 q 404 1072 424 1063 q 376 1100 381 1085 q 372 1121 372 1115 q 381 1157 372 1140 q 404 1174 390 1174 q 435 1162 415 1174 q 479 1131 456 1150 q 538 1082 504 1110 q 608 1028 572 1054 q 668 982 643 1001 q 643 967 668 967 z "},"Ả":{"ha":801,"x_min":-28,"x_max":846,"o":"m 0 -69 q -19 -61 -10 -69 q -28 -37 -28 -53 q -21 -10 -28 -26 q 4 26 -14 7 q 65 142 36 97 q 129 238 93 186 q 103 251 111 240 q 94 275 94 261 q 108 317 94 297 q 132 338 121 338 q 167 342 149 338 q 206 346 186 346 q 287 465 256 418 q 338 542 318 513 q 372 590 357 571 q 401 627 386 610 q 439 668 417 644 q 497 728 461 692 q 479 801 479 765 q 508 883 479 851 q 569 915 538 915 q 601 906 586 915 q 625 875 615 897 q 680 649 664 786 q 701 357 696 511 q 846 319 806 349 q 790 308 828 314 q 701 294 753 301 q 703 182 701 239 q 704 69 704 125 q 692 -39 704 -8 q 669 -69 681 -69 q 654 -42 654 -69 q 646 133 654 51 q 622 285 638 214 q 478 270 554 278 q 328 256 403 263 q 189 242 253 249 q 101 96 144 172 q 17 -60 57 19 q 0 -69 13 -69 m 264 351 q 436 360 346 358 q 607 363 526 363 q 556 537 583 461 q 514 667 529 613 q 410 549 478 631 q 264 351 343 467 m 565 953 q 553 955 560 953 q 544 963 546 957 q 543 971 543 967 q 543 979 543 975 q 554 1021 543 1006 q 576 1052 565 1036 q 588 1096 588 1068 q 571 1140 588 1126 q 532 1153 554 1153 q 471 1136 501 1153 q 458 1133 463 1133 q 454 1151 444 1133 q 492 1185 464 1168 q 561 1203 521 1203 q 653 1177 622 1203 q 685 1114 685 1151 q 654 1038 685 1074 q 625 1008 638 1015 q 604 993 613 1000 q 588 965 596 986 q 565 953 582 953 z "},"Ȃ":{"ha":801,"x_min":-28,"x_max":846,"o":"m 588 1101 q 654 1088 621 1101 q 711 1047 688 1075 q 739 975 735 1018 q 734 944 740 956 q 719 933 728 933 q 711 940 717 933 q 701 954 706 947 q 646 1010 676 996 q 581 1025 615 1025 q 510 1009 542 1025 q 442 958 479 993 q 419 935 428 947 q 408 924 410 924 q 397 946 397 924 q 406 981 397 961 q 484 1072 432 1043 q 588 1101 536 1101 m 0 -69 q -19 -61 -10 -69 q -28 -37 -28 -53 q -21 -10 -28 -26 q 4 26 -14 7 q 65 142 36 97 q 129 238 93 186 q 103 251 111 240 q 94 275 94 261 q 108 317 94 297 q 132 338 121 338 q 167 342 149 338 q 206 346 186 346 q 287 465 256 418 q 338 542 318 513 q 372 590 357 571 q 401 627 386 610 q 439 668 417 644 q 497 728 461 692 q 479 801 479 765 q 508 883 479 851 q 569 915 538 915 q 601 906 586 915 q 625 875 615 897 q 680 649 664 786 q 701 357 696 511 q 846 319 806 349 q 790 308 828 314 q 701 294 753 301 q 703 182 701 239 q 704 69 704 125 q 692 -39 704 -8 q 669 -69 681 -69 q 654 -42 654 -69 q 646 133 654 51 q 622 285 638 214 q 478 270 554 278 q 328 256 403 263 q 189 242 253 249 q 101 96 144 172 q 17 -60 57 19 q 0 -69 13 -69 m 264 351 q 436 360 346 358 q 607 363 526 363 q 556 537 583 461 q 514 667 529 613 q 410 549 478 631 q 264 351 343 467 z "},"Ā":{"ha":801,"x_min":-28,"x_max":846,"o":"m 0 -69 q -19 -61 -10 -69 q -28 -37 -28 -53 q -21 -10 -28 -26 q 4 26 -14 7 q 65 142 36 97 q 129 238 93 186 q 103 251 111 240 q 94 275 94 261 q 108 317 94 297 q 132 338 121 338 q 167 342 149 338 q 206 346 186 346 q 287 465 256 418 q 338 542 318 513 q 372 590 357 571 q 401 627 386 610 q 439 668 417 644 q 497 728 461 692 q 479 801 479 765 q 508 883 479 851 q 569 915 538 915 q 601 906 586 915 q 625 875 615 897 q 680 649 664 786 q 701 357 696 511 q 846 319 806 349 q 790 308 828 314 q 701 294 753 301 q 703 182 701 239 q 704 69 704 125 q 692 -39 704 -8 q 669 -69 681 -69 q 654 -42 654 -69 q 646 133 654 51 q 622 285 638 214 q 478 270 554 278 q 328 256 403 263 q 189 242 253 249 q 101 96 144 172 q 17 -60 57 19 q 0 -69 13 -69 m 264 351 q 436 360 346 358 q 607 363 526 363 q 556 537 583 461 q 514 667 529 613 q 410 549 478 631 q 264 351 343 467 m 504 999 q 408 1005 451 999 q 365 1042 365 1011 q 380 1065 365 1054 q 432 1076 394 1076 l 714 1076 q 754 1073 739 1076 q 769 1054 769 1069 q 757 1033 769 1044 q 722 1017 744 1021 q 616 1003 679 1008 q 504 999 553 999 z "},"Ą":{"ha":801,"x_min":-28,"x_max":846,"o":"m 0 -69 q -19 -61 -10 -69 q -28 -37 -28 -53 q -21 -10 -28 -26 q 4 26 -14 7 q 65 142 36 97 q 129 238 93 186 q 103 251 111 240 q 94 275 94 261 q 108 317 94 297 q 132 338 121 338 q 167 342 149 338 q 206 346 186 346 q 287 465 256 418 q 338 542 318 513 q 372 590 357 571 q 401 627 386 610 q 439 668 417 644 q 497 728 461 692 q 479 801 479 765 q 508 883 479 851 q 569 915 538 915 q 601 906 586 915 q 625 875 615 897 q 680 649 664 786 q 701 357 696 511 q 846 319 806 349 q 790 308 828 314 q 701 294 753 301 q 703 182 701 239 q 704 69 704 125 q 692 -39 704 -8 q 669 -69 681 -69 q 654 -42 654 -69 q 646 133 654 51 q 622 285 638 214 q 478 270 554 278 q 328 256 403 263 q 189 242 253 249 q 101 96 144 172 q 17 -60 57 19 q 0 -69 13 -69 m 264 351 q 436 360 346 358 q 607 363 526 363 q 556 537 583 461 q 514 667 529 613 q 410 549 478 631 q 264 351 343 467 m 669 -276 q 590 -255 621 -276 q 558 -179 558 -233 q 571 -117 558 -150 q 602 -54 583 -83 q 643 -6 621 -25 q 683 14 665 14 q 692 7 686 13 q 697 -3 697 1 q 681 -23 697 -7 q 647 -67 664 -39 q 629 -137 629 -94 q 647 -190 629 -172 q 703 -208 664 -208 q 757 -195 732 -208 q 799 -169 782 -182 q 822 -156 817 -156 q 839 -169 839 -156 q 811 -210 839 -185 q 744 -256 783 -236 q 669 -276 706 -276 z "},"Å":{"ha":801,"x_min":-28,"x_max":846,"o":"m 0 -69 q -19 -61 -10 -69 q -28 -37 -28 -53 q -21 -10 -28 -26 q 4 26 -14 7 q 65 142 36 97 q 129 238 93 186 q 103 251 111 240 q 94 275 94 261 q 108 317 94 297 q 132 338 121 338 q 167 342 149 338 q 206 346 186 346 q 287 465 256 418 q 338 542 318 513 q 372 590 357 571 q 401 627 386 610 q 439 668 417 644 q 497 728 461 692 q 479 801 479 765 q 508 883 479 851 q 569 915 538 915 q 601 906 586 915 q 625 875 615 897 q 680 649 664 786 q 701 357 696 511 q 846 319 806 349 q 790 308 828 314 q 701 294 753 301 q 703 182 701 239 q 704 69 704 125 q 692 -39 704 -8 q 669 -69 681 -69 q 654 -42 654 -69 q 646 133 654 51 q 622 285 638 214 q 478 270 554 278 q 328 256 403 263 q 189 242 253 249 q 101 96 144 172 q 17 -60 57 19 q 0 -69 13 -69 m 264 351 q 436 360 346 358 q 607 363 526 363 q 556 537 583 461 q 514 667 529 613 q 410 549 478 631 q 264 351 343 467 m 563 951 q 521 958 549 951 q 471 985 493 965 q 449 1040 449 1004 q 496 1145 449 1104 q 611 1186 543 1186 q 699 1164 658 1186 q 739 1089 739 1142 q 708 1019 739 1050 q 635 969 676 988 q 563 951 593 951 m 568 996 q 608 1012 588 996 q 642 1050 628 1028 q 657 1088 657 1072 q 648 1110 657 1096 q 625 1136 639 1125 q 596 1147 611 1147 q 567 1131 582 1147 q 540 1092 551 1114 q 529 1051 529 1069 q 538 1016 529 1036 q 568 996 546 996 z "},"Ǻ":{"ha":801,"x_min":-28,"x_max":846,"o":"m 0 -69 q -19 -61 -10 -69 q -28 -37 -28 -53 q -21 -10 -28 -26 q 4 26 -14 7 q 65 142 36 97 q 129 238 93 186 q 103 251 111 240 q 94 275 94 261 q 108 317 94 297 q 132 338 121 338 q 167 342 149 338 q 206 346 186 346 q 287 465 256 418 q 338 542 318 513 q 372 590 357 571 q 401 627 386 610 q 439 668 417 644 q 497 728 461 692 q 479 801 479 765 q 508 883 479 851 q 569 915 538 915 q 601 906 586 915 q 625 875 615 897 q 680 649 664 786 q 701 357 696 511 q 846 319 806 349 q 790 308 828 314 q 701 294 753 301 q 703 182 701 239 q 704 69 704 125 q 692 -39 704 -8 q 669 -69 681 -69 q 654 -42 654 -69 q 646 133 654 51 q 622 285 638 214 q 478 270 554 278 q 328 256 403 263 q 189 242 253 249 q 101 96 144 172 q 17 -60 57 19 q 0 -69 13 -69 m 264 351 q 436 360 346 358 q 607 363 526 363 q 556 537 583 461 q 514 667 529 613 q 410 549 478 631 q 264 351 343 467 m 563 951 q 521 958 549 951 q 471 985 493 965 q 449 1040 449 1004 q 496 1145 449 1104 q 611 1186 543 1186 q 699 1164 658 1186 q 739 1089 739 1142 q 708 1019 739 1050 q 635 969 676 988 q 563 951 593 951 m 568 996 q 608 1012 588 996 q 642 1050 628 1028 q 657 1088 657 1072 q 648 1110 657 1096 q 625 1136 639 1125 q 596 1147 611 1147 q 567 1131 582 1147 q 540 1092 551 1114 q 529 1051 529 1069 q 538 1016 529 1036 q 568 996 546 996 m 542 1218 q 517 1233 517 1218 q 578 1279 543 1253 q 647 1333 613 1306 q 706 1382 682 1361 q 748 1413 729 1401 q 781 1425 767 1425 q 803 1408 794 1425 q 813 1372 813 1392 q 808 1351 813 1367 q 781 1324 804 1336 q 728 1297 763 1314 q 656 1261 694 1279 q 587 1231 618 1243 q 542 1218 556 1218 z "},"Ã":{"ha":801,"x_min":-28,"x_max":846,"o":"m 0 -69 q -19 -61 -10 -69 q -28 -37 -28 -53 q -21 -10 -28 -26 q 4 26 -14 7 q 65 142 36 97 q 129 238 93 186 q 103 251 111 240 q 94 275 94 261 q 108 317 94 297 q 132 338 121 338 q 167 342 149 338 q 206 346 186 346 q 287 465 256 418 q 338 542 318 513 q 372 590 357 571 q 401 627 386 610 q 439 668 417 644 q 497 728 461 692 q 479 801 479 765 q 508 883 479 851 q 569 915 538 915 q 601 906 586 915 q 625 875 615 897 q 680 649 664 786 q 701 357 696 511 q 846 319 806 349 q 790 308 828 314 q 701 294 753 301 q 703 182 701 239 q 704 69 704 125 q 692 -39 704 -8 q 669 -69 681 -69 q 654 -42 654 -69 q 646 133 654 51 q 622 285 638 214 q 478 270 554 278 q 328 256 403 263 q 189 242 253 249 q 101 96 144 172 q 17 -60 57 19 q 0 -69 13 -69 m 264 351 q 436 360 346 358 q 607 363 526 363 q 556 537 583 461 q 514 667 529 613 q 410 549 478 631 q 264 351 343 467 m 385 958 q 369 969 375 958 q 364 999 364 981 q 397 1076 364 1047 q 482 1106 431 1106 q 552 1090 521 1106 q 610 1058 583 1074 q 665 1043 638 1043 q 696 1050 681 1043 q 729 1074 711 1057 q 749 1092 736 1076 q 764 1108 761 1108 q 774 1102 768 1108 q 781 1082 781 1096 q 776 1060 781 1072 q 760 1031 771 1047 q 701 975 732 992 q 625 963 669 958 q 573 981 596 965 q 529 1010 550 996 q 483 1025 508 1025 q 440 1003 457 1025 q 404 967 422 982 q 385 958 394 958 z "},"B":{"ha":938,"x_min":50,"x_max":1003,"o":"m 382 -57 q 259 -47 301 -57 q 217 -31 217 -37 q 253 -22 217 -22 q 273 -23 263 -22 q 297 -25 283 -24 q 326 -27 313 -26 q 351 -28 339 -28 q 501 -3 436 -28 q 610 58 565 21 q 674 135 654 96 q 697 218 697 181 q 667 292 697 264 q 588 331 636 319 q 488 343 540 343 q 463 342 483 343 q 418 340 442 340 q 375 344 388 340 q 351 358 351 353 q 493 371 351 371 q 669 405 596 371 q 790 486 742 439 q 863 571 838 533 q 879 619 879 596 q 836 697 879 661 q 720 753 793 732 q 557 775 647 775 q 394 756 479 775 q 226 693 308 738 q 192 685 210 685 q 171 694 171 685 q 211 729 171 706 q 385 795 297 775 q 558 815 474 815 q 729 796 649 815 q 872 744 810 776 q 968 671 933 711 q 1003 590 1003 631 q 989 543 1003 565 q 917 474 969 511 q 785 404 865 436 q 599 354 704 372 q 719 318 660 342 q 818 259 779 294 q 857 174 857 224 q 839 110 857 144 q 776 43 819 72 q 676 -8 733 14 q 555 -41 618 -29 q 433 -56 492 -53 q 406 -57 419 -57 q 382 -57 393 -57 m 106 -86 q 79 -67 94 -86 q 53 6 64 -49 q 51 23 51 14 q 50 42 50 32 q 63 153 50 89 q 99 290 76 218 q 147 431 121 361 q 201 558 174 500 q 253 653 229 617 q 309 697 272 685 q 379 708 346 708 q 432 700 411 708 q 443 681 453 692 q 349 545 397 624 q 257 378 300 467 q 181 204 214 290 q 131 46 147 118 q 119 -74 114 -26 q 106 -86 119 -86 z "},"C":{"ha":1138,"x_min":99,"x_max":1168,"o":"m 521 -72 q 486 -72 503 -72 q 453 -69 469 -71 q 273 -18 353 -58 q 146 88 193 22 q 99 236 99 153 q 121 349 99 290 q 214 501 151 425 q 388 644 276 576 q 678 764 500 711 q 838 803 769 792 q 956 814 906 814 q 1066 797 1026 814 q 1127 755 1106 779 q 1163 707 1149 731 q 1168 683 1168 697 q 1153 635 1168 658 q 1125 611 1138 611 q 1111 642 1111 611 q 1081 684 1111 671 q 1000 697 1050 697 q 872 683 944 697 q 726 644 800 668 q 426 512 536 582 q 268 372 315 442 q 221 238 221 301 q 260 115 221 169 q 358 27 299 61 q 479 -12 418 -7 q 563 -17 521 -17 q 745 1 656 -17 q 908 50 835 18 q 1025 125 982 82 q 1090 182 1065 165 q 1124 199 1114 199 q 1132 190 1132 199 q 1092 126 1132 167 q 981 44 1047 81 q 835 -19 914 7 q 676 -58 757 -44 q 521 -72 594 -72 z "},"Ć":{"ha":1138,"x_min":99,"x_max":1168,"o":"m 521 -72 q 486 -72 503 -72 q 453 -69 469 -71 q 273 -18 353 -58 q 146 88 193 22 q 99 236 99 153 q 121 349 99 290 q 214 501 151 425 q 388 644 276 576 q 678 764 500 711 q 838 803 769 792 q 956 814 906 814 q 1066 797 1026 814 q 1127 755 1106 779 q 1163 707 1149 731 q 1168 683 1168 697 q 1153 635 1168 658 q 1125 611 1138 611 q 1111 642 1111 611 q 1081 684 1111 671 q 1000 697 1050 697 q 872 683 944 697 q 726 644 800 668 q 426 512 536 582 q 268 372 315 442 q 221 238 221 301 q 260 115 221 169 q 358 27 299 61 q 479 -12 418 -7 q 563 -17 521 -17 q 745 1 656 -17 q 908 50 835 18 q 1025 125 982 82 q 1090 182 1065 165 q 1124 199 1114 199 q 1132 190 1132 199 q 1092 126 1132 167 q 981 44 1047 81 q 835 -19 914 7 q 676 -58 757 -44 q 521 -72 594 -72 m 731 893 q 706 908 706 893 q 767 954 732 928 q 836 1008 801 981 q 894 1057 871 1036 q 937 1088 918 1076 q 969 1100 956 1100 q 992 1083 983 1100 q 1001 1047 1001 1067 q 997 1026 1001 1042 q 969 999 993 1011 q 917 972 951 989 q 845 936 883 954 q 776 906 807 918 q 731 893 744 893 z "},"Č":{"ha":1138,"x_min":99,"x_max":1168,"o":"m 1032 1124 q 1047 1120 1040 1124 q 1053 1107 1054 1117 q 993 1056 1028 1086 q 925 995 958 1026 q 867 940 892 964 q 835 913 849 924 q 810 896 821 901 q 804 894 807 894 q 799 893 801 893 q 790 896 796 893 q 742 940 771 907 q 697 995 724 964 q 642 1056 669 1026 q 593 1107 614 1086 q 617 1124 594 1124 q 654 1110 629 1124 q 710 1078 679 1097 q 768 1040 740 1058 q 813 1010 796 1021 q 864 1040 832 1021 q 930 1078 896 1058 q 992 1110 964 1097 q 1032 1124 1019 1124 m 521 -72 q 486 -72 503 -72 q 453 -69 469 -71 q 273 -18 353 -58 q 146 88 193 22 q 99 236 99 153 q 121 349 99 290 q 214 501 151 425 q 388 644 276 576 q 678 764 500 711 q 838 803 769 792 q 956 814 906 814 q 1066 797 1026 814 q 1127 755 1106 779 q 1163 707 1149 731 q 1168 683 1168 697 q 1153 635 1168 658 q 1125 611 1138 611 q 1111 642 1111 611 q 1081 684 1111 671 q 1000 697 1050 697 q 872 683 944 697 q 726 644 800 668 q 426 512 536 582 q 268 372 315 442 q 221 238 221 301 q 260 115 221 169 q 358 27 299 61 q 479 -12 418 -7 q 563 -17 521 -17 q 745 1 656 -17 q 908 50 835 18 q 1025 125 982 82 q 1090 182 1065 165 q 1124 199 1114 199 q 1132 190 1132 199 q 1092 126 1132 167 q 981 44 1047 81 q 835 -19 914 7 q 676 -58 757 -44 q 521 -72 594 -72 z "},"Ç":{"ha":1138,"x_min":99,"x_max":1168,"o":"m 521 -72 q 486 -72 503 -72 q 453 -69 469 -71 q 273 -18 353 -58 q 146 88 193 22 q 99 236 99 153 q 121 349 99 290 q 214 501 151 425 q 388 644 276 576 q 678 764 500 711 q 838 803 769 792 q 956 814 906 814 q 1066 797 1026 814 q 1127 755 1106 779 q 1163 707 1149 731 q 1168 683 1168 697 q 1153 635 1168 658 q 1125 611 1138 611 q 1111 642 1111 611 q 1081 684 1111 671 q 1000 697 1050 697 q 872 683 944 697 q 726 644 800 668 q 426 512 536 582 q 268 372 315 442 q 221 238 221 301 q 260 115 221 169 q 358 27 299 61 q 479 -12 418 -7 q 563 -17 521 -17 q 745 1 656 -17 q 908 50 835 18 q 1025 125 982 82 q 1090 182 1065 165 q 1124 199 1114 199 q 1132 190 1132 199 q 1092 126 1132 167 q 981 44 1047 81 q 835 -19 914 7 q 676 -58 757 -44 q 521 -72 594 -72 m 426 -379 q 347 -358 376 -379 q 317 -308 317 -336 q 324 -287 317 -293 q 339 -281 331 -281 q 360 -300 360 -281 q 378 -328 360 -318 q 422 -337 396 -337 q 461 -326 440 -337 q 497 -295 482 -314 q 511 -258 511 -276 q 494 -216 511 -232 q 460 -182 478 -200 q 443 -132 443 -164 q 458 -83 443 -104 q 497 -46 472 -62 q 522 -40 507 -40 q 538 -42 532 -40 q 538 -49 543 -44 q 514 -71 528 -54 q 500 -115 500 -87 q 515 -145 500 -132 q 547 -173 529 -158 q 580 -205 565 -187 q 594 -247 594 -222 q 567 -324 594 -294 q 499 -366 539 -353 q 426 -379 460 -379 z "},"Ĉ":{"ha":1138,"x_min":99,"x_max":1168,"o":"m 521 -72 q 486 -72 503 -72 q 453 -69 469 -71 q 273 -18 353 -58 q 146 88 193 22 q 99 236 99 153 q 121 349 99 290 q 214 501 151 425 q 388 644 276 576 q 678 764 500 711 q 838 803 769 792 q 956 814 906 814 q 1066 797 1026 814 q 1127 755 1106 779 q 1163 707 1149 731 q 1168 683 1168 697 q 1153 635 1168 658 q 1125 611 1138 611 q 1111 642 1111 611 q 1081 684 1111 671 q 1000 697 1050 697 q 872 683 944 697 q 726 644 800 668 q 426 512 536 582 q 268 372 315 442 q 221 238 221 301 q 260 115 221 169 q 358 27 299 61 q 479 -12 418 -7 q 563 -17 521 -17 q 745 1 656 -17 q 908 50 835 18 q 1025 125 982 82 q 1090 182 1065 165 q 1124 199 1114 199 q 1132 190 1132 199 q 1092 126 1132 167 q 981 44 1047 81 q 835 -19 914 7 q 676 -58 757 -44 q 521 -72 594 -72 m 592 875 q 576 878 583 875 q 571 892 569 882 q 631 942 597 913 q 699 1003 665 972 q 757 1058 733 1035 q 790 1086 776 1075 q 814 1103 804 1097 q 819 1105 817 1104 q 825 1106 822 1106 q 833 1103 828 1106 q 882 1058 853 1092 q 927 1003 900 1035 q 983 942 954 972 q 1031 892 1011 913 q 1007 875 1029 875 q 969 888 994 875 q 914 921 944 901 q 856 959 883 940 q 811 989 828 978 q 760 959 792 978 q 694 921 728 940 q 632 888 660 901 q 592 875 604 875 z "},"Ċ":{"ha":1138,"x_min":99,"x_max":1168,"o":"m 521 -72 q 486 -72 503 -72 q 453 -69 469 -71 q 273 -18 353 -58 q 146 88 193 22 q 99 236 99 153 q 121 349 99 290 q 214 501 151 425 q 388 644 276 576 q 678 764 500 711 q 838 803 769 792 q 956 814 906 814 q 1066 797 1026 814 q 1127 755 1106 779 q 1163 707 1149 731 q 1168 683 1168 697 q 1153 635 1168 658 q 1125 611 1138 611 q 1111 642 1111 611 q 1081 684 1111 671 q 1000 697 1050 697 q 872 683 944 697 q 726 644 800 668 q 426 512 536 582 q 268 372 315 442 q 221 238 221 301 q 260 115 221 169 q 358 27 299 61 q 479 -12 418 -7 q 563 -17 521 -17 q 745 1 656 -17 q 908 50 835 18 q 1025 125 982 82 q 1090 182 1065 165 q 1124 199 1114 199 q 1132 190 1132 199 q 1092 126 1132 167 q 981 44 1047 81 q 835 -19 914 7 q 676 -58 757 -44 q 521 -72 594 -72 m 778 889 q 756 905 769 889 q 735 938 743 921 q 735 958 728 956 q 817 985 789 985 q 850 969 840 985 q 869 931 860 954 q 853 913 874 922 q 809 896 833 903 q 778 889 785 889 z "},"D":{"ha":1414,"x_min":-86,"x_max":1399,"o":"m 568 -92 q 447 -82 488 -92 q 406 -65 406 -72 q 442 -57 406 -57 q 462 -58 451 -57 q 486 -60 472 -58 q 507 -62 496 -61 q 529 -62 518 -62 q 681 -47 594 -62 q 860 -4 768 -32 q 1035 63 951 24 q 1178 151 1118 103 q 1260 254 1239 199 q 1278 349 1278 299 q 1228 509 1278 432 q 1090 646 1178 586 q 885 739 1001 706 q 636 769 768 772 q 397 751 492 765 q 243 715 301 738 q 151 665 185 693 q 97 608 117 638 q 57 547 76 578 q 61 526 57 544 q 79 490 65 507 q 122 474 93 474 q 150 465 150 474 q 142 456 150 460 q 124 451 133 451 q 72 456 103 451 q 11 468 42 461 q -42 483 -19 475 q -71 499 -65 492 q -81 518 -76 506 q -86 544 -86 531 q -68 603 -86 571 q -4 667 -50 635 q 124 727 42 699 q 331 775 206 756 q 635 799 456 794 l 678 799 q 956 771 836 799 q 1160 697 1076 743 q 1297 594 1244 650 q 1374 479 1350 538 q 1399 371 1399 421 q 1388 304 1399 335 q 1296 155 1354 218 q 1165 49 1238 92 q 1013 -21 1092 6 q 858 -62 933 -47 q 721 -83 783 -76 q 619 -90 658 -89 q 592 -92 606 -92 q 568 -92 579 -92 m 292 -121 q 265 -102 281 -121 q 239 -29 250 -83 q 237 -12 238 -21 q 236 7 236 -3 q 249 119 236 54 q 285 255 263 183 q 333 396 307 326 q 388 524 360 465 q 438 618 415 582 q 494 663 457 650 q 565 675 532 675 q 618 666 597 675 q 629 646 639 657 q 535 511 583 590 q 444 344 488 432 q 369 170 401 257 q 319 11 336 83 q 307 -108 301 -61 q 292 -121 307 -121 z "},"Ǆ":{"ha":2164,"x_min":-86,"x_max":2246,"o":"m 2165 1053 q 2181 1049 2174 1053 q 2186 1036 2188 1046 q 2126 985 2161 1015 q 2058 924 2092 956 q 2000 869 2025 893 q 1968 842 1982 853 q 1943 825 1954 831 q 1938 823 1940 824 q 1932 822 1935 822 q 1924 825 1929 822 q 1875 869 1904 836 q 1830 924 1857 893 q 1775 985 1803 956 q 1726 1036 1747 1015 q 1750 1053 1728 1053 q 1788 1040 1763 1053 q 1843 1007 1813 1026 q 1901 969 1874 988 q 1946 939 1929 950 q 1997 969 1965 950 q 2063 1007 2029 988 q 2125 1040 2097 1026 q 2165 1053 2153 1053 m 568 -92 q 447 -82 488 -92 q 406 -65 406 -72 q 442 -57 406 -57 q 462 -58 451 -57 q 486 -60 472 -58 q 507 -62 496 -61 q 529 -62 518 -62 q 681 -47 594 -62 q 860 -4 768 -32 q 1035 63 951 24 q 1178 151 1118 103 q 1260 254 1239 199 q 1278 349 1278 299 q 1228 509 1278 432 q 1090 646 1178 586 q 885 739 1001 706 q 636 769 768 772 q 397 751 492 765 q 243 715 301 738 q 151 665 185 693 q 97 608 117 638 q 57 547 76 578 q 61 526 57 544 q 79 490 65 507 q 122 474 93 474 q 150 465 150 474 q 142 456 150 460 q 124 451 133 451 q 72 456 103 451 q 11 468 42 461 q -42 483 -19 475 q -71 499 -65 492 q -81 518 -76 506 q -86 544 -86 531 q -68 603 -86 571 q -4 667 -50 635 q 124 727 42 699 q 331 775 206 756 q 635 799 456 794 l 678 799 q 956 771 836 799 q 1160 697 1076 743 q 1297 594 1244 650 q 1374 479 1350 538 q 1399 371 1399 421 q 1388 304 1399 335 q 1296 155 1354 218 q 1165 49 1238 92 q 1013 -21 1092 6 q 858 -62 933 -47 q 721 -83 783 -76 q 619 -90 658 -89 q 592 -92 606 -92 q 568 -92 579 -92 m 292 -121 q 265 -102 281 -121 q 239 -29 250 -83 q 237 -12 238 -21 q 236 7 236 -3 q 249 119 236 54 q 285 255 263 183 q 333 396 307 326 q 388 524 360 465 q 438 618 415 582 q 494 663 457 650 q 565 675 532 675 q 618 666 597 675 q 629 646 639 657 q 535 511 583 590 q 444 344 488 432 q 369 170 401 257 q 319 11 336 83 q 307 -108 301 -61 q 292 -121 307 -121 m 2089 -76 q 2058 -28 2071 -47 q 2019 2 2046 -8 q 1933 13 1993 13 q 1854 8 1906 13 q 1743 -3 1803 4 q 1629 -17 1683 -10 q 1542 -29 1575 -24 q 1511 -37 1508 -35 q 1488 -51 1514 -47 q 1439 -56 1463 -56 q 1415 -53 1421 -56 q 1404 -25 1404 -49 q 1410 16 1404 -6 q 1415 38 1415 38 q 1458 106 1418 61 q 1563 209 1499 151 q 1701 328 1626 267 q 1847 449 1775 390 q 1977 557 1919 508 q 2065 635 2035 606 q 2082 665 2094 664 q 2035 670 2060 668 q 1983 672 2010 672 q 1783 651 1886 672 q 1600 594 1679 631 q 1568 585 1579 585 q 1556 594 1556 585 q 1569 626 1556 607 q 1605 664 1583 646 q 1646 689 1626 682 q 1826 731 1736 719 q 1992 743 1915 743 q 2163 728 2094 743 q 2242 696 2232 713 q 2246 679 2246 688 q 2210 605 2246 649 q 2113 508 2174 561 q 1975 397 2051 454 q 1818 281 1899 339 q 1663 170 1738 224 q 1531 73 1589 117 q 1440 -1 1472 29 q 1477 8 1440 -1 q 1576 33 1514 18 q 1710 62 1638 47 q 1856 86 1783 76 q 1988 96 1929 96 q 2050 92 2024 96 q 2115 57 2097 83 q 2132 1 2132 31 q 2124 -44 2132 -22 q 2105 -75 2115 -65 q 2089 -76 2094 -85 z "},"Ď":{"ha":1414,"x_min":-86,"x_max":1399,"o":"m 1156 1129 q 1171 1126 1164 1129 q 1176 1113 1178 1122 q 1117 1062 1151 1092 q 1049 1001 1082 1032 q 990 946 1015 969 q 958 918 972 929 q 933 901 944 907 q 928 899 931 900 q 922 899 925 899 q 914 901 919 899 q 865 946 894 913 q 820 1001 847 969 q 765 1062 793 1032 q 717 1113 738 1092 q 740 1129 718 1129 q 778 1116 753 1129 q 833 1083 803 1103 q 892 1045 864 1064 q 936 1015 919 1026 q 988 1045 956 1026 q 1053 1083 1019 1064 q 1115 1116 1088 1103 q 1156 1129 1143 1129 m 568 -92 q 447 -82 488 -92 q 406 -65 406 -72 q 442 -57 406 -57 q 462 -58 451 -57 q 486 -60 472 -58 q 507 -62 496 -61 q 529 -62 518 -62 q 681 -47 594 -62 q 860 -4 768 -32 q 1035 63 951 24 q 1178 151 1118 103 q 1260 254 1239 199 q 1278 349 1278 299 q 1228 509 1278 432 q 1090 646 1178 586 q 885 739 1001 706 q 636 769 768 772 q 397 751 492 765 q 243 715 301 738 q 151 665 185 693 q 97 608 117 638 q 57 547 76 578 q 61 526 57 544 q 79 490 65 507 q 122 474 93 474 q 150 465 150 474 q 142 456 150 460 q 124 451 133 451 q 72 456 103 451 q 11 468 42 461 q -42 483 -19 475 q -71 499 -65 492 q -81 518 -76 506 q -86 544 -86 531 q -68 603 -86 571 q -4 667 -50 635 q 124 727 42 699 q 331 775 206 756 q 635 799 456 794 l 678 799 q 956 771 836 799 q 1160 697 1076 743 q 1297 594 1244 650 q 1374 479 1350 538 q 1399 371 1399 421 q 1388 304 1399 335 q 1296 155 1354 218 q 1165 49 1238 92 q 1013 -21 1092 6 q 858 -62 933 -47 q 721 -83 783 -76 q 619 -90 658 -89 q 592 -92 606 -92 q 568 -92 579 -92 m 292 -121 q 265 -102 281 -121 q 239 -29 250 -83 q 237 -12 238 -21 q 236 7 236 -3 q 249 119 236 54 q 285 255 263 183 q 333 396 307 326 q 388 524 360 465 q 438 618 415 582 q 494 663 457 650 q 565 675 532 675 q 618 666 597 675 q 629 646 639 657 q 535 511 583 590 q 444 344 488 432 q 369 170 401 257 q 319 11 336 83 q 307 -108 301 -61 q 292 -121 307 -121 z "},"Đ":{"ha":1414,"x_min":-86,"x_max":1399,"o":"m 568 -92 q 447 -82 488 -92 q 406 -65 406 -72 q 442 -57 406 -57 q 462 -58 451 -57 q 486 -60 472 -58 q 507 -62 496 -61 q 529 -62 518 -62 q 681 -47 594 -62 q 860 -4 768 -32 q 1035 63 951 24 q 1178 151 1118 103 q 1260 254 1239 199 q 1278 349 1278 299 q 1228 509 1278 432 q 1090 646 1178 586 q 885 739 1001 706 q 636 769 768 772 q 397 751 492 765 q 243 715 301 738 q 151 665 185 693 q 97 608 117 638 q 57 547 76 578 q 61 526 57 544 q 79 490 65 507 q 122 474 93 474 q 150 465 150 474 q 142 456 150 460 q 124 451 133 451 q 72 456 103 451 q 11 468 42 461 q -42 483 -19 475 q -71 499 -65 492 q -81 518 -76 506 q -86 544 -86 531 q -68 603 -86 571 q -4 667 -50 635 q 124 727 42 699 q 331 775 206 756 q 635 799 456 794 l 678 799 q 956 771 836 799 q 1160 697 1076 743 q 1297 594 1244 650 q 1374 479 1350 538 q 1399 371 1399 421 q 1388 304 1399 335 q 1296 155 1354 218 q 1165 49 1238 92 q 1013 -21 1092 6 q 858 -62 933 -47 q 721 -83 783 -76 q 619 -90 658 -89 q 592 -92 606 -92 q 568 -92 579 -92 m 292 -121 q 265 -102 281 -121 q 239 -29 250 -83 q 237 -12 238 -21 q 236 7 236 -3 q 241 69 236 35 q 254 143 246 104 q 183 155 217 146 q 125 182 150 164 q 100 225 100 200 q 110 244 100 236 q 142 253 119 253 q 186 247 163 253 q 278 233 236 235 q 328 381 300 307 q 385 517 356 454 q 438 618 414 579 q 494 663 457 650 q 565 675 532 675 q 618 666 597 675 q 629 646 639 657 q 547 529 589 597 q 465 385 504 461 q 393 232 426 308 q 445 233 417 233 q 508 233 474 233 q 607 229 579 233 q 635 218 635 225 q 615 205 635 213 q 571 190 596 197 q 479 167 536 181 q 360 147 422 154 q 316 3 331 69 q 307 -108 301 -64 q 292 -121 307 -121 z "},"ǅ":{"ha":2043,"x_min":-86,"x_max":1996,"o":"m 1589 681 q 1635 661 1606 681 q 1698 617 1665 642 q 1753 578 1731 593 q 1813 617 1779 593 q 1876 659 1846 640 q 1924 678 1907 678 q 1939 674 1932 678 q 1944 661 1946 671 q 1874 599 1906 631 q 1807 531 1843 567 q 1775 503 1789 514 q 1750 486 1761 492 q 1744 484 1747 485 q 1739 483 1742 483 q 1731 486 1736 483 q 1682 531 1711 497 q 1626 600 1656 567 q 1565 664 1596 633 q 1589 681 1567 681 m 568 -92 q 447 -82 488 -92 q 406 -65 406 -72 q 442 -57 406 -57 q 462 -58 451 -57 q 486 -60 472 -58 q 507 -62 496 -61 q 529 -62 518 -62 q 681 -47 594 -62 q 860 -4 768 -32 q 1035 63 951 24 q 1178 151 1118 103 q 1260 254 1239 199 q 1278 349 1278 299 q 1228 509 1278 432 q 1090 646 1178 586 q 885 739 1001 706 q 636 769 768 772 q 397 751 492 765 q 243 715 301 738 q 151 665 185 693 q 97 608 117 638 q 57 547 76 578 q 61 526 57 544 q 79 490 65 507 q 122 474 93 474 q 150 465 150 474 q 142 456 150 460 q 124 451 133 451 q 72 456 103 451 q 11 468 42 461 q -42 483 -19 475 q -71 499 -65 492 q -81 518 -76 506 q -86 544 -86 531 q -68 603 -86 571 q -4 667 -50 635 q 124 727 42 699 q 331 775 206 756 q 635 799 456 794 l 678 799 q 956 771 836 799 q 1160 697 1076 743 q 1297 594 1244 650 q 1374 479 1350 538 q 1399 371 1399 421 q 1388 304 1399 335 q 1296 155 1354 218 q 1165 49 1238 92 q 1013 -21 1092 6 q 858 -62 933 -47 q 721 -83 783 -76 q 619 -90 658 -89 q 592 -92 606 -92 q 568 -92 579 -92 m 292 -121 q 265 -102 281 -121 q 239 -29 250 -83 q 237 -12 238 -21 q 236 7 236 -3 q 249 119 236 54 q 285 255 263 183 q 333 396 307 326 q 388 524 360 465 q 438 618 415 582 q 494 663 457 650 q 565 675 532 675 q 618 666 597 675 q 629 646 639 657 q 535 511 583 590 q 444 344 488 432 q 369 170 401 257 q 319 11 336 83 q 307 -108 301 -61 q 292 -121 307 -121 m 1951 -35 q 1921 14 1933 -6 q 1882 44 1908 33 q 1796 54 1856 54 q 1717 49 1761 54 q 1632 37 1672 44 q 1567 22 1592 29 q 1544 13 1542 15 q 1522 -1 1547 3 q 1472 -6 1496 -6 q 1449 -3 1454 -6 q 1422 21 1429 4 q 1415 38 1415 38 q 1452 101 1418 65 q 1535 177 1486 138 q 1638 254 1585 217 q 1736 322 1692 292 q 1803 371 1781 353 q 1811 390 1825 389 q 1778 392 1796 392 q 1740 393 1760 393 q 1632 383 1692 393 q 1500 340 1572 372 q 1501 351 1494 339 q 1517 378 1507 364 q 1533 393 1528 392 q 1646 416 1574 408 q 1789 424 1718 424 q 1908 417 1857 424 q 1967 396 1960 411 q 1972 375 1972 386 q 1940 316 1972 346 q 1855 256 1907 286 q 1743 195 1803 225 q 1629 136 1683 165 q 1538 78 1575 107 q 1494 24 1501 50 q 1527 35 1494 22 q 1613 64 1560 47 q 1728 93 1665 81 q 1853 106 1792 106 q 1885 104 1869 106 q 1917 100 1901 103 q 1979 71 1963 92 q 1996 26 1996 50 q 1978 -26 1996 -4 q 1951 -35 1961 -49 z "},"E":{"ha":943,"x_min":74,"x_max":933,"o":"m 450 -72 q 420 -72 435 -72 q 390 -69 406 -71 q 206 -25 271 -57 q 119 72 142 7 q 100 244 97 136 q 105 277 101 260 q 108 313 108 294 l 96 313 q 78 324 83 313 q 74 353 74 336 q 81 393 74 374 q 99 413 89 413 q 116 415 106 413 q 140 418 126 418 q 221 567 169 493 q 347 700 272 640 q 519 789 421 760 q 683 814 607 814 q 819 792 761 814 q 896 736 876 771 q 901 714 901 726 q 888 675 901 693 q 861 657 875 657 q 844 692 844 657 q 729 771 844 771 q 651 763 694 771 q 554 738 607 756 q 448 676 503 721 q 345 571 393 632 q 264 440 297 510 l 276 442 q 379 449 321 447 q 497 451 438 451 q 637 449 571 451 q 744 440 703 446 q 786 428 786 435 q 717 411 786 419 q 470 374 600 397 q 225 331 340 350 q 218 283 221 307 q 217 236 215 260 q 269 75 222 139 q 400 -4 317 11 q 445 -10 422 -8 q 492 -11 468 -11 q 617 0 554 -11 q 733 30 679 11 q 822 73 786 49 q 867 125 858 97 q 889 172 876 154 q 913 190 901 190 q 933 126 933 190 q 888 49 933 85 q 768 -14 842 14 q 610 -57 694 -42 q 450 -72 526 -72 z "},"É":{"ha":943,"x_min":74,"x_max":933,"o":"m 450 -72 q 420 -72 435 -72 q 390 -69 406 -71 q 206 -25 271 -57 q 119 72 142 7 q 100 244 97 136 q 105 277 101 260 q 108 313 108 294 l 96 313 q 78 324 83 313 q 74 353 74 336 q 81 393 74 374 q 99 413 89 413 q 116 415 106 413 q 140 418 126 418 q 221 567 169 493 q 347 700 272 640 q 519 789 421 760 q 683 814 607 814 q 819 792 761 814 q 896 736 876 771 q 901 714 901 726 q 888 675 901 693 q 861 657 875 657 q 844 692 844 657 q 729 771 844 771 q 651 763 694 771 q 554 738 607 756 q 448 676 503 721 q 345 571 393 632 q 264 440 297 510 l 276 442 q 379 449 321 447 q 497 451 438 451 q 637 449 571 451 q 744 440 703 446 q 786 428 786 435 q 717 411 786 419 q 470 374 600 397 q 225 331 340 350 q 218 283 221 307 q 217 236 215 260 q 269 75 222 139 q 400 -4 317 11 q 445 -10 422 -8 q 492 -11 468 -11 q 617 0 554 -11 q 733 30 679 11 q 822 73 786 49 q 867 125 858 97 q 889 172 876 154 q 913 190 901 190 q 933 126 933 190 q 888 49 933 85 q 768 -14 842 14 q 610 -57 694 -42 q 450 -72 526 -72 m 600 899 q 575 914 575 899 q 636 960 601 933 q 706 1014 671 986 q 764 1063 740 1042 q 806 1094 788 1082 q 839 1106 825 1106 q 862 1089 853 1106 q 871 1053 871 1072 q 867 1032 871 1047 q 839 1004 863 1017 q 787 977 821 994 q 715 942 753 960 q 645 911 676 924 q 600 899 614 899 z "},"Ĕ":{"ha":943,"x_min":74,"x_max":933,"o":"m 450 -72 q 420 -72 435 -72 q 390 -69 406 -71 q 206 -25 271 -57 q 119 72 142 7 q 100 244 97 136 q 105 277 101 260 q 108 313 108 294 l 96 313 q 78 324 83 313 q 74 353 74 336 q 81 393 74 374 q 99 413 89 413 q 116 415 106 413 q 140 418 126 418 q 221 567 169 493 q 347 700 272 640 q 519 789 421 760 q 683 814 607 814 q 819 792 761 814 q 896 736 876 771 q 901 714 901 726 q 888 675 901 693 q 861 657 875 657 q 844 692 844 657 q 729 771 844 771 q 651 763 694 771 q 554 738 607 756 q 448 676 503 721 q 345 571 393 632 q 264 440 297 510 l 276 442 q 379 449 321 447 q 497 451 438 451 q 637 449 571 451 q 744 440 703 446 q 786 428 786 435 q 717 411 786 419 q 470 374 600 397 q 225 331 340 350 q 218 283 221 307 q 217 236 215 260 q 269 75 222 139 q 400 -4 317 11 q 445 -10 422 -8 q 492 -11 468 -11 q 617 0 554 -11 q 733 30 679 11 q 822 73 786 49 q 867 125 858 97 q 889 172 876 154 q 913 190 901 190 q 933 126 933 190 q 888 49 933 85 q 768 -14 842 14 q 610 -57 694 -42 q 450 -72 526 -72 m 672 911 q 600 926 636 911 q 539 971 564 940 q 508 1049 514 1001 q 513 1081 507 1068 q 529 1093 519 1093 q 538 1085 532 1093 q 549 1071 544 1078 q 609 1010 576 1025 q 679 994 642 994 q 755 1012 721 994 q 829 1065 789 1029 q 854 1090 844 1078 q 865 1103 864 1103 q 876 1079 876 1103 q 868 1042 876 1063 q 783 942 839 974 q 672 911 726 911 z "},"Ě":{"ha":943,"x_min":74,"x_max":933,"o":"m 901 1129 q 917 1126 910 1129 q 922 1113 924 1122 q 863 1062 897 1092 q 794 1001 828 1032 q 736 946 761 969 q 704 918 718 929 q 679 901 690 907 q 674 899 676 900 q 668 899 671 899 q 660 901 665 899 q 611 946 640 913 q 566 1001 593 969 q 511 1062 539 1032 q 463 1113 483 1092 q 486 1129 464 1129 q 524 1116 499 1129 q 579 1083 549 1103 q 638 1045 610 1064 q 682 1015 665 1026 q 733 1045 701 1026 q 799 1083 765 1064 q 861 1116 833 1103 q 901 1129 889 1129 m 450 -72 q 420 -72 435 -72 q 390 -69 406 -71 q 206 -25 271 -57 q 119 72 142 7 q 100 244 97 136 q 105 277 101 260 q 108 313 108 294 l 96 313 q 78 324 83 313 q 74 353 74 336 q 81 393 74 374 q 99 413 89 413 q 116 415 106 413 q 140 418 126 418 q 221 567 169 493 q 347 700 272 640 q 519 789 421 760 q 683 814 607 814 q 819 792 761 814 q 896 736 876 771 q 901 714 901 726 q 888 675 901 693 q 861 657 875 657 q 844 692 844 657 q 729 771 844 771 q 651 763 694 771 q 554 738 607 756 q 448 676 503 721 q 345 571 393 632 q 264 440 297 510 l 276 442 q 379 449 321 447 q 497 451 438 451 q 637 449 571 451 q 744 440 703 446 q 786 428 786 435 q 717 411 786 419 q 470 374 600 397 q 225 331 340 350 q 218 283 221 307 q 217 236 215 260 q 269 75 222 139 q 400 -4 317 11 q 445 -10 422 -8 q 492 -11 468 -11 q 617 0 554 -11 q 733 30 679 11 q 822 73 786 49 q 867 125 858 97 q 889 172 876 154 q 913 190 901 190 q 933 126 933 190 q 888 49 933 85 q 768 -14 842 14 q 610 -57 694 -42 q 450 -72 526 -72 z "},"Ê":{"ha":943,"x_min":74,"x_max":933,"o":"m 450 -72 q 420 -72 435 -72 q 390 -69 406 -71 q 206 -25 271 -57 q 119 72 142 7 q 100 244 97 136 q 105 277 101 260 q 108 313 108 294 l 96 313 q 78 324 83 313 q 74 353 74 336 q 81 393 74 374 q 99 413 89 413 q 116 415 106 413 q 140 418 126 418 q 221 567 169 493 q 347 700 272 640 q 519 789 421 760 q 683 814 607 814 q 819 792 761 814 q 896 736 876 771 q 901 714 901 726 q 888 675 901 693 q 861 657 875 657 q 844 692 844 657 q 729 771 844 771 q 651 763 694 771 q 554 738 607 756 q 448 676 503 721 q 345 571 393 632 q 264 440 297 510 l 276 442 q 379 449 321 447 q 497 451 438 451 q 637 449 571 451 q 744 440 703 446 q 786 428 786 435 q 717 411 786 419 q 470 374 600 397 q 225 331 340 350 q 218 283 221 307 q 217 236 215 260 q 269 75 222 139 q 400 -4 317 11 q 445 -10 422 -8 q 492 -11 468 -11 q 617 0 554 -11 q 733 30 679 11 q 822 73 786 49 q 867 125 858 97 q 889 172 876 154 q 913 190 901 190 q 933 126 933 190 q 888 49 933 85 q 768 -14 842 14 q 610 -57 694 -42 q 450 -72 526 -72 m 461 881 q 446 884 453 881 q 440 897 439 888 q 501 948 467 918 q 569 1009 535 978 q 626 1064 603 1040 q 660 1092 646 1081 q 683 1108 674 1103 q 689 1110 686 1110 q 694 1111 692 1111 q 703 1108 697 1111 q 751 1064 722 1097 q 797 1009 769 1040 q 852 948 824 978 q 900 897 881 918 q 876 881 899 881 q 839 894 864 881 q 783 926 814 907 q 725 965 753 946 q 681 994 697 983 q 629 965 661 983 q 563 926 597 946 q 501 894 529 907 q 461 881 474 881 z "},"Ế":{"ha":943,"x_min":74,"x_max":1156,"o":"m 450 -72 q 420 -72 435 -72 q 390 -69 406 -71 q 206 -25 271 -57 q 119 72 142 7 q 100 244 97 136 q 105 277 101 260 q 108 313 108 294 l 96 313 q 78 324 83 313 q 74 353 74 336 q 81 393 74 374 q 99 413 89 413 q 116 415 106 413 q 140 418 126 418 q 221 567 169 493 q 347 700 272 640 q 519 789 421 760 q 683 814 607 814 q 819 792 761 814 q 896 736 876 771 q 901 714 901 726 q 888 675 901 693 q 861 657 875 657 q 844 692 844 657 q 729 771 844 771 q 651 763 694 771 q 554 738 607 756 q 448 676 503 721 q 345 571 393 632 q 264 440 297 510 l 276 442 q 379 449 321 447 q 497 451 438 451 q 637 449 571 451 q 744 440 703 446 q 786 428 786 435 q 717 411 786 419 q 470 374 600 397 q 225 331 340 350 q 218 283 221 307 q 217 236 215 260 q 269 75 222 139 q 400 -4 317 11 q 445 -10 422 -8 q 492 -11 468 -11 q 617 0 554 -11 q 733 30 679 11 q 822 73 786 49 q 867 125 858 97 q 889 172 876 154 q 913 190 901 190 q 933 126 933 190 q 888 49 933 85 q 768 -14 842 14 q 610 -57 694 -42 q 450 -72 526 -72 m 461 881 q 446 884 453 881 q 440 897 439 888 q 501 948 467 918 q 569 1009 535 978 q 626 1064 603 1040 q 660 1092 646 1081 q 683 1108 674 1103 q 689 1110 686 1110 q 694 1111 692 1111 q 703 1108 697 1111 q 751 1064 722 1097 q 797 1009 769 1040 q 852 948 824 978 q 900 897 881 918 q 876 881 899 881 q 839 894 864 881 q 783 926 814 907 q 725 965 753 946 q 681 994 697 983 q 629 965 661 983 q 563 926 597 946 q 501 894 529 907 q 461 881 474 881 m 885 1064 q 860 1079 860 1064 q 921 1125 886 1099 q 990 1179 956 1151 q 1049 1228 1025 1207 q 1091 1259 1072 1247 q 1124 1271 1110 1271 q 1147 1254 1138 1271 q 1156 1218 1156 1238 q 1151 1197 1156 1213 q 1124 1169 1147 1182 q 1072 1142 1106 1160 q 999 1107 1038 1125 q 930 1076 961 1089 q 885 1064 899 1064 z "},"Ệ":{"ha":943,"x_min":74,"x_max":933,"o":"m 450 -72 q 420 -72 435 -72 q 390 -69 406 -71 q 206 -25 271 -57 q 119 72 142 7 q 100 244 97 136 q 105 277 101 260 q 108 313 108 294 l 96 313 q 78 324 83 313 q 74 353 74 336 q 81 393 74 374 q 99 413 89 413 q 116 415 106 413 q 140 418 126 418 q 221 567 169 493 q 347 700 272 640 q 519 789 421 760 q 683 814 607 814 q 819 792 761 814 q 896 736 876 771 q 901 714 901 726 q 888 675 901 693 q 861 657 875 657 q 844 692 844 657 q 729 771 844 771 q 651 763 694 771 q 554 738 607 756 q 448 676 503 721 q 345 571 393 632 q 264 440 297 510 l 276 442 q 379 449 321 447 q 497 451 438 451 q 637 449 571 451 q 744 440 703 446 q 786 428 786 435 q 717 411 786 419 q 470 374 600 397 q 225 331 340 350 q 218 283 221 307 q 217 236 215 260 q 269 75 222 139 q 400 -4 317 11 q 445 -10 422 -8 q 492 -11 468 -11 q 617 0 554 -11 q 733 30 679 11 q 822 73 786 49 q 867 125 858 97 q 889 172 876 154 q 913 190 901 190 q 933 126 933 190 q 888 49 933 85 q 768 -14 842 14 q 610 -57 694 -42 q 450 -72 526 -72 m 450 -247 q 428 -231 442 -247 q 408 -198 415 -215 q 407 -178 400 -181 q 489 -151 461 -151 q 522 -167 513 -151 q 542 -206 532 -182 q 526 -224 546 -214 q 481 -240 506 -233 q 450 -247 457 -247 m 461 881 q 446 884 453 881 q 440 897 439 888 q 501 948 467 918 q 569 1009 535 978 q 626 1064 603 1040 q 660 1092 646 1081 q 683 1108 674 1103 q 689 1110 686 1110 q 694 1111 692 1111 q 703 1108 697 1111 q 751 1064 722 1097 q 797 1009 769 1040 q 852 948 824 978 q 900 897 881 918 q 876 881 899 881 q 839 894 864 881 q 783 926 814 907 q 725 965 753 946 q 681 994 697 983 q 629 965 661 983 q 563 926 597 946 q 501 894 529 907 q 461 881 474 881 z "},"Ề":{"ha":943,"x_min":74,"x_max":933,"o":"m 450 -72 q 420 -72 435 -72 q 390 -69 406 -71 q 206 -25 271 -57 q 119 72 142 7 q 100 244 97 136 q 105 277 101 260 q 108 313 108 294 l 96 313 q 78 324 83 313 q 74 353 74 336 q 81 393 74 374 q 99 413 89 413 q 116 415 106 413 q 140 418 126 418 q 221 567 169 493 q 347 700 272 640 q 519 789 421 760 q 683 814 607 814 q 819 792 761 814 q 896 736 876 771 q 901 714 901 726 q 888 675 901 693 q 861 657 875 657 q 844 692 844 657 q 729 771 844 771 q 651 763 694 771 q 554 738 607 756 q 448 676 503 721 q 345 571 393 632 q 264 440 297 510 l 276 442 q 379 449 321 447 q 497 451 438 451 q 637 449 571 451 q 744 440 703 446 q 786 428 786 435 q 717 411 786 419 q 470 374 600 397 q 225 331 340 350 q 218 283 221 307 q 217 236 215 260 q 269 75 222 139 q 400 -4 317 11 q 445 -10 422 -8 q 492 -11 468 -11 q 617 0 554 -11 q 733 30 679 11 q 822 73 786 49 q 867 125 858 97 q 889 172 876 154 q 913 190 901 190 q 933 126 933 190 q 888 49 933 85 q 768 -14 842 14 q 610 -57 694 -42 q 450 -72 526 -72 m 461 881 q 446 884 453 881 q 440 897 439 888 q 501 948 467 918 q 569 1009 535 978 q 626 1064 603 1040 q 660 1092 646 1081 q 683 1108 674 1103 q 689 1110 686 1110 q 694 1111 692 1111 q 703 1108 697 1111 q 751 1064 722 1097 q 797 1009 769 1040 q 852 948 824 978 q 900 897 881 918 q 876 881 899 881 q 839 894 864 881 q 783 926 814 907 q 725 965 753 946 q 681 994 697 983 q 629 965 661 983 q 563 926 597 946 q 501 894 529 907 q 461 881 474 881 m 897 1092 q 852 1104 883 1092 q 783 1135 821 1117 q 711 1170 744 1153 q 658 1197 678 1188 q 631 1225 635 1210 q 626 1246 626 1240 q 635 1282 626 1265 q 658 1299 644 1299 q 690 1287 669 1299 q 733 1256 710 1275 q 792 1207 758 1235 q 862 1153 826 1179 q 922 1107 897 1126 q 897 1092 922 1092 z "},"Ể":{"ha":943,"x_min":74,"x_max":1026,"o":"m 450 -72 q 420 -72 435 -72 q 390 -69 406 -71 q 206 -25 271 -57 q 119 72 142 7 q 100 244 97 136 q 105 277 101 260 q 108 313 108 294 l 96 313 q 78 324 83 313 q 74 353 74 336 q 81 393 74 374 q 99 413 89 413 q 116 415 106 413 q 140 418 126 418 q 221 567 169 493 q 347 700 272 640 q 519 789 421 760 q 683 814 607 814 q 819 792 761 814 q 896 736 876 771 q 901 714 901 726 q 888 675 901 693 q 861 657 875 657 q 844 692 844 657 q 729 771 844 771 q 651 763 694 771 q 554 738 607 756 q 448 676 503 721 q 345 571 393 632 q 264 440 297 510 l 276 442 q 379 449 321 447 q 497 451 438 451 q 637 449 571 451 q 744 440 703 446 q 786 428 786 435 q 717 411 786 419 q 470 374 600 397 q 225 331 340 350 q 218 283 221 307 q 217 236 215 260 q 269 75 222 139 q 400 -4 317 11 q 445 -10 422 -8 q 492 -11 468 -11 q 617 0 554 -11 q 733 30 679 11 q 822 73 786 49 q 867 125 858 97 q 889 172 876 154 q 913 190 901 190 q 933 126 933 190 q 888 49 933 85 q 768 -14 842 14 q 610 -57 694 -42 q 450 -72 526 -72 m 461 881 q 446 884 453 881 q 440 897 439 888 q 501 948 467 918 q 569 1009 535 978 q 626 1064 603 1040 q 660 1092 646 1081 q 683 1108 674 1103 q 689 1110 686 1110 q 694 1111 692 1111 q 703 1108 697 1111 q 751 1064 722 1097 q 797 1009 769 1040 q 852 948 824 978 q 900 897 881 918 q 876 881 899 881 q 839 894 864 881 q 783 926 814 907 q 725 965 753 946 q 681 994 697 983 q 629 965 661 983 q 563 926 597 946 q 501 894 529 907 q 461 881 474 881 m 907 999 q 894 1001 901 999 q 886 1008 888 1003 q 885 1017 885 1013 q 885 1025 885 1021 q 896 1067 885 1051 q 918 1098 907 1082 q 929 1142 929 1114 q 913 1185 929 1172 q 874 1199 896 1199 q 813 1182 843 1199 q 800 1179 804 1179 q 796 1197 786 1179 q 834 1231 806 1214 q 903 1249 863 1249 q 995 1223 964 1249 q 1026 1160 1026 1197 q 996 1083 1026 1119 q 967 1053 979 1061 q 946 1039 954 1046 q 929 1011 938 1032 q 907 999 924 999 z "},"Ễ":{"ha":943,"x_min":74,"x_max":960,"o":"m 450 -72 q 420 -72 435 -72 q 390 -69 406 -71 q 206 -25 271 -57 q 119 72 142 7 q 100 244 97 136 q 105 277 101 260 q 108 313 108 294 l 96 313 q 78 324 83 313 q 74 353 74 336 q 81 393 74 374 q 99 413 89 413 q 116 415 106 413 q 140 418 126 418 q 221 567 169 493 q 347 700 272 640 q 519 789 421 760 q 683 814 607 814 q 819 792 761 814 q 896 736 876 771 q 901 714 901 726 q 888 675 901 693 q 861 657 875 657 q 844 692 844 657 q 729 771 844 771 q 651 763 694 771 q 554 738 607 756 q 448 676 503 721 q 345 571 393 632 q 264 440 297 510 l 276 442 q 379 449 321 447 q 497 451 438 451 q 637 449 571 451 q 744 440 703 446 q 786 428 786 435 q 717 411 786 419 q 470 374 600 397 q 225 331 340 350 q 218 283 221 307 q 217 236 215 260 q 269 75 222 139 q 400 -4 317 11 q 445 -10 422 -8 q 492 -11 468 -11 q 617 0 554 -11 q 733 30 679 11 q 822 73 786 49 q 867 125 858 97 q 889 172 876 154 q 913 190 901 190 q 933 126 933 190 q 888 49 933 85 q 768 -14 842 14 q 610 -57 694 -42 q 450 -72 526 -72 m 461 881 q 446 884 453 881 q 440 897 439 888 q 501 948 467 918 q 569 1009 535 978 q 626 1064 603 1040 q 660 1092 646 1081 q 683 1108 674 1103 q 689 1110 686 1110 q 694 1111 692 1111 q 703 1108 697 1111 q 751 1064 722 1097 q 797 1009 769 1040 q 852 948 824 978 q 900 897 881 918 q 876 881 899 881 q 839 894 864 881 q 783 926 814 907 q 725 965 753 946 q 681 994 697 983 q 629 965 661 983 q 563 926 597 946 q 501 894 529 907 q 461 881 474 881 m 564 1129 q 549 1140 554 1129 q 543 1169 543 1151 q 576 1247 543 1218 q 661 1276 610 1276 q 731 1260 700 1276 q 790 1229 763 1244 q 844 1214 817 1214 q 875 1221 860 1214 q 908 1244 890 1228 q 928 1263 915 1247 q 943 1279 940 1279 q 953 1273 947 1279 q 960 1253 960 1267 q 955 1231 960 1243 q 939 1201 950 1218 q 880 1146 911 1163 q 804 1133 849 1129 q 752 1151 775 1136 q 708 1181 729 1167 q 663 1196 688 1196 q 619 1174 636 1196 q 583 1138 601 1153 q 564 1129 574 1129 z "},"Ȅ":{"ha":943,"x_min":74,"x_max":933,"o":"m 735 892 q 692 913 721 894 q 628 955 663 931 q 564 1002 594 979 q 517 1038 533 1025 q 494 1069 496 1054 q 494 1090 493 1085 q 509 1125 497 1110 q 535 1138 521 1140 q 563 1120 546 1135 q 601 1082 581 1106 q 650 1024 621 1057 q 709 958 679 990 q 761 903 739 926 q 735 892 758 888 m 560 876 q 517 897 546 879 q 453 940 488 915 q 389 987 419 964 q 342 1022 358 1010 q 319 1054 321 1039 q 319 1075 318 1069 q 334 1110 322 1094 q 360 1122 346 1125 q 388 1105 371 1119 q 426 1067 406 1090 q 475 1008 446 1042 q 534 943 504 975 q 586 888 564 911 q 560 876 583 872 m 450 -72 q 420 -72 435 -72 q 390 -69 406 -71 q 206 -25 271 -57 q 119 72 142 7 q 100 244 97 136 q 105 277 101 260 q 108 313 108 294 l 96 313 q 78 324 83 313 q 74 353 74 336 q 81 393 74 374 q 99 413 89 413 q 116 415 106 413 q 140 418 126 418 q 221 567 169 493 q 347 700 272 640 q 519 789 421 760 q 683 814 607 814 q 819 792 761 814 q 896 736 876 771 q 901 714 901 726 q 888 675 901 693 q 861 657 875 657 q 844 692 844 657 q 729 771 844 771 q 651 763 694 771 q 554 738 607 756 q 448 676 503 721 q 345 571 393 632 q 264 440 297 510 l 276 442 q 379 449 321 447 q 497 451 438 451 q 637 449 571 451 q 744 440 703 446 q 786 428 786 435 q 717 411 786 419 q 470 374 600 397 q 225 331 340 350 q 218 283 221 307 q 217 236 215 260 q 269 75 222 139 q 400 -4 317 11 q 445 -10 422 -8 q 492 -11 468 -11 q 617 0 554 -11 q 733 30 679 11 q 822 73 786 49 q 867 125 858 97 q 889 172 876 154 q 913 190 901 190 q 933 126 933 190 q 888 49 933 85 q 768 -14 842 14 q 610 -57 694 -42 q 450 -72 526 -72 z "},"Ë":{"ha":943,"x_min":74,"x_max":933,"o":"m 450 -72 q 420 -72 435 -72 q 390 -69 406 -71 q 206 -25 271 -57 q 119 72 142 7 q 100 244 97 136 q 105 277 101 260 q 108 313 108 294 l 96 313 q 78 324 83 313 q 74 353 74 336 q 81 393 74 374 q 99 413 89 413 q 116 415 106 413 q 140 418 126 418 q 221 567 169 493 q 347 700 272 640 q 519 789 421 760 q 683 814 607 814 q 819 792 761 814 q 896 736 876 771 q 901 714 901 726 q 888 675 901 693 q 861 657 875 657 q 844 692 844 657 q 729 771 844 771 q 651 763 694 771 q 554 738 607 756 q 448 676 503 721 q 345 571 393 632 q 264 440 297 510 l 276 442 q 379 449 321 447 q 497 451 438 451 q 637 449 571 451 q 744 440 703 446 q 786 428 786 435 q 717 411 786 419 q 470 374 600 397 q 225 331 340 350 q 218 283 221 307 q 217 236 215 260 q 269 75 222 139 q 400 -4 317 11 q 445 -10 422 -8 q 492 -11 468 -11 q 617 0 554 -11 q 733 30 679 11 q 822 73 786 49 q 867 125 858 97 q 889 172 876 154 q 913 190 901 190 q 933 126 933 190 q 888 49 933 85 q 768 -14 842 14 q 610 -57 694 -42 q 450 -72 526 -72 m 540 892 q 519 908 532 892 q 498 941 506 924 q 497 961 490 958 q 579 988 551 988 q 613 972 603 988 q 632 933 622 957 q 616 915 636 925 q 572 899 596 906 q 540 892 547 892 m 764 892 q 742 908 756 892 q 722 941 729 924 q 721 961 714 958 q 803 988 775 988 q 836 972 826 988 q 856 933 846 957 q 840 915 860 925 q 795 899 819 906 q 764 892 771 892 z "},"Ė":{"ha":943,"x_min":74,"x_max":933,"o":"m 450 -72 q 420 -72 435 -72 q 390 -69 406 -71 q 206 -25 271 -57 q 119 72 142 7 q 100 244 97 136 q 105 277 101 260 q 108 313 108 294 l 96 313 q 78 324 83 313 q 74 353 74 336 q 81 393 74 374 q 99 413 89 413 q 116 415 106 413 q 140 418 126 418 q 221 567 169 493 q 347 700 272 640 q 519 789 421 760 q 683 814 607 814 q 819 792 761 814 q 896 736 876 771 q 901 714 901 726 q 888 675 901 693 q 861 657 875 657 q 844 692 844 657 q 729 771 844 771 q 651 763 694 771 q 554 738 607 756 q 448 676 503 721 q 345 571 393 632 q 264 440 297 510 l 276 442 q 379 449 321 447 q 497 451 438 451 q 637 449 571 451 q 744 440 703 446 q 786 428 786 435 q 717 411 786 419 q 470 374 600 397 q 225 331 340 350 q 218 283 221 307 q 217 236 215 260 q 269 75 222 139 q 400 -4 317 11 q 445 -10 422 -8 q 492 -11 468 -11 q 617 0 554 -11 q 733 30 679 11 q 822 73 786 49 q 867 125 858 97 q 889 172 876 154 q 913 190 901 190 q 933 126 933 190 q 888 49 933 85 q 768 -14 842 14 q 610 -57 694 -42 q 450 -72 526 -72 m 647 894 q 626 910 639 894 q 605 944 613 926 q 604 964 597 961 q 686 990 658 990 q 719 975 710 990 q 739 936 729 960 q 723 918 743 928 q 678 901 703 908 q 647 894 654 894 z "},"Ẹ":{"ha":943,"x_min":74,"x_max":933,"o":"m 450 -72 q 420 -72 435 -72 q 390 -69 406 -71 q 206 -25 271 -57 q 119 72 142 7 q 100 244 97 136 q 105 277 101 260 q 108 313 108 294 l 96 313 q 78 324 83 313 q 74 353 74 336 q 81 393 74 374 q 99 413 89 413 q 116 415 106 413 q 140 418 126 418 q 221 567 169 493 q 347 700 272 640 q 519 789 421 760 q 683 814 607 814 q 819 792 761 814 q 896 736 876 771 q 901 714 901 726 q 888 675 901 693 q 861 657 875 657 q 844 692 844 657 q 729 771 844 771 q 651 763 694 771 q 554 738 607 756 q 448 676 503 721 q 345 571 393 632 q 264 440 297 510 l 276 442 q 379 449 321 447 q 497 451 438 451 q 637 449 571 451 q 744 440 703 446 q 786 428 786 435 q 717 411 786 419 q 470 374 600 397 q 225 331 340 350 q 218 283 221 307 q 217 236 215 260 q 269 75 222 139 q 400 -4 317 11 q 445 -10 422 -8 q 492 -11 468 -11 q 617 0 554 -11 q 733 30 679 11 q 822 73 786 49 q 867 125 858 97 q 889 172 876 154 q 913 190 901 190 q 933 126 933 190 q 888 49 933 85 q 768 -14 842 14 q 610 -57 694 -42 q 450 -72 526 -72 m 450 -247 q 428 -231 442 -247 q 408 -198 415 -215 q 407 -178 400 -181 q 489 -151 461 -151 q 522 -167 513 -151 q 542 -206 532 -182 q 526 -224 546 -214 q 481 -240 506 -233 q 450 -247 457 -247 z "},"È":{"ha":943,"x_min":74,"x_max":933,"o":"m 450 -72 q 420 -72 435 -72 q 390 -69 406 -71 q 206 -25 271 -57 q 119 72 142 7 q 100 244 97 136 q 105 277 101 260 q 108 313 108 294 l 96 313 q 78 324 83 313 q 74 353 74 336 q 81 393 74 374 q 99 413 89 413 q 116 415 106 413 q 140 418 126 418 q 221 567 169 493 q 347 700 272 640 q 519 789 421 760 q 683 814 607 814 q 819 792 761 814 q 896 736 876 771 q 901 714 901 726 q 888 675 901 693 q 861 657 875 657 q 844 692 844 657 q 729 771 844 771 q 651 763 694 771 q 554 738 607 756 q 448 676 503 721 q 345 571 393 632 q 264 440 297 510 l 276 442 q 379 449 321 447 q 497 451 438 451 q 637 449 571 451 q 744 440 703 446 q 786 428 786 435 q 717 411 786 419 q 470 374 600 397 q 225 331 340 350 q 218 283 221 307 q 217 236 215 260 q 269 75 222 139 q 400 -4 317 11 q 445 -10 422 -8 q 492 -11 468 -11 q 617 0 554 -11 q 733 30 679 11 q 822 73 786 49 q 867 125 858 97 q 889 172 876 154 q 913 190 901 190 q 933 126 933 190 q 888 49 933 85 q 768 -14 842 14 q 610 -57 694 -42 q 450 -72 526 -72 m 744 897 q 699 910 731 897 q 630 940 668 922 q 558 976 592 958 q 506 1003 525 993 q 478 1031 482 1015 q 474 1051 474 1046 q 483 1088 474 1071 q 506 1104 492 1104 q 537 1092 517 1104 q 581 1061 557 1081 q 640 1013 606 1040 q 709 958 674 985 q 769 913 744 932 q 744 897 769 897 z "},"Ẻ":{"ha":943,"x_min":74,"x_max":933,"o":"m 450 -72 q 420 -72 435 -72 q 390 -69 406 -71 q 206 -25 271 -57 q 119 72 142 7 q 100 244 97 136 q 105 277 101 260 q 108 313 108 294 l 96 313 q 78 324 83 313 q 74 353 74 336 q 81 393 74 374 q 99 413 89 413 q 116 415 106 413 q 140 418 126 418 q 221 567 169 493 q 347 700 272 640 q 519 789 421 760 q 683 814 607 814 q 819 792 761 814 q 896 736 876 771 q 901 714 901 726 q 888 675 901 693 q 861 657 875 657 q 844 692 844 657 q 729 771 844 771 q 651 763 694 771 q 554 738 607 756 q 448 676 503 721 q 345 571 393 632 q 264 440 297 510 l 276 442 q 379 449 321 447 q 497 451 438 451 q 637 449 571 451 q 744 440 703 446 q 786 428 786 435 q 717 411 786 419 q 470 374 600 397 q 225 331 340 350 q 218 283 221 307 q 217 236 215 260 q 269 75 222 139 q 400 -4 317 11 q 445 -10 422 -8 q 492 -11 468 -11 q 617 0 554 -11 q 733 30 679 11 q 822 73 786 49 q 867 125 858 97 q 889 172 876 154 q 913 190 901 190 q 933 126 933 190 q 888 49 933 85 q 768 -14 842 14 q 610 -57 694 -42 q 450 -72 526 -72 m 667 883 q 654 885 661 883 q 646 893 647 888 q 644 901 644 897 q 644 910 644 906 q 656 951 644 936 q 678 983 667 967 q 689 1026 689 999 q 672 1070 689 1057 q 633 1083 656 1083 q 572 1067 603 1083 q 560 1064 564 1064 q 556 1081 546 1064 q 594 1116 565 1099 q 663 1133 622 1133 q 755 1108 724 1133 q 786 1044 786 1082 q 756 968 786 1004 q 726 938 739 946 q 706 924 714 931 q 689 896 697 917 q 667 883 683 883 z "},"Ȇ":{"ha":943,"x_min":74,"x_max":933,"o":"m 689 1032 q 756 1019 722 1032 q 813 977 789 1006 q 840 906 836 949 q 835 875 842 886 q 821 864 829 864 q 813 871 818 864 q 803 885 807 878 q 747 941 778 926 q 682 956 717 956 q 612 940 643 956 q 543 889 581 924 q 520 866 529 878 q 510 854 511 854 q 499 876 499 854 q 507 911 499 892 q 585 1003 533 974 q 689 1032 638 1032 m 450 -72 q 420 -72 435 -72 q 390 -69 406 -71 q 206 -25 271 -57 q 119 72 142 7 q 100 244 97 136 q 105 277 101 260 q 108 313 108 294 l 96 313 q 78 324 83 313 q 74 353 74 336 q 81 393 74 374 q 99 413 89 413 q 116 415 106 413 q 140 418 126 418 q 221 567 169 493 q 347 700 272 640 q 519 789 421 760 q 683 814 607 814 q 819 792 761 814 q 896 736 876 771 q 901 714 901 726 q 888 675 901 693 q 861 657 875 657 q 844 692 844 657 q 729 771 844 771 q 651 763 694 771 q 554 738 607 756 q 448 676 503 721 q 345 571 393 632 q 264 440 297 510 l 276 442 q 379 449 321 447 q 497 451 438 451 q 637 449 571 451 q 744 440 703 446 q 786 428 786 435 q 717 411 786 419 q 470 374 600 397 q 225 331 340 350 q 218 283 221 307 q 217 236 215 260 q 269 75 222 139 q 400 -4 317 11 q 445 -10 422 -8 q 492 -11 468 -11 q 617 0 554 -11 q 733 30 679 11 q 822 73 786 49 q 867 125 858 97 q 889 172 876 154 q 913 190 901 190 q 933 126 933 190 q 888 49 933 85 q 768 -14 842 14 q 610 -57 694 -42 q 450 -72 526 -72 z "},"Ē":{"ha":943,"x_min":74,"x_max":933,"o":"m 450 -72 q 420 -72 435 -72 q 390 -69 406 -71 q 206 -25 271 -57 q 119 72 142 7 q 100 244 97 136 q 105 277 101 260 q 108 313 108 294 l 96 313 q 78 324 83 313 q 74 353 74 336 q 81 393 74 374 q 99 413 89 413 q 116 415 106 413 q 140 418 126 418 q 221 567 169 493 q 347 700 272 640 q 519 789 421 760 q 683 814 607 814 q 819 792 761 814 q 896 736 876 771 q 901 714 901 726 q 888 675 901 693 q 861 657 875 657 q 844 692 844 657 q 729 771 844 771 q 651 763 694 771 q 554 738 607 756 q 448 676 503 721 q 345 571 393 632 q 264 440 297 510 l 276 442 q 379 449 321 447 q 497 451 438 451 q 637 449 571 451 q 744 440 703 446 q 786 428 786 435 q 717 411 786 419 q 470 374 600 397 q 225 331 340 350 q 218 283 221 307 q 217 236 215 260 q 269 75 222 139 q 400 -4 317 11 q 445 -10 422 -8 q 492 -11 468 -11 q 617 0 554 -11 q 733 30 679 11 q 822 73 786 49 q 867 125 858 97 q 889 172 876 154 q 913 190 901 190 q 933 126 933 190 q 888 49 933 85 q 768 -14 842 14 q 610 -57 694 -42 q 450 -72 526 -72 m 606 929 q 510 935 553 929 q 467 972 467 942 q 481 996 467 985 q 533 1007 496 1007 l 815 1007 q 856 1003 840 1007 q 871 985 871 1000 q 858 963 871 975 q 824 947 846 951 q 717 934 781 939 q 606 929 654 929 z "},"Ŋ":{"ha":956,"x_min":82,"x_max":1019,"o":"m 481 -307 q 384 -285 426 -307 q 318 -230 342 -262 q 294 -165 294 -197 q 335 -101 294 -124 q 348 -116 342 -97 q 368 -160 354 -135 q 411 -206 382 -186 q 492 -226 440 -226 q 558 -218 521 -226 q 632 -177 603 -207 q 681 -109 661 -147 q 713 -33 700 -71 q 733 29 725 4 q 742 64 735 32 q 620 172 678 111 q 507 301 563 232 q 434 394 464 357 q 378 460 404 431 q 324 525 353 490 q 260 382 294 457 q 195 235 226 307 q 144 103 164 164 q 125 3 125 43 q 126 -10 125 -4 q 128 -22 126 -17 q 130 -33 129 -28 q 131 -40 131 -37 q 116 -35 131 -57 q 88 44 101 -14 q 83 72 85 57 q 82 101 82 86 q 97 242 82 163 q 135 409 113 322 q 181 578 158 496 q 218 724 203 660 q 233 822 233 789 q 231 844 233 839 q 228 854 228 850 q 250 868 228 868 q 308 851 274 868 q 368 800 343 833 q 388 721 393 767 q 387 713 388 717 q 385 703 386 708 q 463 594 428 657 q 535 463 497 532 q 624 326 574 394 q 645 295 624 324 q 699 227 667 267 q 761 151 732 188 q 796 306 776 218 q 835 483 815 393 q 872 644 856 572 q 904 789 889 731 q 906 796 906 794 q 907 797 907 797 q 936 818 914 808 q 979 828 958 828 q 1008 818 997 828 q 1017 782 1019 808 q 970 536 997 661 q 909 291 943 411 q 833 67 875 171 q 864 21 864 35 q 850 11 864 11 q 814 19 835 11 q 706 -176 765 -94 q 579 -286 647 -258 q 481 -307 528 -307 z "},"Ę":{"ha":943,"x_min":74,"x_max":933,"o":"m 450 -72 q 420 -72 435 -72 q 390 -69 406 -71 q 206 -25 271 -57 q 119 72 142 7 q 100 244 97 136 q 105 277 101 260 q 108 313 108 294 l 96 313 q 78 324 83 313 q 74 353 74 336 q 81 393 74 374 q 99 413 89 413 q 116 415 106 413 q 140 418 126 418 q 221 567 169 493 q 347 700 272 640 q 519 789 421 760 q 683 814 607 814 q 819 792 761 814 q 896 736 876 771 q 901 714 901 726 q 888 675 901 693 q 861 657 875 657 q 844 692 844 657 q 729 771 844 771 q 651 763 694 771 q 554 738 607 756 q 448 676 503 721 q 345 571 393 632 q 264 440 297 510 l 276 442 q 379 449 321 447 q 497 451 438 451 q 637 449 571 451 q 744 440 703 446 q 786 428 786 435 q 717 411 786 419 q 470 374 600 397 q 225 331 340 350 q 218 283 221 307 q 217 236 215 260 q 269 75 222 139 q 400 -4 317 11 q 445 -10 422 -8 q 492 -11 468 -11 q 617 0 554 -11 q 733 30 679 11 q 822 73 786 49 q 867 125 858 97 q 889 172 876 154 q 913 190 901 190 q 933 126 933 190 q 888 49 933 85 q 768 -14 842 14 q 610 -57 694 -42 q 450 -72 526 -72 m 731 -276 q 651 -255 682 -276 q 619 -179 619 -233 q 632 -117 619 -150 q 663 -54 644 -83 q 704 -6 682 -25 q 744 14 726 14 q 753 7 747 13 q 758 -3 758 1 q 742 -23 758 -7 q 708 -67 725 -39 q 690 -137 690 -94 q 708 -190 690 -172 q 764 -208 725 -208 q 818 -195 793 -208 q 860 -169 843 -182 q 883 -156 878 -156 q 900 -169 900 -156 q 872 -210 900 -185 q 806 -256 844 -236 q 731 -276 767 -276 z "},"Ð":{"ha":1414,"x_min":-86,"x_max":1399,"o":"m 568 -92 q 447 -82 488 -92 q 406 -65 406 -72 q 442 -57 406 -57 q 462 -58 451 -57 q 486 -60 472 -58 q 507 -62 496 -61 q 529 -62 518 -62 q 681 -47 594 -62 q 860 -4 768 -32 q 1035 63 951 24 q 1178 151 1118 103 q 1260 254 1239 199 q 1278 349 1278 299 q 1228 509 1278 432 q 1090 646 1178 586 q 885 739 1001 706 q 636 769 768 772 q 397 751 492 765 q 243 715 301 738 q 151 665 185 693 q 97 608 117 638 q 57 547 76 578 q 61 526 57 544 q 79 490 65 507 q 122 474 93 474 q 150 465 150 474 q 142 456 150 460 q 124 451 133 451 q 72 456 103 451 q 11 468 42 461 q -42 483 -19 475 q -71 499 -65 492 q -81 518 -76 506 q -86 544 -86 531 q -68 603 -86 571 q -4 667 -50 635 q 124 727 42 699 q 331 775 206 756 q 635 799 456 794 l 678 799 q 956 771 836 799 q 1160 697 1076 743 q 1297 594 1244 650 q 1374 479 1350 538 q 1399 371 1399 421 q 1388 304 1399 335 q 1296 155 1354 218 q 1165 49 1238 92 q 1013 -21 1092 6 q 858 -62 933 -47 q 721 -83 783 -76 q 619 -90 658 -89 q 592 -92 606 -92 q 568 -92 579 -92 m 292 -121 q 265 -102 281 -121 q 239 -29 250 -83 q 237 -12 238 -21 q 236 7 236 -3 q 241 69 236 35 q 254 143 246 104 q 183 155 217 146 q 125 182 150 164 q 100 225 100 200 q 110 244 100 236 q 142 253 119 253 q 186 247 163 253 q 278 233 236 235 q 328 381 300 307 q 385 517 356 454 q 438 618 414 579 q 494 663 457 650 q 565 675 532 675 q 618 666 597 675 q 629 646 639 657 q 547 529 589 597 q 465 385 504 461 q 393 232 426 308 q 445 233 417 233 q 508 233 474 233 q 607 229 579 233 q 635 218 635 225 q 615 205 635 213 q 571 190 596 197 q 479 167 536 181 q 360 147 422 154 q 316 3 331 69 q 307 -108 301 -64 q 292 -121 307 -121 z "},"Ẽ":{"ha":943,"x_min":74,"x_max":933,"o":"m 450 -72 q 420 -72 435 -72 q 390 -69 406 -71 q 206 -25 271 -57 q 119 72 142 7 q 100 244 97 136 q 105 277 101 260 q 108 313 108 294 l 96 313 q 78 324 83 313 q 74 353 74 336 q 81 393 74 374 q 99 413 89 413 q 116 415 106 413 q 140 418 126 418 q 221 567 169 493 q 347 700 272 640 q 519 789 421 760 q 683 814 607 814 q 819 792 761 814 q 896 736 876 771 q 901 714 901 726 q 888 675 901 693 q 861 657 875 657 q 844 692 844 657 q 729 771 844 771 q 651 763 694 771 q 554 738 607 756 q 448 676 503 721 q 345 571 393 632 q 264 440 297 510 l 276 442 q 379 449 321 447 q 497 451 438 451 q 637 449 571 451 q 744 440 703 446 q 786 428 786 435 q 717 411 786 419 q 470 374 600 397 q 225 331 340 350 q 218 283 221 307 q 217 236 215 260 q 269 75 222 139 q 400 -4 317 11 q 445 -10 422 -8 q 492 -11 468 -11 q 617 0 554 -11 q 733 30 679 11 q 822 73 786 49 q 867 125 858 97 q 889 172 876 154 q 913 190 901 190 q 933 126 933 190 q 888 49 933 85 q 768 -14 842 14 q 610 -57 694 -42 q 450 -72 526 -72 m 486 889 q 471 900 476 889 q 465 929 465 911 q 499 1007 465 978 q 583 1036 532 1036 q 653 1020 622 1036 q 712 989 685 1004 q 767 974 739 974 q 797 981 782 974 q 831 1004 813 988 q 850 1023 838 1007 q 865 1039 863 1039 q 876 1033 869 1039 q 882 1013 882 1026 q 877 990 882 1003 q 861 961 872 978 q 802 906 833 922 q 726 893 771 889 q 674 911 697 896 q 631 941 651 926 q 585 956 610 956 q 541 934 558 956 q 506 897 524 913 q 486 889 496 889 z "},"F":{"ha":807,"x_min":96,"x_max":1154,"o":"m 393 -36 q 366 -28 382 -36 q 333 3 350 -19 q 299 81 308 35 q 290 171 290 126 q 299 274 290 229 q 307 318 307 318 q 270 347 289 336 q 261 375 251 358 q 293 400 271 394 q 346 411 315 406 q 392 528 364 454 q 483 690 421 601 q 527 721 493 704 q 597 749 561 738 q 538 757 567 754 q 482 760 510 760 q 347 738 414 760 q 213 661 281 717 q 199 638 199 649 q 207 616 199 626 q 215 597 215 606 q 204 585 215 590 q 181 578 190 578 q 138 600 156 578 q 110 647 121 622 q 96 704 96 676 q 132 783 96 751 q 219 834 168 815 q 315 860 271 853 q 376 867 346 865 q 433 869 406 869 q 619 850 531 869 q 783 802 707 831 q 920 746 858 774 q 1026 700 982 718 q 1092 685 1069 682 q 1117 695 1110 685 q 1128 715 1124 706 q 1140 719 1133 724 q 1154 701 1154 710 q 1142 683 1154 692 q 1122 667 1131 674 q 1047 646 1096 646 q 945 660 1003 646 q 826 692 888 674 q 704 725 764 711 q 694 727 699 725 q 683 729 689 729 l 674 718 q 581 603 614 650 q 529 522 547 556 q 499 461 511 488 q 472 407 488 435 l 656 407 q 706 397 706 407 q 697 387 706 394 q 664 374 689 379 q 588 368 639 368 q 487 359 518 368 q 439 333 456 350 q 393 210 408 276 q 378 90 378 143 q 387 22 378 50 q 414 -17 396 -7 q 418 -22 418 -18 q 411 -31 418 -26 q 393 -36 404 -36 z "},"G":{"ha":1225,"x_min":17,"x_max":1201,"o":"m 507 -67 q 454 -65 481 -67 q 400 -60 428 -64 q 202 2 289 -44 q 66 114 115 49 q 17 254 17 179 q 39 351 17 303 q 182 546 93 467 q 378 674 271 625 q 596 744 486 722 q 800 767 706 767 q 980 743 907 767 q 1058 679 1053 719 q 1052 638 1061 660 q 1025 617 1043 617 q 1009 623 1018 617 q 989 644 1000 629 q 949 665 981 658 q 872 672 918 672 q 731 659 811 672 q 566 617 651 646 q 401 544 481 589 q 260 438 321 500 q 169 293 199 375 q 158 231 158 260 q 192 120 158 174 q 290 29 226 67 q 439 -22 353 -8 q 499 -30 471 -28 q 554 -32 528 -32 q 714 -8 647 -32 q 817 57 781 17 q 853 144 853 97 q 808 249 853 199 q 749 285 786 275 q 673 298 713 296 q 599 300 633 300 q 547 304 565 300 q 536 324 529 308 q 578 335 540 332 q 676 338 617 338 q 852 335 754 338 q 1035 332 950 332 q 1117 333 1079 332 q 1181 338 1154 335 l 1185 338 q 1201 329 1201 338 q 1187 315 1201 324 q 1138 301 1172 307 q 1082 294 1114 297 q 1019 288 1050 290 q 967 283 988 285 q 949 279 947 281 q 997 181 997 232 q 957 88 997 132 q 847 8 917 43 q 690 -47 778 -26 q 507 -67 601 -67 z "},"Ğ":{"ha":1225,"x_min":17,"x_max":1201,"o":"m 507 -67 q 454 -65 481 -67 q 400 -60 428 -64 q 202 2 289 -44 q 66 114 115 49 q 17 254 17 179 q 39 351 17 303 q 182 546 93 467 q 378 674 271 625 q 596 744 486 722 q 800 767 706 767 q 980 743 907 767 q 1058 679 1053 719 q 1052 638 1061 660 q 1025 617 1043 617 q 1009 623 1018 617 q 989 644 1000 629 q 949 665 981 658 q 872 672 918 672 q 731 659 811 672 q 566 617 651 646 q 401 544 481 589 q 260 438 321 500 q 169 293 199 375 q 158 231 158 260 q 192 120 158 174 q 290 29 226 67 q 439 -22 353 -8 q 499 -30 471 -28 q 554 -32 528 -32 q 714 -8 647 -32 q 817 57 781 17 q 853 144 853 97 q 808 249 853 199 q 749 285 786 275 q 673 298 713 296 q 599 300 633 300 q 547 304 565 300 q 536 324 529 308 q 578 335 540 332 q 676 338 617 338 q 852 335 754 338 q 1035 332 950 332 q 1117 333 1079 332 q 1181 338 1154 335 l 1185 338 q 1201 329 1201 338 q 1187 315 1201 324 q 1138 301 1172 307 q 1082 294 1114 297 q 1019 288 1050 290 q 967 283 988 285 q 949 279 947 281 q 997 181 997 232 q 957 88 997 132 q 847 8 917 43 q 690 -47 778 -26 q 507 -67 601 -67 m 803 872 q 731 887 767 872 q 669 932 694 901 q 639 1010 644 963 q 644 1042 638 1029 q 660 1054 650 1054 q 669 1047 663 1054 q 679 1032 675 1039 q 740 971 707 986 q 810 956 772 956 q 885 973 851 956 q 960 1026 919 990 q 985 1051 975 1039 q 996 1064 994 1064 q 1007 1040 1007 1064 q 999 1003 1007 1024 q 913 903 969 935 q 803 872 857 872 z "},"Ǧ":{"ha":1225,"x_min":17,"x_max":1201,"o":"m 1032 1090 q 1047 1087 1040 1090 q 1053 1074 1054 1083 q 993 1023 1028 1053 q 925 962 958 993 q 867 907 892 931 q 835 879 849 890 q 810 863 821 868 q 804 860 807 861 q 799 860 801 860 q 790 863 796 860 q 742 907 771 874 q 697 962 724 931 q 642 1023 669 993 q 593 1074 614 1053 q 617 1090 594 1090 q 654 1077 629 1090 q 710 1044 679 1064 q 768 1006 740 1025 q 813 976 796 988 q 864 1006 832 988 q 930 1044 896 1025 q 992 1077 964 1064 q 1032 1090 1019 1090 m 507 -67 q 454 -65 481 -67 q 400 -60 428 -64 q 202 2 289 -44 q 66 114 115 49 q 17 254 17 179 q 39 351 17 303 q 182 546 93 467 q 378 674 271 625 q 596 744 486 722 q 800 767 706 767 q 980 743 907 767 q 1058 679 1053 719 q 1052 638 1061 660 q 1025 617 1043 617 q 1009 623 1018 617 q 989 644 1000 629 q 949 665 981 658 q 872 672 918 672 q 731 659 811 672 q 566 617 651 646 q 401 544 481 589 q 260 438 321 500 q 169 293 199 375 q 158 231 158 260 q 192 120 158 174 q 290 29 226 67 q 439 -22 353 -8 q 499 -30 471 -28 q 554 -32 528 -32 q 714 -8 647 -32 q 817 57 781 17 q 853 144 853 97 q 808 249 853 199 q 749 285 786 275 q 673 298 713 296 q 599 300 633 300 q 547 304 565 300 q 536 324 529 308 q 578 335 540 332 q 676 338 617 338 q 852 335 754 338 q 1035 332 950 332 q 1117 333 1079 332 q 1181 338 1154 335 l 1185 338 q 1201 329 1201 338 q 1187 315 1201 324 q 1138 301 1172 307 q 1082 294 1114 297 q 1019 288 1050 290 q 967 283 988 285 q 949 279 947 281 q 997 181 997 232 q 957 88 997 132 q 847 8 917 43 q 690 -47 778 -26 q 507 -67 601 -67 z "},"Ĝ":{"ha":1225,"x_min":17,"x_max":1201,"o":"m 507 -67 q 454 -65 481 -67 q 400 -60 428 -64 q 202 2 289 -44 q 66 114 115 49 q 17 254 17 179 q 39 351 17 303 q 182 546 93 467 q 378 674 271 625 q 596 744 486 722 q 800 767 706 767 q 980 743 907 767 q 1058 679 1053 719 q 1052 638 1061 660 q 1025 617 1043 617 q 1009 623 1018 617 q 989 644 1000 629 q 949 665 981 658 q 872 672 918 672 q 731 659 811 672 q 566 617 651 646 q 401 544 481 589 q 260 438 321 500 q 169 293 199 375 q 158 231 158 260 q 192 120 158 174 q 290 29 226 67 q 439 -22 353 -8 q 499 -30 471 -28 q 554 -32 528 -32 q 714 -8 647 -32 q 817 57 781 17 q 853 144 853 97 q 808 249 853 199 q 749 285 786 275 q 673 298 713 296 q 599 300 633 300 q 547 304 565 300 q 536 324 529 308 q 578 335 540 332 q 676 338 617 338 q 852 335 754 338 q 1035 332 950 332 q 1117 333 1079 332 q 1181 338 1154 335 l 1185 338 q 1201 329 1201 338 q 1187 315 1201 324 q 1138 301 1172 307 q 1082 294 1114 297 q 1019 288 1050 290 q 967 283 988 285 q 949 279 947 281 q 997 181 997 232 q 957 88 997 132 q 847 8 917 43 q 690 -47 778 -26 q 507 -67 601 -67 m 592 842 q 576 845 583 842 q 571 858 569 849 q 631 909 597 879 q 699 970 665 939 q 757 1025 733 1001 q 790 1053 776 1042 q 814 1069 804 1064 q 819 1072 817 1071 q 825 1072 822 1072 q 833 1069 828 1072 q 882 1025 853 1058 q 927 970 900 1001 q 983 909 954 939 q 1031 858 1011 879 q 1007 842 1029 842 q 969 855 994 842 q 914 888 944 868 q 856 926 883 907 q 811 956 828 944 q 760 926 792 944 q 694 888 728 907 q 632 855 660 868 q 592 842 604 842 z "},"Ģ":{"ha":1225,"x_min":17,"x_max":1201,"o":"m 507 -67 q 454 -65 481 -67 q 400 -60 428 -64 q 202 2 289 -44 q 66 114 115 49 q 17 254 17 179 q 39 351 17 303 q 182 546 93 467 q 378 674 271 625 q 596 744 486 722 q 800 767 706 767 q 980 743 907 767 q 1058 679 1053 719 q 1052 638 1061 660 q 1025 617 1043 617 q 1009 623 1018 617 q 989 644 1000 629 q 949 665 981 658 q 872 672 918 672 q 731 659 811 672 q 566 617 651 646 q 401 544 481 589 q 260 438 321 500 q 169 293 199 375 q 158 231 158 260 q 192 120 158 174 q 290 29 226 67 q 439 -22 353 -8 q 499 -30 471 -28 q 554 -32 528 -32 q 714 -8 647 -32 q 817 57 781 17 q 853 144 853 97 q 808 249 853 199 q 749 285 786 275 q 673 298 713 296 q 599 300 633 300 q 547 304 565 300 q 536 324 529 308 q 578 335 540 332 q 676 338 617 338 q 852 335 754 338 q 1035 332 950 332 q 1117 333 1079 332 q 1181 338 1154 335 l 1185 338 q 1201 329 1201 338 q 1187 315 1201 324 q 1138 301 1172 307 q 1082 294 1114 297 q 1019 288 1050 290 q 967 283 988 285 q 949 279 947 281 q 997 181 997 232 q 957 88 997 132 q 847 8 917 43 q 690 -47 778 -26 q 507 -67 601 -67 m 372 -346 q 372 -333 363 -346 q 400 -299 382 -319 q 433 -253 418 -278 q 449 -206 449 -229 q 431 -167 449 -185 q 418 -150 418 -156 q 427 -140 418 -143 q 449 -136 436 -136 q 505 -147 476 -136 q 533 -193 533 -157 q 522 -231 533 -206 q 489 -281 510 -256 q 441 -326 468 -307 q 382 -344 414 -344 l 372 -346 z "},"Ġ":{"ha":1225,"x_min":17,"x_max":1201,"o":"m 507 -67 q 454 -65 481 -67 q 400 -60 428 -64 q 202 2 289 -44 q 66 114 115 49 q 17 254 17 179 q 39 351 17 303 q 182 546 93 467 q 378 674 271 625 q 596 744 486 722 q 800 767 706 767 q 980 743 907 767 q 1058 679 1053 719 q 1052 638 1061 660 q 1025 617 1043 617 q 1009 623 1018 617 q 989 644 1000 629 q 949 665 981 658 q 872 672 918 672 q 731 659 811 672 q 566 617 651 646 q 401 544 481 589 q 260 438 321 500 q 169 293 199 375 q 158 231 158 260 q 192 120 158 174 q 290 29 226 67 q 439 -22 353 -8 q 499 -30 471 -28 q 554 -32 528 -32 q 714 -8 647 -32 q 817 57 781 17 q 853 144 853 97 q 808 249 853 199 q 749 285 786 275 q 673 298 713 296 q 599 300 633 300 q 547 304 565 300 q 536 324 529 308 q 578 335 540 332 q 676 338 617 338 q 852 335 754 338 q 1035 332 950 332 q 1117 333 1079 332 q 1181 338 1154 335 l 1185 338 q 1201 329 1201 338 q 1187 315 1201 324 q 1138 301 1172 307 q 1082 294 1114 297 q 1019 288 1050 290 q 967 283 988 285 q 949 279 947 281 q 997 181 997 232 q 957 88 997 132 q 847 8 917 43 q 690 -47 778 -26 q 507 -67 601 -67 m 778 856 q 756 872 769 856 q 735 905 743 888 q 735 925 728 922 q 817 951 789 951 q 850 936 840 951 q 869 897 860 921 q 853 879 874 889 q 809 863 833 869 q 778 856 785 856 z "},"ẞ":{"ha":885,"x_min":24,"x_max":829,"o":"m 78 -196 q 54 -178 68 -196 q 32 -111 40 -161 q 24 -22 24 -71 q 40 143 24 57 q 84 311 57 229 q 142 460 111 393 q 201 568 174 528 q 340 729 269 669 q 511 806 410 789 q 593 814 556 814 q 767 764 704 814 q 829 646 829 714 q 765 516 829 582 q 564 413 701 450 q 522 398 533 406 q 511 383 511 390 q 529 363 511 372 q 568 345 547 353 q 599 331 589 338 q 694 244 651 294 q 738 138 738 194 q 722 78 738 108 q 608 -28 688 8 q 425 -68 528 -64 q 401 -69 413 -69 q 379 -69 390 -69 q 272 -60 308 -69 q 235 -46 235 -51 q 265 -37 235 -37 q 283 -38 274 -37 q 304 -40 293 -39 q 331 -42 318 -42 q 354 -43 343 -43 q 465 -22 422 -43 q 533 31 507 -1 q 575 100 558 64 q 589 153 589 126 q 573 219 589 188 q 535 278 557 250 q 496 326 514 306 q 455 368 471 354 q 439 389 439 382 q 464 405 439 399 q 544 429 489 411 q 674 512 635 457 q 714 622 714 567 q 695 700 714 664 q 643 758 676 736 q 565 781 610 781 q 484 760 528 781 q 394 690 440 739 q 283 538 332 625 q 197 353 233 450 q 135 163 160 257 q 99 -12 111 68 q 88 -147 88 -93 q 88 -167 88 -157 q 90 -185 89 -178 q 78 -196 90 -196 z "},"H":{"ha":956,"x_min":-3,"x_max":989,"o":"m 81 -64 q 61 -40 71 -64 q 49 31 51 -17 q 47 56 47 43 q 47 82 47 68 q 50 168 47 126 q 58 240 53 210 q 67 275 63 269 q 17 292 36 282 q -3 311 -3 301 q 31 332 -3 324 q 51 333 39 332 q 78 335 63 335 q 117 457 93 389 q 168 593 142 525 q 214 718 194 661 q 238 806 233 775 q 249 826 239 819 q 274 832 260 832 q 322 819 296 832 q 366 784 347 807 q 385 731 385 761 q 383 709 385 721 q 374 686 381 697 q 326 604 353 644 q 265 504 299 564 q 189 343 232 444 l 806 343 q 829 533 819 438 q 869 750 839 629 q 892 757 869 753 q 939 761 915 761 q 974 755 960 761 q 983 731 989 749 q 954 634 971 692 q 920 516 938 576 q 890 408 903 456 q 874 342 878 361 q 925 342 893 342 q 968 331 957 342 q 964 315 978 321 q 927 305 950 310 q 883 294 904 300 q 857 281 861 289 q 832 142 842 206 q 815 37 822 78 q 794 -10 807 -4 q 788 -11 792 -11 q 775 18 775 -11 q 779 69 775 38 q 785 132 783 100 q 790 191 788 168 q 794 239 792 214 q 799 307 797 264 q 535 295 661 297 q 313 290 408 293 q 168 272 217 286 q 116 99 138 178 q 92 -36 94 21 q 81 -64 92 -64 z "},"Ħ":{"ha":956,"x_min":-3,"x_max":1026,"o":"m 343 550 q 189 556 257 550 q 89 578 121 563 q 61 611 61 592 q 72 626 61 619 q 107 632 82 632 q 157 628 131 632 q 240 621 186 622 q 363 619 294 619 q 542 622 446 619 q 729 625 639 624 q 883 626 819 626 q 995 623 964 626 q 1026 615 1026 619 q 1004 604 1026 610 q 954 593 982 599 q 863 581 928 589 q 710 567 797 574 q 526 555 622 560 q 343 550 431 550 m 81 -64 q 61 -40 71 -64 q 49 31 51 -17 q 47 56 47 43 q 47 82 47 68 q 50 168 47 126 q 58 240 53 210 q 67 275 63 269 q 17 292 36 282 q -3 311 -3 301 q 31 332 -3 324 q 51 333 39 332 q 78 335 63 335 q 117 457 93 389 q 168 593 142 525 q 214 718 194 661 q 238 806 233 775 q 249 826 239 819 q 274 832 260 832 q 322 819 296 832 q 366 784 347 807 q 385 731 385 761 q 383 709 385 721 q 374 686 381 697 q 326 604 353 644 q 265 504 299 564 q 189 343 232 444 l 806 343 q 829 533 819 438 q 869 750 839 629 q 892 757 869 753 q 939 761 915 761 q 974 755 960 761 q 983 731 989 749 q 954 634 971 692 q 920 516 938 576 q 890 408 903 456 q 874 342 878 361 q 925 342 893 342 q 968 331 957 342 q 964 315 978 321 q 927 305 950 310 q 883 294 904 300 q 857 281 861 289 q 832 142 842 206 q 815 37 822 78 q 794 -10 807 -4 q 788 -11 792 -11 q 775 18 775 -11 q 779 69 775 38 q 785 132 783 100 q 790 191 788 168 q 794 239 792 214 q 799 307 797 264 q 535 295 661 297 q 313 290 408 293 q 168 272 217 286 q 116 99 138 178 q 92 -36 94 21 q 81 -64 92 -64 z "},"Ĥ":{"ha":956,"x_min":-3,"x_max":989,"o":"m 81 -64 q 61 -40 71 -64 q 49 31 51 -17 q 47 56 47 43 q 47 82 47 68 q 50 168 47 126 q 58 240 53 210 q 67 275 63 269 q 17 292 36 282 q -3 311 -3 301 q 31 332 -3 324 q 51 333 39 332 q 78 335 63 335 q 117 457 93 389 q 168 593 142 525 q 214 718 194 661 q 238 806 233 775 q 249 826 239 819 q 274 832 260 832 q 322 819 296 832 q 366 784 347 807 q 385 731 385 761 q 383 709 385 721 q 374 686 381 697 q 326 604 353 644 q 265 504 299 564 q 189 343 232 444 l 806 343 q 829 533 819 438 q 869 750 839 629 q 892 757 869 753 q 939 761 915 761 q 974 755 960 761 q 983 731 989 749 q 954 634 971 692 q 920 516 938 576 q 890 408 903 456 q 874 342 878 361 q 925 342 893 342 q 968 331 957 342 q 964 315 978 321 q 927 305 950 310 q 883 294 904 300 q 857 281 861 289 q 832 142 842 206 q 815 37 822 78 q 794 -10 807 -4 q 788 -11 792 -11 q 775 18 775 -11 q 779 69 775 38 q 785 132 783 100 q 790 191 788 168 q 794 239 792 214 q 799 307 797 264 q 535 295 661 297 q 313 290 408 293 q 168 272 217 286 q 116 99 138 178 q 92 -36 94 21 q 81 -64 92 -64 m 818 850 q 772 869 803 850 q 709 913 742 889 q 654 953 676 938 q 594 914 628 938 q 531 872 561 890 q 483 853 500 853 q 468 856 475 853 q 463 869 461 860 q 533 933 501 901 q 600 1000 564 965 q 633 1028 619 1017 q 657 1044 647 1039 q 663 1047 660 1046 q 668 1047 665 1047 q 676 1044 671 1047 q 725 1000 696 1033 q 782 932 753 965 q 842 867 811 899 q 818 850 840 850 z "},"I":{"ha":561,"x_min":-4,"x_max":736,"o":"m 218 -64 q 197 -51 208 -64 q 175 -3 185 -37 q 78 -7 117 -7 q 56 -6 65 -7 q 43 -4 47 -6 q 26 1 38 -3 q 5 13 14 6 q -1 26 -4 19 q 26 57 10 43 q 90 71 42 71 q 117 69 110 71 q 125 65 125 68 q 114 57 125 61 q 103 50 103 53 q 115 49 103 49 q 135 49 122 49 q 163 51 147 50 q 162 63 163 57 q 161 75 161 69 q 178 219 161 135 q 224 397 196 304 q 285 572 253 489 q 347 714 318 656 q 236 696 288 704 q 153 683 185 688 q 117 679 121 678 q 101 715 101 688 q 117 771 101 743 q 157 799 133 799 q 186 785 175 799 q 222 771 197 771 q 229 772 225 771 q 239 774 233 772 q 299 781 254 778 q 403 786 344 785 q 447 805 424 800 q 493 810 471 810 q 534 805 517 810 q 557 792 551 800 q 601 792 581 792 q 639 793 621 793 q 692 792 671 793 q 717 789 713 792 q 732 779 728 785 q 736 769 736 774 q 724 752 736 758 q 708 751 711 746 q 679 758 708 758 q 617 754 656 758 q 529 743 578 750 q 437 587 483 675 q 350 403 390 499 q 280 218 310 308 q 238 54 250 128 q 348 58 290 57 q 453 60 406 60 q 522 58 496 60 q 540 50 547 56 q 484 17 513 26 q 411 7 456 8 q 289 3 367 6 q 260 2 275 3 q 232 0 246 1 q 232 -51 231 -26 q 218 -64 232 -64 z "},"Í":{"ha":561,"x_min":-4,"x_max":736,"o":"m 218 -64 q 197 -51 208 -64 q 175 -3 185 -37 q 78 -7 117 -7 q 56 -6 65 -7 q 43 -4 47 -6 q 26 1 38 -3 q 5 13 14 6 q -1 26 -4 19 q 26 57 10 43 q 90 71 42 71 q 117 69 110 71 q 125 65 125 68 q 114 57 125 61 q 103 50 103 53 q 115 49 103 49 q 135 49 122 49 q 163 51 147 50 q 162 63 163 57 q 161 75 161 69 q 178 219 161 135 q 224 397 196 304 q 285 572 253 489 q 347 714 318 656 q 236 696 288 704 q 153 683 185 688 q 117 679 121 678 q 101 715 101 688 q 117 771 101 743 q 157 799 133 799 q 186 785 175 799 q 222 771 197 771 q 229 772 225 771 q 239 774 233 772 q 299 781 254 778 q 403 786 344 785 q 447 805 424 800 q 493 810 471 810 q 534 805 517 810 q 557 792 551 800 q 601 792 581 792 q 639 793 621 793 q 692 792 671 793 q 717 789 713 792 q 732 779 728 785 q 736 769 736 774 q 724 752 736 758 q 708 751 711 746 q 679 758 708 758 q 617 754 656 758 q 529 743 578 750 q 437 587 483 675 q 350 403 390 499 q 280 218 310 308 q 238 54 250 128 q 348 58 290 57 q 453 60 406 60 q 522 58 496 60 q 540 50 547 56 q 484 17 513 26 q 411 7 456 8 q 289 3 367 6 q 260 2 275 3 q 232 0 246 1 q 232 -51 231 -26 q 218 -64 232 -64 m 438 899 q 413 914 413 899 q 474 960 439 933 q 543 1014 508 986 q 601 1063 578 1042 q 644 1094 625 1082 q 676 1106 663 1106 q 699 1089 690 1106 q 708 1053 708 1072 q 704 1032 708 1047 q 676 1004 700 1017 q 624 977 658 994 q 552 942 590 960 q 483 911 514 924 q 438 899 451 899 z "},"Ĭ":{"ha":561,"x_min":-4,"x_max":736,"o":"m 218 -64 q 197 -51 208 -64 q 175 -3 185 -37 q 78 -7 117 -7 q 56 -6 65 -7 q 43 -4 47 -6 q 26 1 38 -3 q 5 13 14 6 q -1 26 -4 19 q 26 57 10 43 q 90 71 42 71 q 117 69 110 71 q 125 65 125 68 q 114 57 125 61 q 103 50 103 53 q 115 49 103 49 q 135 49 122 49 q 163 51 147 50 q 162 63 163 57 q 161 75 161 69 q 178 219 161 135 q 224 397 196 304 q 285 572 253 489 q 347 714 318 656 q 236 696 288 704 q 153 683 185 688 q 117 679 121 678 q 101 715 101 688 q 117 771 101 743 q 157 799 133 799 q 186 785 175 799 q 222 771 197 771 q 229 772 225 771 q 239 774 233 772 q 299 781 254 778 q 403 786 344 785 q 447 805 424 800 q 493 810 471 810 q 534 805 517 810 q 557 792 551 800 q 601 792 581 792 q 639 793 621 793 q 692 792 671 793 q 717 789 713 792 q 732 779 728 785 q 736 769 736 774 q 724 752 736 758 q 708 751 711 746 q 679 758 708 758 q 617 754 656 758 q 529 743 578 750 q 437 587 483 675 q 350 403 390 499 q 280 218 310 308 q 238 54 250 128 q 348 58 290 57 q 453 60 406 60 q 522 58 496 60 q 540 50 547 56 q 484 17 513 26 q 411 7 456 8 q 289 3 367 6 q 260 2 275 3 q 232 0 246 1 q 232 -51 231 -26 q 218 -64 232 -64 m 510 911 q 438 926 474 911 q 376 971 401 940 q 346 1049 351 1001 q 351 1081 344 1068 q 367 1093 357 1093 q 376 1085 369 1093 q 386 1071 382 1078 q 447 1010 414 1025 q 517 994 479 994 q 592 1012 558 994 q 667 1065 626 1029 q 692 1090 682 1078 q 703 1103 701 1103 q 714 1079 714 1103 q 706 1042 714 1063 q 620 942 676 974 q 510 911 564 911 z "},"Ǐ":{"ha":561,"x_min":-4,"x_max":761,"o":"m 739 1129 q 754 1126 747 1129 q 760 1113 761 1122 q 700 1062 735 1092 q 632 1001 665 1032 q 574 946 599 969 q 542 918 556 929 q 517 901 528 907 q 511 899 514 900 q 506 899 508 899 q 497 901 503 899 q 449 946 478 913 q 403 1001 431 969 q 349 1062 376 1032 q 300 1113 321 1092 q 324 1129 301 1129 q 361 1116 336 1129 q 417 1083 386 1103 q 475 1045 447 1064 q 519 1015 503 1026 q 571 1045 539 1026 q 637 1083 603 1064 q 699 1116 671 1103 q 739 1129 726 1129 m 218 -64 q 197 -51 208 -64 q 175 -3 185 -37 q 78 -7 117 -7 q 56 -6 65 -7 q 43 -4 47 -6 q 26 1 38 -3 q 5 13 14 6 q -1 26 -4 19 q 26 57 10 43 q 90 71 42 71 q 117 69 110 71 q 125 65 125 68 q 114 57 125 61 q 103 50 103 53 q 115 49 103 49 q 135 49 122 49 q 163 51 147 50 q 162 63 163 57 q 161 75 161 69 q 178 219 161 135 q 224 397 196 304 q 285 572 253 489 q 347 714 318 656 q 236 696 288 704 q 153 683 185 688 q 117 679 121 678 q 101 715 101 688 q 117 771 101 743 q 157 799 133 799 q 186 785 175 799 q 222 771 197 771 q 229 772 225 771 q 239 774 233 772 q 299 781 254 778 q 403 786 344 785 q 447 805 424 800 q 493 810 471 810 q 534 805 517 810 q 557 792 551 800 q 601 792 581 792 q 639 793 621 793 q 692 792 671 793 q 717 789 713 792 q 732 779 728 785 q 736 769 736 774 q 724 752 736 758 q 708 751 711 746 q 679 758 708 758 q 617 754 656 758 q 529 743 578 750 q 437 587 483 675 q 350 403 390 499 q 280 218 310 308 q 238 54 250 128 q 348 58 290 57 q 453 60 406 60 q 522 58 496 60 q 540 50 547 56 q 484 17 513 26 q 411 7 456 8 q 289 3 367 6 q 260 2 275 3 q 232 0 246 1 q 232 -51 231 -26 q 218 -64 232 -64 z "},"Î":{"ha":561,"x_min":-4,"x_max":738,"o":"m 218 -64 q 197 -51 208 -64 q 175 -3 185 -37 q 78 -7 117 -7 q 56 -6 65 -7 q 43 -4 47 -6 q 26 1 38 -3 q 5 13 14 6 q -1 26 -4 19 q 26 57 10 43 q 90 71 42 71 q 117 69 110 71 q 125 65 125 68 q 114 57 125 61 q 103 50 103 53 q 115 49 103 49 q 135 49 122 49 q 163 51 147 50 q 162 63 163 57 q 161 75 161 69 q 178 219 161 135 q 224 397 196 304 q 285 572 253 489 q 347 714 318 656 q 236 696 288 704 q 153 683 185 688 q 117 679 121 678 q 101 715 101 688 q 117 771 101 743 q 157 799 133 799 q 186 785 175 799 q 222 771 197 771 q 229 772 225 771 q 239 774 233 772 q 299 781 254 778 q 403 786 344 785 q 447 805 424 800 q 493 810 471 810 q 534 805 517 810 q 557 792 551 800 q 601 792 581 792 q 639 793 621 793 q 692 792 671 793 q 717 789 713 792 q 732 779 728 785 q 736 769 736 774 q 724 752 736 758 q 708 751 711 746 q 679 758 708 758 q 617 754 656 758 q 529 743 578 750 q 437 587 483 675 q 350 403 390 499 q 280 218 310 308 q 238 54 250 128 q 348 58 290 57 q 453 60 406 60 q 522 58 496 60 q 540 50 547 56 q 484 17 513 26 q 411 7 456 8 q 289 3 367 6 q 260 2 275 3 q 232 0 246 1 q 232 -51 231 -26 q 218 -64 232 -64 m 299 881 q 283 884 290 881 q 278 897 276 888 q 338 948 304 918 q 406 1009 372 978 q 464 1064 440 1040 q 497 1092 483 1081 q 521 1108 511 1103 q 526 1110 524 1110 q 532 1111 529 1111 q 540 1108 535 1111 q 589 1064 560 1097 q 634 1009 607 1040 q 690 948 661 978 q 738 897 718 918 q 714 881 736 881 q 676 894 701 881 q 621 926 651 907 q 563 965 590 946 q 518 994 535 983 q 467 965 499 983 q 401 926 435 946 q 339 894 367 907 q 299 881 311 881 z "},"Ȉ":{"ha":561,"x_min":-4,"x_max":736,"o":"m 572 892 q 529 913 558 894 q 466 955 500 931 q 401 1002 432 979 q 354 1038 371 1025 q 332 1069 333 1054 q 332 1090 331 1085 q 347 1125 335 1110 q 372 1138 358 1140 q 401 1120 383 1135 q 439 1082 418 1106 q 488 1024 458 1057 q 547 958 517 990 q 599 903 576 926 q 572 892 596 888 m 397 876 q 354 897 383 879 q 291 940 325 915 q 226 987 257 964 q 179 1022 196 1010 q 157 1054 158 1039 q 157 1075 156 1069 q 172 1110 160 1094 q 197 1122 183 1125 q 226 1105 208 1119 q 264 1067 243 1090 q 313 1008 283 1042 q 372 943 342 975 q 424 888 401 911 q 397 876 421 872 m 218 -64 q 197 -51 208 -64 q 175 -3 185 -37 q 78 -7 117 -7 q 56 -6 65 -7 q 43 -4 47 -6 q 26 1 38 -3 q 5 13 14 6 q -1 26 -4 19 q 26 57 10 43 q 90 71 42 71 q 117 69 110 71 q 125 65 125 68 q 114 57 125 61 q 103 50 103 53 q 115 49 103 49 q 135 49 122 49 q 163 51 147 50 q 162 63 163 57 q 161 75 161 69 q 178 219 161 135 q 224 397 196 304 q 285 572 253 489 q 347 714 318 656 q 236 696 288 704 q 153 683 185 688 q 117 679 121 678 q 101 715 101 688 q 117 771 101 743 q 157 799 133 799 q 186 785 175 799 q 222 771 197 771 q 229 772 225 771 q 239 774 233 772 q 299 781 254 778 q 403 786 344 785 q 447 805 424 800 q 493 810 471 810 q 534 805 517 810 q 557 792 551 800 q 601 792 581 792 q 639 793 621 793 q 692 792 671 793 q 717 789 713 792 q 732 779 728 785 q 736 769 736 774 q 724 752 736 758 q 708 751 711 746 q 679 758 708 758 q 617 754 656 758 q 529 743 578 750 q 437 587 483 675 q 350 403 390 499 q 280 218 310 308 q 238 54 250 128 q 348 58 290 57 q 453 60 406 60 q 522 58 496 60 q 540 50 547 56 q 484 17 513 26 q 411 7 456 8 q 289 3 367 6 q 260 2 275 3 q 232 0 246 1 q 232 -51 231 -26 q 218 -64 232 -64 z "},"Ï":{"ha":561,"x_min":-4,"x_max":736,"o":"m 218 -64 q 197 -51 208 -64 q 175 -3 185 -37 q 78 -7 117 -7 q 56 -6 65 -7 q 43 -4 47 -6 q 26 1 38 -3 q 5 13 14 6 q -1 26 -4 19 q 26 57 10 43 q 90 71 42 71 q 117 69 110 71 q 125 65 125 68 q 114 57 125 61 q 103 50 103 53 q 115 49 103 49 q 135 49 122 49 q 163 51 147 50 q 162 63 163 57 q 161 75 161 69 q 178 219 161 135 q 224 397 196 304 q 285 572 253 489 q 347 714 318 656 q 236 696 288 704 q 153 683 185 688 q 117 679 121 678 q 101 715 101 688 q 117 771 101 743 q 157 799 133 799 q 186 785 175 799 q 222 771 197 771 q 229 772 225 771 q 239 774 233 772 q 299 781 254 778 q 403 786 344 785 q 447 805 424 800 q 493 810 471 810 q 534 805 517 810 q 557 792 551 800 q 601 792 581 792 q 639 793 621 793 q 692 792 671 793 q 717 789 713 792 q 732 779 728 785 q 736 769 736 774 q 724 752 736 758 q 708 751 711 746 q 679 758 708 758 q 617 754 656 758 q 529 743 578 750 q 437 587 483 675 q 350 403 390 499 q 280 218 310 308 q 238 54 250 128 q 348 58 290 57 q 453 60 406 60 q 522 58 496 60 q 540 50 547 56 q 484 17 513 26 q 411 7 456 8 q 289 3 367 6 q 260 2 275 3 q 232 0 246 1 q 232 -51 231 -26 q 218 -64 232 -64 m 378 892 q 356 908 369 892 q 335 941 343 924 q 335 961 328 958 q 417 988 389 988 q 450 972 440 988 q 469 933 460 957 q 453 915 474 925 q 409 899 433 906 q 378 892 385 892 m 601 892 q 580 908 593 892 q 559 941 567 924 q 558 961 551 958 q 640 988 613 988 q 674 972 664 988 q 693 933 683 957 q 677 915 697 925 q 633 899 657 906 q 601 892 608 892 z "},"İ":{"ha":561,"x_min":-4,"x_max":736,"o":"m 218 -64 q 197 -51 208 -64 q 175 -3 185 -37 q 78 -7 117 -7 q 56 -6 65 -7 q 43 -4 47 -6 q 26 1 38 -3 q 5 13 14 6 q -1 26 -4 19 q 26 57 10 43 q 90 71 42 71 q 117 69 110 71 q 125 65 125 68 q 114 57 125 61 q 103 50 103 53 q 115 49 103 49 q 135 49 122 49 q 163 51 147 50 q 162 63 163 57 q 161 75 161 69 q 178 219 161 135 q 224 397 196 304 q 285 572 253 489 q 347 714 318 656 q 236 696 288 704 q 153 683 185 688 q 117 679 121 678 q 101 715 101 688 q 117 771 101 743 q 157 799 133 799 q 186 785 175 799 q 222 771 197 771 q 229 772 225 771 q 239 774 233 772 q 299 781 254 778 q 403 786 344 785 q 447 805 424 800 q 493 810 471 810 q 534 805 517 810 q 557 792 551 800 q 601 792 581 792 q 639 793 621 793 q 692 792 671 793 q 717 789 713 792 q 732 779 728 785 q 736 769 736 774 q 724 752 736 758 q 708 751 711 746 q 679 758 708 758 q 617 754 656 758 q 529 743 578 750 q 437 587 483 675 q 350 403 390 499 q 280 218 310 308 q 238 54 250 128 q 348 58 290 57 q 453 60 406 60 q 522 58 496 60 q 540 50 547 56 q 484 17 513 26 q 411 7 456 8 q 289 3 367 6 q 260 2 275 3 q 232 0 246 1 q 232 -51 231 -26 q 218 -64 232 -64 m 485 894 q 463 910 476 894 q 442 944 450 926 q 442 964 435 961 q 524 990 496 990 q 557 975 547 990 q 576 936 567 960 q 560 918 581 928 q 516 901 540 908 q 485 894 492 894 z "},"Ị":{"ha":561,"x_min":-4,"x_max":736,"o":"m 218 -64 q 197 -51 208 -64 q 175 -3 185 -37 q 78 -7 117 -7 q 56 -6 65 -7 q 43 -4 47 -6 q 26 1 38 -3 q 5 13 14 6 q -1 26 -4 19 q 26 57 10 43 q 90 71 42 71 q 117 69 110 71 q 125 65 125 68 q 114 57 125 61 q 103 50 103 53 q 115 49 103 49 q 135 49 122 49 q 163 51 147 50 q 162 63 163 57 q 161 75 161 69 q 178 219 161 135 q 224 397 196 304 q 285 572 253 489 q 347 714 318 656 q 236 696 288 704 q 153 683 185 688 q 117 679 121 678 q 101 715 101 688 q 117 771 101 743 q 157 799 133 799 q 186 785 175 799 q 222 771 197 771 q 229 772 225 771 q 239 774 233 772 q 299 781 254 778 q 403 786 344 785 q 447 805 424 800 q 493 810 471 810 q 534 805 517 810 q 557 792 551 800 q 601 792 581 792 q 639 793 621 793 q 692 792 671 793 q 717 789 713 792 q 732 779 728 785 q 736 769 736 774 q 724 752 736 758 q 708 751 711 746 q 679 758 708 758 q 617 754 656 758 q 529 743 578 750 q 437 587 483 675 q 350 403 390 499 q 280 218 310 308 q 238 54 250 128 q 348 58 290 57 q 453 60 406 60 q 522 58 496 60 q 540 50 547 56 q 484 17 513 26 q 411 7 456 8 q 289 3 367 6 q 260 2 275 3 q 232 0 246 1 q 232 -51 231 -26 q 218 -64 232 -64 m 183 -203 q 162 -187 175 -203 q 141 -153 149 -171 q 140 -133 133 -136 q 222 -107 194 -107 q 256 -122 246 -107 q 275 -161 265 -137 q 259 -179 279 -169 q 215 -196 239 -189 q 183 -203 190 -203 z "},"Ì":{"ha":561,"x_min":-4,"x_max":736,"o":"m 218 -64 q 197 -51 208 -64 q 175 -3 185 -37 q 78 -7 117 -7 q 56 -6 65 -7 q 43 -4 47 -6 q 26 1 38 -3 q 5 13 14 6 q -1 26 -4 19 q 26 57 10 43 q 90 71 42 71 q 117 69 110 71 q 125 65 125 68 q 114 57 125 61 q 103 50 103 53 q 115 49 103 49 q 135 49 122 49 q 163 51 147 50 q 162 63 163 57 q 161 75 161 69 q 178 219 161 135 q 224 397 196 304 q 285 572 253 489 q 347 714 318 656 q 236 696 288 704 q 153 683 185 688 q 117 679 121 678 q 101 715 101 688 q 117 771 101 743 q 157 799 133 799 q 186 785 175 799 q 222 771 197 771 q 229 772 225 771 q 239 774 233 772 q 299 781 254 778 q 403 786 344 785 q 447 805 424 800 q 493 810 471 810 q 534 805 517 810 q 557 792 551 800 q 601 792 581 792 q 639 793 621 793 q 692 792 671 793 q 717 789 713 792 q 732 779 728 785 q 736 769 736 774 q 724 752 736 758 q 708 751 711 746 q 679 758 708 758 q 617 754 656 758 q 529 743 578 750 q 437 587 483 675 q 350 403 390 499 q 280 218 310 308 q 238 54 250 128 q 348 58 290 57 q 453 60 406 60 q 522 58 496 60 q 540 50 547 56 q 484 17 513 26 q 411 7 456 8 q 289 3 367 6 q 260 2 275 3 q 232 0 246 1 q 232 -51 231 -26 q 218 -64 232 -64 m 582 897 q 537 910 568 897 q 467 940 506 922 q 396 976 429 958 q 343 1003 363 993 q 315 1031 319 1015 q 311 1051 311 1046 q 320 1088 311 1071 q 343 1104 329 1104 q 374 1092 354 1104 q 418 1061 394 1081 q 477 1013 443 1040 q 547 958 511 985 q 607 913 582 932 q 582 897 607 897 z "},"Ỉ":{"ha":561,"x_min":-4,"x_max":736,"o":"m 218 -64 q 197 -51 208 -64 q 175 -3 185 -37 q 78 -7 117 -7 q 56 -6 65 -7 q 43 -4 47 -6 q 26 1 38 -3 q 5 13 14 6 q -1 26 -4 19 q 26 57 10 43 q 90 71 42 71 q 117 69 110 71 q 125 65 125 68 q 114 57 125 61 q 103 50 103 53 q 115 49 103 49 q 135 49 122 49 q 163 51 147 50 q 162 63 163 57 q 161 75 161 69 q 178 219 161 135 q 224 397 196 304 q 285 572 253 489 q 347 714 318 656 q 236 696 288 704 q 153 683 185 688 q 117 679 121 678 q 101 715 101 688 q 117 771 101 743 q 157 799 133 799 q 186 785 175 799 q 222 771 197 771 q 229 772 225 771 q 239 774 233 772 q 299 781 254 778 q 403 786 344 785 q 447 805 424 800 q 493 810 471 810 q 534 805 517 810 q 557 792 551 800 q 601 792 581 792 q 639 793 621 793 q 692 792 671 793 q 717 789 713 792 q 732 779 728 785 q 736 769 736 774 q 724 752 736 758 q 708 751 711 746 q 679 758 708 758 q 617 754 656 758 q 529 743 578 750 q 437 587 483 675 q 350 403 390 499 q 280 218 310 308 q 238 54 250 128 q 348 58 290 57 q 453 60 406 60 q 522 58 496 60 q 540 50 547 56 q 484 17 513 26 q 411 7 456 8 q 289 3 367 6 q 260 2 275 3 q 232 0 246 1 q 232 -51 231 -26 q 218 -64 232 -64 m 504 883 q 492 885 499 883 q 483 893 485 888 q 482 901 482 897 q 482 910 482 906 q 493 951 482 936 q 515 983 504 967 q 526 1026 526 999 q 510 1070 526 1057 q 471 1083 493 1083 q 410 1067 440 1083 q 397 1064 401 1064 q 393 1081 383 1064 q 431 1116 403 1099 q 500 1133 460 1133 q 592 1108 561 1133 q 624 1044 624 1082 q 593 968 624 1004 q 564 938 576 946 q 543 924 551 931 q 526 896 535 917 q 504 883 521 883 z "},"Ȋ":{"ha":561,"x_min":-4,"x_max":736,"o":"m 526 1032 q 593 1019 560 1032 q 650 977 626 1006 q 678 906 674 949 q 673 875 679 886 q 658 864 667 864 q 650 871 656 864 q 640 885 644 878 q 585 941 615 926 q 519 956 554 956 q 449 940 481 956 q 381 889 418 924 q 358 866 367 878 q 347 854 349 854 q 336 876 336 854 q 344 911 336 892 q 423 1003 371 974 q 526 1032 475 1032 m 218 -64 q 197 -51 208 -64 q 175 -3 185 -37 q 78 -7 117 -7 q 56 -6 65 -7 q 43 -4 47 -6 q 26 1 38 -3 q 5 13 14 6 q -1 26 -4 19 q 26 57 10 43 q 90 71 42 71 q 117 69 110 71 q 125 65 125 68 q 114 57 125 61 q 103 50 103 53 q 115 49 103 49 q 135 49 122 49 q 163 51 147 50 q 162 63 163 57 q 161 75 161 69 q 178 219 161 135 q 224 397 196 304 q 285 572 253 489 q 347 714 318 656 q 236 696 288 704 q 153 683 185 688 q 117 679 121 678 q 101 715 101 688 q 117 771 101 743 q 157 799 133 799 q 186 785 175 799 q 222 771 197 771 q 229 772 225 771 q 239 774 233 772 q 299 781 254 778 q 403 786 344 785 q 447 805 424 800 q 493 810 471 810 q 534 805 517 810 q 557 792 551 800 q 601 792 581 792 q 639 793 621 793 q 692 792 671 793 q 717 789 713 792 q 732 779 728 785 q 736 769 736 774 q 724 752 736 758 q 708 751 711 746 q 679 758 708 758 q 617 754 656 758 q 529 743 578 750 q 437 587 483 675 q 350 403 390 499 q 280 218 310 308 q 238 54 250 128 q 348 58 290 57 q 453 60 406 60 q 522 58 496 60 q 540 50 547 56 q 484 17 513 26 q 411 7 456 8 q 289 3 367 6 q 260 2 275 3 q 232 0 246 1 q 232 -51 231 -26 q 218 -64 232 -64 z "},"Ī":{"ha":561,"x_min":-4,"x_max":736,"o":"m 218 -64 q 197 -51 208 -64 q 175 -3 185 -37 q 78 -7 117 -7 q 56 -6 65 -7 q 43 -4 47 -6 q 26 1 38 -3 q 5 13 14 6 q -1 26 -4 19 q 26 57 10 43 q 90 71 42 71 q 117 69 110 71 q 125 65 125 68 q 114 57 125 61 q 103 50 103 53 q 115 49 103 49 q 135 49 122 49 q 163 51 147 50 q 162 63 163 57 q 161 75 161 69 q 178 219 161 135 q 224 397 196 304 q 285 572 253 489 q 347 714 318 656 q 236 696 288 704 q 153 683 185 688 q 117 679 121 678 q 101 715 101 688 q 117 771 101 743 q 157 799 133 799 q 186 785 175 799 q 222 771 197 771 q 229 772 225 771 q 239 774 233 772 q 299 781 254 778 q 403 786 344 785 q 447 805 424 800 q 493 810 471 810 q 534 805 517 810 q 557 792 551 800 q 601 792 581 792 q 639 793 621 793 q 692 792 671 793 q 717 789 713 792 q 732 779 728 785 q 736 769 736 774 q 724 752 736 758 q 708 751 711 746 q 679 758 708 758 q 617 754 656 758 q 529 743 578 750 q 437 587 483 675 q 350 403 390 499 q 280 218 310 308 q 238 54 250 128 q 348 58 290 57 q 453 60 406 60 q 522 58 496 60 q 540 50 547 56 q 484 17 513 26 q 411 7 456 8 q 289 3 367 6 q 260 2 275 3 q 232 0 246 1 q 232 -51 231 -26 q 218 -64 232 -64 m 443 929 q 347 935 390 929 q 304 972 304 942 q 319 996 304 985 q 371 1007 333 1007 l 653 1007 q 693 1003 678 1007 q 708 985 708 1000 q 696 963 708 975 q 661 947 683 951 q 555 934 618 939 q 443 929 492 929 z "},"Į":{"ha":561,"x_min":-4,"x_max":736,"o":"m 218 -64 q 197 -51 208 -64 q 175 -3 185 -37 q 78 -7 117 -7 q 56 -6 65 -7 q 43 -4 47 -6 q 26 1 38 -3 q 5 13 14 6 q -1 26 -4 19 q 26 57 10 43 q 90 71 42 71 q 117 69 110 71 q 125 65 125 68 q 114 57 125 61 q 103 50 103 53 q 115 49 103 49 q 135 49 122 49 q 163 51 147 50 q 162 63 163 57 q 161 75 161 69 q 178 219 161 135 q 224 397 196 304 q 285 572 253 489 q 347 714 318 656 q 236 696 288 704 q 153 683 185 688 q 117 679 121 678 q 101 715 101 688 q 117 771 101 743 q 157 799 133 799 q 186 785 175 799 q 222 771 197 771 q 229 772 225 771 q 239 774 233 772 q 299 781 254 778 q 403 786 344 785 q 447 805 424 800 q 493 810 471 810 q 534 805 517 810 q 557 792 551 800 q 601 792 581 792 q 639 793 621 793 q 692 792 671 793 q 717 789 713 792 q 732 779 728 785 q 736 769 736 774 q 724 752 736 758 q 708 751 711 746 q 679 758 708 758 q 617 754 656 758 q 529 743 578 750 q 437 587 483 675 q 350 403 390 499 q 280 218 310 308 q 238 54 250 128 q 348 58 290 57 q 453 60 406 60 q 522 58 496 60 q 540 50 547 56 q 484 17 513 26 q 411 7 456 8 q 289 3 367 6 q 260 2 275 3 q 232 0 246 1 q 232 -51 231 -26 q 218 -64 232 -64 m 200 -276 q 120 -255 151 -276 q 89 -179 89 -233 q 101 -117 89 -150 q 133 -54 114 -83 q 174 -6 151 -25 q 214 14 196 14 q 222 7 217 13 q 228 -3 228 1 q 211 -23 228 -7 q 177 -67 194 -39 q 160 -137 160 -94 q 177 -190 160 -172 q 233 -208 194 -208 q 288 -195 263 -208 q 330 -169 313 -182 q 353 -156 347 -156 q 369 -169 369 -156 q 342 -210 369 -185 q 275 -256 314 -236 q 200 -276 236 -276 z "},"Ĩ":{"ha":561,"x_min":-4,"x_max":736,"o":"m 218 -64 q 197 -51 208 -64 q 175 -3 185 -37 q 78 -7 117 -7 q 56 -6 65 -7 q 43 -4 47 -6 q 26 1 38 -3 q 5 13 14 6 q -1 26 -4 19 q 26 57 10 43 q 90 71 42 71 q 117 69 110 71 q 125 65 125 68 q 114 57 125 61 q 103 50 103 53 q 115 49 103 49 q 135 49 122 49 q 163 51 147 50 q 162 63 163 57 q 161 75 161 69 q 178 219 161 135 q 224 397 196 304 q 285 572 253 489 q 347 714 318 656 q 236 696 288 704 q 153 683 185 688 q 117 679 121 678 q 101 715 101 688 q 117 771 101 743 q 157 799 133 799 q 186 785 175 799 q 222 771 197 771 q 229 772 225 771 q 239 774 233 772 q 299 781 254 778 q 403 786 344 785 q 447 805 424 800 q 493 810 471 810 q 534 805 517 810 q 557 792 551 800 q 601 792 581 792 q 639 793 621 793 q 692 792 671 793 q 717 789 713 792 q 732 779 728 785 q 736 769 736 774 q 724 752 736 758 q 708 751 711 746 q 679 758 708 758 q 617 754 656 758 q 529 743 578 750 q 437 587 483 675 q 350 403 390 499 q 280 218 310 308 q 238 54 250 128 q 348 58 290 57 q 453 60 406 60 q 522 58 496 60 q 540 50 547 56 q 484 17 513 26 q 411 7 456 8 q 289 3 367 6 q 260 2 275 3 q 232 0 246 1 q 232 -51 231 -26 q 218 -64 232 -64 m 324 889 q 308 900 314 889 q 303 929 303 911 q 336 1007 303 978 q 421 1036 369 1036 q 491 1020 460 1036 q 549 989 522 1004 q 604 974 576 974 q 635 981 619 974 q 668 1004 650 988 q 688 1023 675 1007 q 703 1039 700 1039 q 713 1033 707 1039 q 719 1013 719 1026 q 715 990 719 1003 q 699 961 710 978 q 640 906 671 922 q 564 893 608 889 q 512 911 535 896 q 468 941 489 926 q 422 956 447 956 q 378 934 396 956 q 343 897 361 913 q 324 889 333 889 z "},"J":{"ha":808,"x_min":29,"x_max":940,"o":"m 235 -161 q 145 -140 186 -161 q 75 -85 104 -119 q 35 -12 46 -51 q 31 5 33 -4 q 29 24 29 14 q 52 104 29 67 q 106 160 75 142 q 133 171 125 171 q 144 154 144 171 q 133 97 144 135 q 122 28 122 60 q 156 -60 122 -22 q 232 -97 190 -97 q 275 -85 254 -97 q 363 -1 325 -51 q 432 134 400 50 q 497 349 464 218 q 524 467 514 413 q 542 578 533 522 q 564 696 551 633 q 447 676 501 686 q 359 662 393 667 q 321 658 325 657 q 306 694 306 667 q 322 750 306 722 q 361 778 338 778 q 392 765 381 778 q 426 751 403 751 q 435 752 431 751 q 444 754 439 753 q 504 761 460 758 q 606 765 549 764 q 650 786 626 781 q 696 792 674 792 q 758 771 747 792 q 803 772 782 771 q 842 772 824 772 q 895 772 874 772 q 921 768 917 771 q 936 758 932 764 q 940 749 940 753 q 928 731 940 738 q 913 729 915 724 q 882 736 913 736 q 825 733 860 736 q 747 724 790 729 q 694 557 725 654 q 607 325 663 460 q 540 163 572 242 q 472 19 507 85 q 393 -90 436 -46 q 296 -151 350 -135 q 235 -161 267 -161 z "},"Ĵ":{"ha":808,"x_min":29,"x_max":940,"o":"m 235 -161 q 145 -140 186 -161 q 75 -85 104 -119 q 35 -12 46 -51 q 31 5 33 -4 q 29 24 29 14 q 52 104 29 67 q 106 160 75 142 q 133 171 125 171 q 144 154 144 171 q 133 97 144 135 q 122 28 122 60 q 156 -60 122 -22 q 232 -97 190 -97 q 275 -85 254 -97 q 363 -1 325 -51 q 432 134 400 50 q 497 349 464 218 q 524 467 514 413 q 542 578 533 522 q 564 696 551 633 q 447 676 501 686 q 359 662 393 667 q 321 658 325 657 q 306 694 306 667 q 322 750 306 722 q 361 778 338 778 q 392 765 381 778 q 426 751 403 751 q 435 752 431 751 q 444 754 439 753 q 504 761 460 758 q 606 765 549 764 q 650 786 626 781 q 696 792 674 792 q 758 771 747 792 q 803 772 782 771 q 842 772 824 772 q 895 772 874 772 q 921 768 917 771 q 936 758 932 764 q 940 749 940 753 q 928 731 940 738 q 913 729 915 724 q 882 736 913 736 q 825 733 860 736 q 747 724 790 729 q 694 557 725 654 q 607 325 663 460 q 540 163 572 242 q 472 19 507 85 q 393 -90 436 -46 q 296 -151 350 -135 q 235 -161 267 -161 m 856 857 q 810 876 840 857 q 747 920 779 896 q 692 960 714 944 q 632 921 665 944 q 568 878 599 897 q 521 860 538 860 q 506 863 513 860 q 500 876 499 867 q 570 940 539 908 q 638 1007 601 972 q 671 1035 657 1024 q 694 1051 685 1046 q 700 1053 697 1053 q 706 1054 703 1054 q 714 1051 708 1054 q 763 1007 733 1040 q 819 939 790 972 q 879 874 849 906 q 856 857 878 857 z "},"K":{"ha":896,"x_min":64,"x_max":1094,"o":"m 829 -67 q 715 -28 778 -60 q 588 47 651 4 q 468 133 524 90 q 376 206 413 175 q 335 242 340 236 q 294 290 313 265 q 276 338 276 314 q 285 367 276 353 q 331 417 292 378 q 433 509 371 456 q 571 619 496 563 q 724 726 646 676 q 873 808 801 776 q 997 839 944 839 q 1047 815 1025 839 q 1081 760 1068 792 q 1094 706 1094 729 q 1075 676 1094 676 q 831 633 944 676 q 608 512 717 589 q 378 335 499 435 q 485 221 406 294 q 699 58 564 147 q 815 -23 781 6 q 849 -61 849 -51 q 829 -67 849 -69 m 157 -19 q 151 -26 161 -25 q 121 -6 140 -26 q 76 67 101 14 q 67 101 69 82 q 64 143 64 121 q 80 278 64 203 q 116 431 96 354 q 152 569 136 507 q 168 665 168 632 q 163 690 168 685 q 150 721 150 707 q 174 750 150 740 q 231 760 199 760 q 283 753 257 760 q 328 735 310 747 q 338 707 338 726 q 317 621 338 676 q 267 495 297 565 q 207 349 238 425 q 156 201 176 274 q 136 69 136 129 q 157 -19 136 17 z "},"Ķ":{"ha":896,"x_min":64,"x_max":1094,"o":"m 829 -67 q 715 -28 778 -60 q 588 47 651 4 q 468 133 524 90 q 376 206 413 175 q 335 242 340 236 q 294 290 313 265 q 276 338 276 314 q 285 367 276 353 q 331 417 292 378 q 433 509 371 456 q 571 619 496 563 q 724 726 646 676 q 873 808 801 776 q 997 839 944 839 q 1047 815 1025 839 q 1081 760 1068 792 q 1094 706 1094 729 q 1075 676 1094 676 q 831 633 944 676 q 608 512 717 589 q 378 335 499 435 q 485 221 406 294 q 699 58 564 147 q 815 -23 781 6 q 849 -61 849 -51 q 829 -67 849 -69 m 157 -19 q 151 -26 161 -25 q 121 -6 140 -26 q 76 67 101 14 q 67 101 69 82 q 64 143 64 121 q 80 278 64 203 q 116 431 96 354 q 152 569 136 507 q 168 665 168 632 q 163 690 168 685 q 150 721 150 707 q 174 750 150 740 q 231 760 199 760 q 283 753 257 760 q 328 735 310 747 q 338 707 338 726 q 317 621 338 676 q 267 495 297 565 q 207 349 238 425 q 156 201 176 274 q 136 69 136 129 q 157 -19 136 17 m 300 -296 q 300 -283 290 -296 q 328 -249 310 -269 q 361 -203 346 -228 q 376 -156 376 -179 q 358 -117 376 -135 q 346 -100 346 -106 q 355 -90 346 -93 q 376 -86 364 -86 q 433 -97 404 -86 q 461 -143 461 -107 q 449 -181 461 -156 q 417 -231 438 -206 q 369 -276 396 -257 q 310 -294 342 -294 l 300 -296 z "},"L":{"ha":808,"x_min":35,"x_max":849,"o":"m 103 -108 q 55 -87 75 -108 q 35 -39 35 -65 q 36 -26 35 -31 q 88 50 50 26 q 175 82 125 74 q 168 142 168 110 q 184 278 168 201 q 220 431 200 354 q 256 569 240 507 q 272 665 272 632 q 267 690 272 685 q 254 721 254 707 q 278 750 254 740 q 335 760 303 760 q 387 753 361 760 q 431 735 413 747 q 442 707 442 726 q 423 624 442 676 q 375 503 404 571 q 317 364 346 436 q 266 221 288 292 q 240 90 244 150 q 259 92 250 92 q 278 92 268 92 q 494 77 406 96 q 641 31 582 58 q 740 -19 700 3 q 813 -44 781 -42 q 849 -58 849 -51 q 839 -67 849 -62 q 778 -83 808 -83 q 684 -60 736 -83 q 546 -12 632 -37 q 456 9 507 -1 q 350 19 406 19 q 300 17 325 19 q 250 8 275 14 q 263 -18 254 -8 q 254 -25 267 -25 q 218 1 242 -25 q 143 -31 183 -8 q 124 -56 124 -42 q 128 -75 124 -65 q 133 -93 133 -85 q 121 -106 133 -101 q 103 -108 110 -108 z "},"Ǉ":{"ha":1617,"x_min":35,"x_max":1749,"o":"m 103 -108 q 55 -87 75 -108 q 35 -39 35 -65 q 36 -26 35 -31 q 88 50 50 26 q 175 82 125 74 q 168 142 168 110 q 184 278 168 201 q 220 431 200 354 q 256 569 240 507 q 272 665 272 632 q 267 690 272 685 q 254 721 254 707 q 278 750 254 740 q 335 760 303 760 q 387 753 361 760 q 431 735 413 747 q 442 707 442 726 q 423 624 442 676 q 375 503 404 571 q 317 364 346 436 q 266 221 288 292 q 240 90 244 150 q 259 92 250 92 q 278 92 268 92 q 494 77 406 96 q 641 31 582 58 q 740 -19 700 3 q 813 -44 781 -42 q 849 -58 849 -51 q 839 -67 849 -62 q 778 -83 808 -83 q 684 -60 736 -83 q 546 -12 632 -37 q 456 9 507 -1 q 350 19 406 19 q 300 17 325 19 q 250 8 275 14 q 263 -18 254 -8 q 254 -25 267 -25 q 218 1 242 -25 q 143 -31 183 -8 q 124 -56 124 -42 q 128 -75 124 -65 q 133 -93 133 -85 q 121 -106 133 -101 q 103 -108 110 -108 m 1043 -161 q 953 -140 994 -161 q 883 -85 913 -119 q 843 -12 854 -51 q 840 5 842 -4 q 838 24 838 14 q 860 104 838 67 q 914 160 883 142 q 942 171 933 171 q 953 154 953 171 q 942 97 953 135 q 931 28 931 60 q 965 -60 931 -22 q 1040 -97 999 -97 q 1083 -85 1063 -97 q 1171 -1 1133 -51 q 1240 134 1208 50 q 1306 349 1272 218 q 1332 467 1322 413 q 1351 578 1342 522 q 1372 696 1360 633 q 1256 676 1310 686 q 1167 662 1201 667 q 1129 658 1133 657 q 1114 694 1114 667 q 1130 750 1114 722 q 1169 778 1146 778 q 1200 765 1189 778 q 1235 751 1211 751 q 1243 752 1239 751 q 1253 754 1247 753 q 1313 761 1268 758 q 1414 765 1357 764 q 1458 786 1435 781 q 1504 792 1482 792 q 1567 771 1556 792 q 1611 772 1590 771 q 1650 772 1632 772 q 1703 772 1682 772 q 1729 768 1725 771 q 1744 758 1740 764 q 1749 749 1749 753 q 1736 731 1749 738 q 1721 729 1724 724 q 1690 736 1721 736 q 1633 733 1668 736 q 1556 724 1599 729 q 1502 557 1533 654 q 1415 325 1471 460 q 1348 163 1381 242 q 1280 19 1315 85 q 1201 -90 1244 -46 q 1104 -151 1158 -135 q 1043 -161 1075 -161 z "},"Ĺ":{"ha":808,"x_min":35,"x_max":849,"o":"m 103 -108 q 55 -87 75 -108 q 35 -39 35 -65 q 36 -26 35 -31 q 88 50 50 26 q 175 82 125 74 q 168 142 168 110 q 184 278 168 201 q 220 431 200 354 q 256 569 240 507 q 272 665 272 632 q 267 690 272 685 q 254 721 254 707 q 278 750 254 740 q 335 760 303 760 q 387 753 361 760 q 431 735 413 747 q 442 707 442 726 q 423 624 442 676 q 375 503 404 571 q 317 364 346 436 q 266 221 288 292 q 240 90 244 150 q 259 92 250 92 q 278 92 268 92 q 494 77 406 96 q 641 31 582 58 q 740 -19 700 3 q 813 -44 781 -42 q 849 -58 849 -51 q 839 -67 849 -62 q 778 -83 808 -83 q 684 -60 736 -83 q 546 -12 632 -37 q 456 9 507 -1 q 350 19 406 19 q 300 17 325 19 q 250 8 275 14 q 263 -18 254 -8 q 254 -25 267 -25 q 218 1 242 -25 q 143 -31 183 -8 q 124 -56 124 -42 q 128 -75 124 -65 q 133 -93 133 -85 q 121 -106 133 -101 q 103 -108 110 -108 m 300 853 q 275 868 275 853 q 336 914 301 888 q 406 968 371 940 q 464 1017 440 996 q 506 1048 488 1036 q 539 1060 525 1060 q 562 1043 553 1060 q 571 1007 571 1026 q 567 986 571 1001 q 539 958 563 971 q 487 931 521 949 q 415 896 453 914 q 345 865 376 878 q 300 853 314 853 z "},"Ľ":{"ha":808,"x_min":35,"x_max":849,"o":"m 103 -108 q 55 -87 75 -108 q 35 -39 35 -65 q 36 -26 35 -31 q 88 50 50 26 q 175 82 125 74 q 168 142 168 110 q 184 278 168 201 q 220 431 200 354 q 256 569 240 507 q 272 665 272 632 q 267 690 272 685 q 254 721 254 707 q 278 750 254 740 q 335 760 303 760 q 387 753 361 760 q 431 735 413 747 q 442 707 442 726 q 423 624 442 676 q 375 503 404 571 q 317 364 346 436 q 266 221 288 292 q 240 90 244 150 q 259 92 250 92 q 278 92 268 92 q 494 77 406 96 q 641 31 582 58 q 740 -19 700 3 q 813 -44 781 -42 q 849 -58 849 -51 q 839 -67 849 -62 q 778 -83 808 -83 q 684 -60 736 -83 q 546 -12 632 -37 q 456 9 507 -1 q 350 19 406 19 q 300 17 325 19 q 250 8 275 14 q 263 -18 254 -8 q 254 -25 267 -25 q 218 1 242 -25 q 143 -31 183 -8 q 124 -56 124 -42 q 128 -75 124 -65 q 133 -93 133 -85 q 121 -106 133 -101 q 103 -108 110 -108 m 546 469 q 549 495 536 469 q 582 560 561 521 q 621 638 603 599 q 639 704 639 678 q 615 736 639 725 q 599 753 599 746 q 613 763 599 760 q 646 767 626 767 q 704 756 679 767 q 729 725 729 746 q 719 687 729 715 q 690 622 708 658 q 647 550 671 585 q 598 492 624 515 q 546 469 572 469 z "},"Ļ":{"ha":808,"x_min":35,"x_max":849,"o":"m 103 -108 q 55 -87 75 -108 q 35 -39 35 -65 q 36 -26 35 -31 q 88 50 50 26 q 175 82 125 74 q 168 142 168 110 q 184 278 168 201 q 220 431 200 354 q 256 569 240 507 q 272 665 272 632 q 267 690 272 685 q 254 721 254 707 q 278 750 254 740 q 335 760 303 760 q 387 753 361 760 q 431 735 413 747 q 442 707 442 726 q 423 624 442 676 q 375 503 404 571 q 317 364 346 436 q 266 221 288 292 q 240 90 244 150 q 259 92 250 92 q 278 92 268 92 q 494 77 406 96 q 641 31 582 58 q 740 -19 700 3 q 813 -44 781 -42 q 849 -58 849 -51 q 839 -67 849 -62 q 778 -83 808 -83 q 684 -60 736 -83 q 546 -12 632 -37 q 456 9 507 -1 q 350 19 406 19 q 300 17 325 19 q 250 8 275 14 q 263 -18 254 -8 q 254 -25 267 -25 q 218 1 242 -25 q 143 -31 183 -8 q 124 -56 124 -42 q 128 -75 124 -65 q 133 -93 133 -85 q 121 -106 133 -101 q 103 -108 110 -108 m 326 -328 q 326 -315 317 -328 q 354 -281 336 -301 q 388 -235 372 -260 q 403 -187 403 -211 q 385 -149 403 -167 q 372 -132 372 -137 q 381 -122 372 -125 q 403 -118 390 -118 q 459 -128 431 -118 q 488 -175 488 -139 q 476 -212 488 -187 q 443 -263 464 -237 q 395 -308 422 -289 q 336 -326 368 -326 l 326 -328 z "},"Ŀ":{"ha":808,"x_min":35,"x_max":849,"o":"m 103 -108 q 55 -87 75 -108 q 35 -39 35 -65 q 36 -26 35 -31 q 88 50 50 26 q 175 82 125 74 q 168 142 168 110 q 184 278 168 201 q 220 431 200 354 q 256 569 240 507 q 272 665 272 632 q 267 690 272 685 q 254 721 254 707 q 278 750 254 740 q 335 760 303 760 q 387 753 361 760 q 431 735 413 747 q 442 707 442 726 q 423 624 442 676 q 375 503 404 571 q 317 364 346 436 q 266 221 288 292 q 240 90 244 150 q 259 92 250 92 q 278 92 268 92 q 494 77 406 96 q 641 31 582 58 q 740 -19 700 3 q 813 -44 781 -42 q 849 -58 849 -51 q 839 -67 849 -62 q 778 -83 808 -83 q 684 -60 736 -83 q 546 -12 632 -37 q 456 9 507 -1 q 350 19 406 19 q 300 17 325 19 q 250 8 275 14 q 263 -18 254 -8 q 254 -25 267 -25 q 218 1 242 -25 q 143 -31 183 -8 q 124 -56 124 -42 q 128 -75 124 -65 q 133 -93 133 -85 q 121 -106 133 -101 q 103 -108 110 -108 m 526 315 q 497 329 515 315 q 469 358 479 343 q 469 374 460 372 q 533 391 507 386 q 578 396 560 396 q 622 383 608 396 q 647 350 636 369 q 636 339 651 344 q 598 328 621 333 q 554 319 575 322 q 526 315 533 315 z "},"ǈ":{"ha":1197,"x_min":35,"x_max":1147,"o":"m 103 -108 q 55 -87 75 -108 q 35 -39 35 -65 q 36 -26 35 -31 q 88 50 50 26 q 175 82 125 74 q 168 142 168 110 q 184 278 168 201 q 220 431 200 354 q 256 569 240 507 q 272 665 272 632 q 267 690 272 685 q 254 721 254 707 q 278 750 254 740 q 335 760 303 760 q 387 753 361 760 q 431 735 413 747 q 442 707 442 726 q 423 624 442 676 q 375 503 404 571 q 317 364 346 436 q 266 221 288 292 q 240 90 244 150 q 259 92 250 92 q 278 92 268 92 q 494 77 406 96 q 641 31 582 58 q 740 -19 700 3 q 813 -44 781 -42 q 849 -58 849 -51 q 839 -67 849 -62 q 778 -83 808 -83 q 684 -60 736 -83 q 546 -12 632 -37 q 456 9 507 -1 q 350 19 406 19 q 300 17 325 19 q 250 8 275 14 q 263 -18 254 -8 q 254 -25 267 -25 q 218 1 242 -25 q 143 -31 183 -8 q 124 -56 124 -42 q 128 -75 124 -65 q 133 -93 133 -85 q 121 -106 133 -101 q 103 -108 110 -108 m 1022 497 q 995 508 1004 497 q 979 525 986 518 q 967 542 975 532 q 960 560 960 551 q 968 569 960 568 q 1079 592 1044 592 q 1122 578 1111 592 q 1143 546 1133 565 q 1121 531 1147 535 q 1075 524 1094 526 q 1049 508 1061 518 q 1022 497 1038 497 m 676 -300 q 575 -279 619 -300 q 506 -227 531 -258 q 482 -165 482 -196 q 522 -101 482 -125 q 535 -116 529 -97 q 556 -160 542 -135 q 599 -206 569 -186 q 681 -226 628 -226 q 799 -197 746 -226 q 883 -108 853 -168 q 919 13 911 -56 q 928 153 928 82 l 928 236 q 945 346 925 317 q 993 375 965 375 q 1037 363 1015 375 q 1073 335 1058 350 q 1086 308 1088 319 q 1055 121 1085 219 q 979 -62 1025 22 q 899 -186 942 -132 q 802 -270 856 -240 q 676 -300 749 -300 z "},"Ł":{"ha":808,"x_min":31,"x_max":849,"o":"m 219 190 q 140 169 178 175 q 67 169 101 163 q 33 194 40 174 q 36 212 31 203 q 63 228 42 221 q 103 239 81 235 q 173 253 143 244 q 240 275 203 261 q 303 299 268 285 q 389 331 339 313 q 477 358 451 353 q 504 360 503 364 q 492 342 507 354 q 456 318 476 331 q 394 278 432 301 q 312 231 357 256 q 219 190 267 207 m 103 -108 q 55 -87 75 -108 q 35 -39 35 -65 q 36 -26 35 -31 q 88 50 50 26 q 175 82 125 74 q 168 142 168 110 q 184 278 168 201 q 220 431 200 354 q 256 569 240 507 q 272 665 272 632 q 267 690 272 685 q 254 721 254 707 q 278 750 254 740 q 335 760 303 760 q 387 753 361 760 q 431 735 413 747 q 442 707 442 726 q 423 624 442 676 q 375 503 404 571 q 317 364 346 436 q 266 221 288 292 q 240 90 244 150 q 259 92 250 92 q 278 92 268 92 q 494 77 406 96 q 641 31 582 58 q 740 -19 700 3 q 813 -44 781 -42 q 849 -58 849 -51 q 839 -67 849 -62 q 778 -83 808 -83 q 684 -60 736 -83 q 546 -12 632 -37 q 456 9 507 -1 q 350 19 406 19 q 300 17 325 19 q 250 8 275 14 q 263 -18 254 -8 q 254 -25 267 -25 q 218 1 242 -25 q 143 -31 183 -8 q 124 -56 124 -42 q 128 -75 124 -65 q 133 -93 133 -85 q 121 -106 133 -101 q 103 -108 110 -108 z "},"M":{"ha":1358,"x_min":-15,"x_max":1249,"o":"m 8 -81 q -6 -69 3 -82 q -15 -33 -15 -56 q -15 -20 -15 -26 q -12 -8 -14 -14 q 7 48 -11 -1 q 53 172 25 97 q 110 333 81 246 q 167 506 140 421 q 211 661 194 592 q 228 768 228 731 q 226 788 228 782 q 224 800 225 794 q 224 810 224 806 q 233 838 224 829 q 256 846 242 846 q 312 824 281 846 q 365 764 343 801 q 382 681 388 726 q 367 623 379 657 q 339 553 354 589 q 310 488 324 517 q 293 447 297 460 q 299 444 289 433 q 352 495 317 464 q 432 558 388 526 q 522 615 476 590 q 607 649 568 640 q 619 651 614 650 q 629 651 624 651 q 714 588 686 651 q 742 424 742 525 q 738 345 742 386 q 726 260 733 304 q 719 194 722 233 q 715 124 715 156 q 719 80 715 96 q 731 74 722 64 q 812 173 771 117 q 892 287 853 229 q 972 395 932 344 q 1052 480 1013 446 q 1132 522 1092 514 q 1140 524 1136 524 q 1149 524 1144 524 q 1197 497 1181 524 q 1218 427 1213 471 q 1224 329 1224 383 q 1222 231 1224 282 q 1219 135 1219 181 q 1223 56 1219 92 q 1236 -3 1226 21 q 1249 -47 1249 -32 q 1240 -58 1249 -58 q 1197 -29 1226 -58 q 1143 75 1156 11 q 1131 204 1131 139 q 1134 302 1131 256 q 1138 381 1138 349 q 1133 420 1138 406 q 1118 432 1129 435 q 1051 394 1086 426 q 980 313 1017 361 q 903 210 943 264 q 824 110 864 157 q 742 32 783 63 q 658 0 700 1 q 583 26 603 -1 q 564 96 564 53 q 576 191 564 140 q 596 286 588 242 q 608 370 604 332 q 611 439 611 408 q 593 550 611 517 q 556 576 575 583 q 457 521 514 564 q 336 409 400 478 q 212 251 272 340 q 106 57 151 161 q 54 -40 79 -1 q 8 -81 29 -78 z "},"N":{"ha":956,"x_min":82,"x_max":985,"o":"m 131 -40 q 116 -35 131 -57 q 88 44 101 -14 q 83 72 85 57 q 82 101 82 86 q 97 242 82 163 q 135 409 113 322 q 181 578 158 496 q 218 724 203 660 q 233 822 233 789 q 231 844 233 839 q 228 854 228 850 q 250 868 228 868 q 308 851 274 868 q 368 800 343 833 q 388 721 393 767 q 387 713 388 717 q 385 703 386 708 q 463 594 428 657 q 535 463 497 532 q 624 326 574 394 q 640 302 624 324 q 681 249 656 281 q 734 185 706 218 q 785 124 763 151 l 785 138 q 797 218 788 160 q 819 355 806 276 q 847 517 832 433 q 878 674 863 600 q 907 797 893 749 q 921 800 907 797 q 949 803 935 803 q 974 799 964 803 q 985 781 985 794 q 983 769 985 774 q 963 689 976 746 q 931 554 949 632 q 892 392 913 476 q 853 226 872 307 q 817 83 833 146 l 825 76 q 857 42 849 57 q 865 21 865 28 q 851 11 865 11 q 801 25 833 11 q 786 -21 793 -4 q 781 -37 779 -37 q 775 -39 779 -39 q 765 -17 765 -39 q 768 10 765 -6 q 772 43 771 25 q 633 158 697 92 q 507 301 568 224 q 434 394 464 357 q 378 460 404 431 q 324 525 353 490 q 260 382 294 457 q 195 235 226 307 q 144 103 164 164 q 125 3 125 43 q 126 -10 125 -4 q 128 -22 126 -17 q 130 -33 129 -28 q 131 -40 131 -37 z "},"Ǌ":{"ha":1764,"x_min":82,"x_max":1896,"o":"m 131 -40 q 116 -35 131 -57 q 88 44 101 -14 q 83 72 85 57 q 82 101 82 86 q 97 242 82 163 q 135 409 113 322 q 181 578 158 496 q 218 724 203 660 q 233 822 233 789 q 231 844 233 839 q 228 854 228 850 q 250 868 228 868 q 308 851 274 868 q 368 800 343 833 q 388 721 393 767 q 387 713 388 717 q 385 703 386 708 q 463 594 428 657 q 535 463 497 532 q 624 326 574 394 q 640 302 624 324 q 681 249 656 281 q 734 185 706 218 q 785 124 763 151 l 785 138 q 797 218 788 160 q 819 355 806 276 q 847 517 832 433 q 878 674 863 600 q 907 797 893 749 q 921 800 907 797 q 949 803 935 803 q 974 799 964 803 q 985 781 985 794 q 983 769 985 774 q 963 689 976 746 q 931 554 949 632 q 892 392 913 476 q 853 226 872 307 q 817 83 833 146 l 825 76 q 857 42 849 57 q 865 21 865 28 q 851 11 865 11 q 801 25 833 11 q 786 -21 793 -4 q 781 -37 779 -37 q 775 -39 779 -39 q 765 -17 765 -39 q 768 10 765 -6 q 772 43 771 25 q 633 158 697 92 q 507 301 568 224 q 434 394 464 357 q 378 460 404 431 q 324 525 353 490 q 260 382 294 457 q 195 235 226 307 q 144 103 164 164 q 125 3 125 43 q 126 -10 125 -4 q 128 -22 126 -17 q 130 -33 129 -28 q 131 -40 131 -37 m 1190 -161 q 1101 -140 1142 -161 q 1031 -85 1060 -119 q 990 -12 1001 -51 q 987 5 989 -4 q 985 24 985 14 q 1008 104 985 67 q 1061 160 1031 142 q 1089 171 1081 171 q 1100 154 1100 171 q 1089 97 1100 135 q 1078 28 1078 60 q 1112 -60 1078 -22 q 1188 -97 1146 -97 q 1231 -85 1210 -97 q 1318 -1 1281 -51 q 1388 134 1356 50 q 1453 349 1419 218 q 1479 467 1469 413 q 1498 578 1489 522 q 1519 696 1507 633 q 1403 676 1457 686 q 1315 662 1349 667 q 1276 658 1281 657 q 1261 694 1261 667 q 1277 750 1261 722 q 1317 778 1293 778 q 1347 765 1336 778 q 1382 751 1358 751 q 1390 752 1386 751 q 1400 754 1394 753 q 1460 761 1415 758 q 1561 765 1504 764 q 1606 786 1582 781 q 1651 792 1629 792 q 1714 771 1703 792 q 1758 772 1738 771 q 1797 772 1779 772 q 1851 772 1829 772 q 1876 768 1872 771 q 1892 758 1888 764 q 1896 749 1896 753 q 1883 731 1896 738 q 1868 729 1871 724 q 1838 736 1868 736 q 1781 733 1815 736 q 1703 724 1746 729 q 1649 557 1681 654 q 1563 325 1618 460 q 1495 163 1528 242 q 1427 19 1463 85 q 1349 -90 1392 -46 q 1251 -151 1306 -135 q 1190 -161 1222 -161 z "},"Ń":{"ha":956,"x_min":82,"x_max":985,"o":"m 131 -40 q 116 -35 131 -57 q 88 44 101 -14 q 83 72 85 57 q 82 101 82 86 q 97 242 82 163 q 135 409 113 322 q 181 578 158 496 q 218 724 203 660 q 233 822 233 789 q 231 844 233 839 q 228 854 228 850 q 250 868 228 868 q 308 851 274 868 q 368 800 343 833 q 388 721 393 767 q 387 713 388 717 q 385 703 386 708 q 463 594 428 657 q 535 463 497 532 q 624 326 574 394 q 640 302 624 324 q 681 249 656 281 q 734 185 706 218 q 785 124 763 151 l 785 138 q 797 218 788 160 q 819 355 806 276 q 847 517 832 433 q 878 674 863 600 q 907 797 893 749 q 921 800 907 797 q 949 803 935 803 q 974 799 964 803 q 985 781 985 794 q 983 769 985 774 q 963 689 976 746 q 931 554 949 632 q 892 392 913 476 q 853 226 872 307 q 817 83 833 146 l 825 76 q 857 42 849 57 q 865 21 865 28 q 851 11 865 11 q 801 25 833 11 q 786 -21 793 -4 q 781 -37 779 -37 q 775 -39 779 -39 q 765 -17 765 -39 q 768 10 765 -6 q 772 43 771 25 q 633 158 697 92 q 507 301 568 224 q 434 394 464 357 q 378 460 404 431 q 324 525 353 490 q 260 382 294 457 q 195 235 226 307 q 144 103 164 164 q 125 3 125 43 q 126 -10 125 -4 q 128 -22 126 -17 q 130 -33 129 -28 q 131 -40 131 -37 m 568 899 q 543 914 543 899 q 604 960 569 933 q 674 1014 639 986 q 732 1063 708 1042 q 774 1094 756 1082 q 807 1106 793 1106 q 830 1089 821 1106 q 839 1053 839 1072 q 835 1032 839 1047 q 807 1004 831 1017 q 755 977 789 994 q 683 942 721 960 q 613 911 644 924 q 568 899 582 899 z "},"Ň":{"ha":956,"x_min":82,"x_max":985,"o":"m 869 1129 q 885 1126 878 1129 q 890 1113 892 1122 q 831 1062 865 1092 q 763 1001 796 1032 q 704 946 729 969 q 672 918 686 929 q 647 901 658 907 q 642 899 644 900 q 636 899 639 899 q 628 901 633 899 q 579 946 608 913 q 534 1001 561 969 q 479 1062 507 1032 q 431 1113 451 1092 q 454 1129 432 1129 q 492 1116 467 1129 q 547 1083 517 1103 q 606 1045 578 1064 q 650 1015 633 1026 q 701 1045 669 1026 q 767 1083 733 1064 q 829 1116 801 1103 q 869 1129 857 1129 m 131 -40 q 116 -35 131 -57 q 88 44 101 -14 q 83 72 85 57 q 82 101 82 86 q 97 242 82 163 q 135 409 113 322 q 181 578 158 496 q 218 724 203 660 q 233 822 233 789 q 231 844 233 839 q 228 854 228 850 q 250 868 228 868 q 308 851 274 868 q 368 800 343 833 q 388 721 393 767 q 387 713 388 717 q 385 703 386 708 q 463 594 428 657 q 535 463 497 532 q 624 326 574 394 q 640 302 624 324 q 681 249 656 281 q 734 185 706 218 q 785 124 763 151 l 785 138 q 797 218 788 160 q 819 355 806 276 q 847 517 832 433 q 878 674 863 600 q 907 797 893 749 q 921 800 907 797 q 949 803 935 803 q 974 799 964 803 q 985 781 985 794 q 983 769 985 774 q 963 689 976 746 q 931 554 949 632 q 892 392 913 476 q 853 226 872 307 q 817 83 833 146 l 825 76 q 857 42 849 57 q 865 21 865 28 q 851 11 865 11 q 801 25 833 11 q 786 -21 793 -4 q 781 -37 779 -37 q 775 -39 779 -39 q 765 -17 765 -39 q 768 10 765 -6 q 772 43 771 25 q 633 158 697 92 q 507 301 568 224 q 434 394 464 357 q 378 460 404 431 q 324 525 353 490 q 260 382 294 457 q 195 235 226 307 q 144 103 164 164 q 125 3 125 43 q 126 -10 125 -4 q 128 -22 126 -17 q 130 -33 129 -28 q 131 -40 131 -37 z "},"Ņ":{"ha":956,"x_min":82,"x_max":985,"o":"m 131 -40 q 116 -35 131 -57 q 88 44 101 -14 q 83 72 85 57 q 82 101 82 86 q 97 242 82 163 q 135 409 113 322 q 181 578 158 496 q 218 724 203 660 q 233 822 233 789 q 231 844 233 839 q 228 854 228 850 q 250 868 228 868 q 308 851 274 868 q 368 800 343 833 q 388 721 393 767 q 387 713 388 717 q 385 703 386 708 q 463 594 428 657 q 535 463 497 532 q 624 326 574 394 q 640 302 624 324 q 681 249 656 281 q 734 185 706 218 q 785 124 763 151 l 785 138 q 797 218 788 160 q 819 355 806 276 q 847 517 832 433 q 878 674 863 600 q 907 797 893 749 q 921 800 907 797 q 949 803 935 803 q 974 799 964 803 q 985 781 985 794 q 983 769 985 774 q 963 689 976 746 q 931 554 949 632 q 892 392 913 476 q 853 226 872 307 q 817 83 833 146 l 825 76 q 857 42 849 57 q 865 21 865 28 q 851 11 865 11 q 801 25 833 11 q 786 -21 793 -4 q 781 -37 779 -37 q 775 -39 779 -39 q 765 -17 765 -39 q 768 10 765 -6 q 772 43 771 25 q 633 158 697 92 q 507 301 568 224 q 434 394 464 357 q 378 460 404 431 q 324 525 353 490 q 260 382 294 457 q 195 235 226 307 q 144 103 164 164 q 125 3 125 43 q 126 -10 125 -4 q 128 -22 126 -17 q 130 -33 129 -28 q 131 -40 131 -37 m 333 -296 q 333 -283 324 -296 q 361 -249 343 -269 q 394 -203 379 -228 q 410 -156 410 -179 q 392 -117 410 -135 q 379 -100 379 -106 q 388 -90 379 -93 q 410 -86 397 -86 q 466 -97 438 -86 q 494 -143 494 -107 q 483 -181 494 -156 q 450 -231 471 -206 q 402 -276 429 -257 q 343 -294 375 -294 l 333 -296 z "},"ǋ":{"ha":1344,"x_min":82,"x_max":1294,"o":"m 131 -40 q 116 -35 131 -57 q 88 44 101 -14 q 83 72 85 57 q 82 101 82 86 q 97 242 82 163 q 135 409 113 322 q 181 578 158 496 q 218 724 203 660 q 233 822 233 789 q 231 844 233 839 q 228 854 228 850 q 250 868 228 868 q 308 851 274 868 q 368 800 343 833 q 388 721 393 767 q 387 713 388 717 q 385 703 386 708 q 463 594 428 657 q 535 463 497 532 q 624 326 574 394 q 640 302 624 324 q 681 249 656 281 q 734 185 706 218 q 785 124 763 151 l 785 138 q 797 218 788 160 q 819 355 806 276 q 847 517 832 433 q 878 674 863 600 q 907 797 893 749 q 921 800 907 797 q 949 803 935 803 q 974 799 964 803 q 985 781 985 794 q 983 769 985 774 q 963 689 976 746 q 931 554 949 632 q 892 392 913 476 q 853 226 872 307 q 817 83 833 146 l 825 76 q 857 42 849 57 q 865 21 865 28 q 851 11 865 11 q 801 25 833 11 q 786 -21 793 -4 q 781 -37 779 -37 q 775 -39 779 -39 q 765 -17 765 -39 q 768 10 765 -6 q 772 43 771 25 q 633 158 697 92 q 507 301 568 224 q 434 394 464 357 q 378 460 404 431 q 324 525 353 490 q 260 382 294 457 q 195 235 226 307 q 144 103 164 164 q 125 3 125 43 q 126 -10 125 -4 q 128 -22 126 -17 q 130 -33 129 -28 q 131 -40 131 -37 m 1169 497 q 1142 508 1151 497 q 1126 525 1133 518 q 1115 542 1122 532 q 1107 560 1107 551 q 1115 569 1107 568 q 1226 592 1192 592 q 1269 578 1258 592 q 1290 546 1281 565 q 1268 531 1294 535 q 1222 524 1242 526 q 1197 508 1208 518 q 1169 497 1185 497 m 824 -300 q 722 -279 767 -300 q 653 -227 678 -258 q 629 -165 629 -196 q 669 -101 629 -125 q 683 -116 676 -97 q 703 -160 689 -135 q 746 -206 717 -186 q 828 -226 775 -226 q 947 -197 893 -226 q 1031 -108 1000 -168 q 1067 13 1058 -56 q 1075 153 1075 82 l 1075 236 q 1092 346 1072 317 q 1140 375 1113 375 q 1184 363 1163 375 q 1220 335 1206 350 q 1233 308 1235 319 q 1202 121 1232 219 q 1126 -62 1172 22 q 1046 -186 1089 -132 q 949 -270 1003 -240 q 824 -300 896 -300 z "},"Ñ":{"ha":956,"x_min":82,"x_max":985,"o":"m 131 -40 q 116 -35 131 -57 q 88 44 101 -14 q 83 72 85 57 q 82 101 82 86 q 97 242 82 163 q 135 409 113 322 q 181 578 158 496 q 218 724 203 660 q 233 822 233 789 q 231 844 233 839 q 228 854 228 850 q 250 868 228 868 q 308 851 274 868 q 368 800 343 833 q 388 721 393 767 q 387 713 388 717 q 385 703 386 708 q 463 594 428 657 q 535 463 497 532 q 624 326 574 394 q 640 302 624 324 q 681 249 656 281 q 734 185 706 218 q 785 124 763 151 l 785 138 q 797 218 788 160 q 819 355 806 276 q 847 517 832 433 q 878 674 863 600 q 907 797 893 749 q 921 800 907 797 q 949 803 935 803 q 974 799 964 803 q 985 781 985 794 q 983 769 985 774 q 963 689 976 746 q 931 554 949 632 q 892 392 913 476 q 853 226 872 307 q 817 83 833 146 l 825 76 q 857 42 849 57 q 865 21 865 28 q 851 11 865 11 q 801 25 833 11 q 786 -21 793 -4 q 781 -37 779 -37 q 775 -39 779 -39 q 765 -17 765 -39 q 768 10 765 -6 q 772 43 771 25 q 633 158 697 92 q 507 301 568 224 q 434 394 464 357 q 378 460 404 431 q 324 525 353 490 q 260 382 294 457 q 195 235 226 307 q 144 103 164 164 q 125 3 125 43 q 126 -10 125 -4 q 128 -22 126 -17 q 130 -33 129 -28 q 131 -40 131 -37 m 454 889 q 439 900 444 889 q 433 929 433 911 q 467 1007 433 978 q 551 1036 500 1036 q 622 1020 590 1036 q 680 989 653 1004 q 735 974 707 974 q 765 981 750 974 q 799 1004 781 988 q 818 1023 806 1007 q 833 1039 831 1039 q 844 1033 838 1039 q 850 1013 850 1026 q 845 990 850 1003 q 829 961 840 978 q 770 906 801 922 q 694 893 739 889 q 642 911 665 896 q 599 941 619 926 q 553 956 578 956 q 509 934 526 956 q 474 897 492 913 q 454 889 464 889 z "},"O":{"ha":1153,"x_min":32,"x_max":1126,"o":"m 568 -53 q 433 -37 506 -53 q 207 50 296 -8 q 75 183 118 108 q 32 338 32 258 q 85 514 32 428 q 240 665 138 600 q 490 754 343 729 q 650 767 565 767 q 772 759 714 767 q 873 738 831 751 q 931 701 915 724 q 938 678 938 693 q 928 644 938 658 q 1026 588 981 625 q 1099 501 1072 551 q 1126 390 1126 451 q 1099 272 1126 332 q 977 108 1056 182 q 794 -9 899 35 q 568 -53 690 -53 m 532 -7 q 729 34 638 -7 q 890 144 821 75 q 997 294 960 213 q 1019 356 1013 326 q 1025 411 1025 385 q 983 535 1025 485 q 878 610 940 585 q 756 636 817 636 q 657 614 697 636 q 633 607 643 607 q 617 618 617 607 q 640 626 617 622 q 697 635 663 631 q 769 644 732 640 q 833 652 806 649 q 868 658 860 656 q 833 661 850 660 q 828 663 817 663 l 829 663 q 871 660 871 663 q 868 658 871 660 q 889 656 882 657 l 889 664 q 840 714 889 697 q 721 731 790 731 q 628 724 678 731 q 531 704 579 718 q 319 608 400 668 q 203 474 239 547 q 167 328 167 401 q 199 187 167 254 q 288 72 231 119 q 421 6 346 24 q 532 -7 478 -7 z "},"Œ":{"ha":1703,"x_min":32,"x_max":1699,"o":"m 1215 -72 q 1185 -72 1200 -72 q 1156 -69 1171 -71 q 988 -32 1050 -58 q 897 46 925 -6 q 744 -26 828 0 q 568 -51 661 -51 q 501 -48 535 -51 q 433 -37 468 -44 q 207 50 296 -8 q 75 183 118 108 q 32 338 32 258 q 85 514 32 428 q 240 665 138 600 q 490 754 343 729 q 650 767 565 767 q 772 759 714 767 q 873 738 831 751 q 931 701 915 724 q 938 678 938 693 q 928 644 938 660 q 973 626 951 635 q 1013 601 994 617 q 1131 713 1063 663 q 1285 789 1199 763 q 1449 814 1372 814 q 1584 792 1526 814 q 1661 736 1642 771 q 1667 714 1667 726 q 1653 675 1667 693 q 1626 657 1640 657 q 1610 692 1610 657 q 1494 771 1610 771 q 1416 763 1460 771 q 1319 738 1372 756 q 1215 676 1269 721 q 1111 571 1160 632 q 1029 440 1063 510 l 1042 442 q 1144 449 1086 447 q 1263 451 1203 451 q 1402 449 1336 451 q 1510 440 1468 446 q 1551 428 1551 435 q 1482 411 1551 419 q 1235 374 1365 397 q 990 331 1106 350 q 983 283 986 307 q 982 236 981 260 q 1035 75 988 139 q 1165 -4 1082 11 q 1210 -10 1188 -8 q 1257 -11 1233 -11 q 1382 0 1319 -11 q 1498 30 1444 11 q 1588 73 1551 49 q 1632 125 1624 97 q 1654 172 1642 154 q 1678 190 1667 190 q 1699 126 1699 190 q 1653 49 1699 85 q 1533 -14 1607 14 q 1376 -57 1460 -42 q 1215 -72 1292 -72 m 532 -7 q 717 29 631 -7 q 871 125 804 65 q 865 181 867 151 q 865 244 864 210 q 870 277 867 260 q 874 313 874 294 l 861 313 q 844 324 849 313 q 839 353 839 336 q 847 393 839 374 q 864 413 854 413 q 881 415 871 413 q 906 418 892 418 q 972 546 931 485 q 872 613 932 590 q 754 636 811 636 q 657 614 699 636 q 633 607 643 607 q 617 618 617 607 q 635 638 617 626 q 701 657 654 649 q 829 663 747 665 q 860 660 844 663 q 889 656 875 658 l 889 664 q 838 714 885 697 q 721 731 790 731 q 628 724 678 731 q 531 704 579 718 q 304 605 390 665 q 179 473 218 544 q 140 329 140 401 q 176 189 140 256 q 274 74 211 122 q 421 6 338 25 q 532 -7 478 -7 z "},"Ó":{"ha":1153,"x_min":32,"x_max":1126,"o":"m 568 -53 q 433 -37 506 -53 q 207 50 296 -8 q 75 183 118 108 q 32 338 32 258 q 85 514 32 428 q 240 665 138 600 q 490 754 343 729 q 650 767 565 767 q 772 759 714 767 q 873 738 831 751 q 931 701 915 724 q 938 678 938 693 q 928 644 938 658 q 1026 588 981 625 q 1099 501 1072 551 q 1126 390 1126 451 q 1099 272 1126 332 q 977 108 1056 182 q 794 -9 899 35 q 568 -53 690 -53 m 532 -7 q 729 34 638 -7 q 890 144 821 75 q 997 294 960 213 q 1019 356 1013 326 q 1025 411 1025 385 q 983 535 1025 485 q 878 610 940 585 q 756 636 817 636 q 657 614 697 636 q 633 607 643 607 q 617 618 617 607 q 640 626 617 622 q 697 635 663 631 q 769 644 732 640 q 833 652 806 649 q 868 658 860 656 q 833 661 850 660 q 828 663 817 663 l 829 663 q 871 660 871 663 q 868 658 871 660 q 889 656 882 657 l 889 664 q 840 714 889 697 q 721 731 790 731 q 628 724 678 731 q 531 704 579 718 q 319 608 400 668 q 203 474 239 547 q 167 328 167 401 q 199 187 167 254 q 288 72 231 119 q 421 6 346 24 q 532 -7 478 -7 m 593 843 q 568 858 568 843 q 629 904 594 878 q 699 958 664 931 q 757 1007 733 986 q 799 1038 781 1026 q 832 1050 818 1050 q 855 1033 846 1050 q 864 997 864 1017 q 860 976 864 992 q 832 949 856 961 q 780 922 814 939 q 708 886 746 904 q 638 856 669 868 q 593 843 607 843 z "},"Ŏ":{"ha":1153,"x_min":32,"x_max":1126,"o":"m 568 -53 q 433 -37 506 -53 q 207 50 296 -8 q 75 183 118 108 q 32 338 32 258 q 85 514 32 428 q 240 665 138 600 q 490 754 343 729 q 650 767 565 767 q 772 759 714 767 q 873 738 831 751 q 931 701 915 724 q 938 678 938 693 q 928 644 938 658 q 1026 588 981 625 q 1099 501 1072 551 q 1126 390 1126 451 q 1099 272 1126 332 q 977 108 1056 182 q 794 -9 899 35 q 568 -53 690 -53 m 532 -7 q 729 34 638 -7 q 890 144 821 75 q 997 294 960 213 q 1019 356 1013 326 q 1025 411 1025 385 q 983 535 1025 485 q 878 610 940 585 q 756 636 817 636 q 657 614 697 636 q 633 607 643 607 q 617 618 617 607 q 640 626 617 622 q 697 635 663 631 q 769 644 732 640 q 833 652 806 649 q 868 658 860 656 q 833 661 850 660 q 828 663 817 663 l 829 663 q 871 660 871 663 q 868 658 871 660 q 889 656 882 657 l 889 664 q 840 714 889 697 q 721 731 790 731 q 628 724 678 731 q 531 704 579 718 q 319 608 400 668 q 203 474 239 547 q 167 328 167 401 q 199 187 167 254 q 288 72 231 119 q 421 6 346 24 q 532 -7 478 -7 m 665 856 q 593 870 629 856 q 532 915 557 885 q 501 993 507 946 q 506 1025 500 1013 q 522 1038 513 1038 q 531 1030 525 1038 q 542 1015 538 1022 q 602 954 569 969 q 672 939 635 939 q 748 956 714 939 q 822 1010 782 974 q 847 1035 838 1022 q 858 1047 857 1047 q 869 1024 869 1047 q 861 986 869 1007 q 776 887 832 918 q 665 856 719 856 z "},"Ǒ":{"ha":1153,"x_min":32,"x_max":1126,"o":"m 894 1074 q 910 1070 903 1074 q 915 1057 917 1067 q 856 1006 890 1036 q 788 945 821 976 q 729 890 754 914 q 697 863 711 874 q 672 846 683 851 q 667 844 669 844 q 661 843 664 843 q 653 846 658 843 q 604 890 633 857 q 559 945 586 914 q 504 1006 532 976 q 456 1057 476 1036 q 479 1074 457 1074 q 517 1060 492 1074 q 572 1028 542 1047 q 631 990 603 1008 q 675 960 658 971 q 726 990 694 971 q 792 1028 758 1008 q 854 1060 826 1047 q 894 1074 882 1074 m 568 -53 q 433 -37 506 -53 q 207 50 296 -8 q 75 183 118 108 q 32 338 32 258 q 85 514 32 428 q 240 665 138 600 q 490 754 343 729 q 650 767 565 767 q 772 759 714 767 q 873 738 831 751 q 931 701 915 724 q 938 678 938 693 q 928 644 938 658 q 1026 588 981 625 q 1099 501 1072 551 q 1126 390 1126 451 q 1099 272 1126 332 q 977 108 1056 182 q 794 -9 899 35 q 568 -53 690 -53 m 532 -7 q 729 34 638 -7 q 890 144 821 75 q 997 294 960 213 q 1019 356 1013 326 q 1025 411 1025 385 q 983 535 1025 485 q 878 610 940 585 q 756 636 817 636 q 657 614 697 636 q 633 607 643 607 q 617 618 617 607 q 640 626 617 622 q 697 635 663 631 q 769 644 732 640 q 833 652 806 649 q 868 658 860 656 q 833 661 850 660 q 828 663 817 663 l 829 663 q 871 660 871 663 q 868 658 871 660 q 889 656 882 657 l 889 664 q 840 714 889 697 q 721 731 790 731 q 628 724 678 731 q 531 704 579 718 q 319 608 400 668 q 203 474 239 547 q 167 328 167 401 q 199 187 167 254 q 288 72 231 119 q 421 6 346 24 q 532 -7 478 -7 z "},"ǒ":{"ha":1153,"x_min":32,"x_max":1126,"o":"m 894 1074 q 910 1070 903 1074 q 915 1057 917 1067 q 856 1006 890 1036 q 788 945 821 976 q 729 890 754 914 q 697 863 711 874 q 672 846 683 851 q 667 844 669 844 q 661 843 664 843 q 653 846 658 843 q 604 890 633 857 q 559 945 586 914 q 504 1006 532 976 q 456 1057 476 1036 q 479 1074 457 1074 q 517 1060 492 1074 q 572 1028 542 1047 q 631 990 603 1008 q 675 960 658 971 q 726 990 694 971 q 792 1028 758 1008 q 854 1060 826 1047 q 894 1074 882 1074 m 568 -53 q 433 -37 506 -53 q 207 50 296 -8 q 75 183 118 108 q 32 338 32 258 q 85 514 32 428 q 240 665 138 600 q 490 754 343 729 q 650 767 565 767 q 772 759 714 767 q 873 738 831 751 q 931 701 915 724 q 938 678 938 693 q 928 644 938 658 q 1026 588 981 625 q 1099 501 1072 551 q 1126 390 1126 451 q 1099 272 1126 332 q 977 108 1056 182 q 794 -9 899 35 q 568 -53 690 -53 m 532 -7 q 729 34 638 -7 q 890 144 821 75 q 997 294 960 213 q 1019 356 1013 326 q 1025 411 1025 385 q 983 535 1025 485 q 878 610 940 585 q 756 636 817 636 q 657 614 697 636 q 633 607 643 607 q 617 618 617 607 q 640 626 617 622 q 697 635 663 631 q 769 644 732 640 q 833 652 806 649 q 868 658 860 656 q 833 661 850 660 q 828 663 817 663 l 829 663 q 871 660 871 663 q 868 658 871 660 q 889 656 882 657 l 889 664 q 840 714 889 697 q 721 731 790 731 q 628 724 678 731 q 531 704 579 718 q 319 608 400 668 q 203 474 239 547 q 167 328 167 401 q 199 187 167 254 q 288 72 231 119 q 421 6 346 24 q 532 -7 478 -7 z "},"Ô":{"ha":1153,"x_min":32,"x_max":1126,"o":"m 568 -53 q 433 -37 506 -53 q 207 50 296 -8 q 75 183 118 108 q 32 338 32 258 q 85 514 32 428 q 240 665 138 600 q 490 754 343 729 q 650 767 565 767 q 772 759 714 767 q 873 738 831 751 q 931 701 915 724 q 938 678 938 693 q 928 644 938 658 q 1026 588 981 625 q 1099 501 1072 551 q 1126 390 1126 451 q 1099 272 1126 332 q 977 108 1056 182 q 794 -9 899 35 q 568 -53 690 -53 m 532 -7 q 729 34 638 -7 q 890 144 821 75 q 997 294 960 213 q 1019 356 1013 326 q 1025 411 1025 385 q 983 535 1025 485 q 878 610 940 585 q 756 636 817 636 q 657 614 697 636 q 633 607 643 607 q 617 618 617 607 q 640 626 617 622 q 697 635 663 631 q 769 644 732 640 q 833 652 806 649 q 868 658 860 656 q 833 661 850 660 q 828 663 817 663 l 829 663 q 871 660 871 663 q 868 658 871 660 q 889 656 882 657 l 889 664 q 840 714 889 697 q 721 731 790 731 q 628 724 678 731 q 531 704 579 718 q 319 608 400 668 q 203 474 239 547 q 167 328 167 401 q 199 187 167 254 q 288 72 231 119 q 421 6 346 24 q 532 -7 478 -7 m 454 825 q 439 828 446 825 q 433 842 432 832 q 494 892 460 863 q 562 953 528 922 q 619 1008 596 985 q 653 1036 639 1025 q 676 1053 667 1047 q 682 1055 679 1054 q 688 1056 685 1056 q 696 1053 690 1056 q 744 1008 715 1042 q 790 953 763 985 q 845 892 817 922 q 893 842 874 863 q 869 825 892 825 q 832 838 857 825 q 776 871 807 851 q 718 909 746 890 q 674 939 690 928 q 622 909 654 928 q 556 871 590 890 q 494 838 522 851 q 454 825 467 825 z "},"Ố":{"ha":1153,"x_min":32,"x_max":1149,"o":"m 568 -53 q 433 -37 506 -53 q 207 50 296 -8 q 75 183 118 108 q 32 338 32 258 q 85 514 32 428 q 240 665 138 600 q 490 754 343 729 q 650 767 565 767 q 772 759 714 767 q 873 738 831 751 q 931 701 915 724 q 938 678 938 693 q 928 644 938 658 q 1026 588 981 625 q 1099 501 1072 551 q 1126 390 1126 451 q 1099 272 1126 332 q 977 108 1056 182 q 794 -9 899 35 q 568 -53 690 -53 m 532 -7 q 729 34 638 -7 q 890 144 821 75 q 997 294 960 213 q 1019 356 1013 326 q 1025 411 1025 385 q 983 535 1025 485 q 878 610 940 585 q 756 636 817 636 q 657 614 697 636 q 633 607 643 607 q 617 618 617 607 q 640 626 617 622 q 697 635 663 631 q 769 644 732 640 q 833 652 806 649 q 868 658 860 656 q 833 661 850 660 q 828 663 817 663 l 829 663 q 871 660 871 663 q 868 658 871 660 q 889 656 882 657 l 889 664 q 840 714 889 697 q 721 731 790 731 q 628 724 678 731 q 531 704 579 718 q 319 608 400 668 q 203 474 239 547 q 167 328 167 401 q 199 187 167 254 q 288 72 231 119 q 421 6 346 24 q 532 -7 478 -7 m 454 825 q 439 828 446 825 q 433 842 432 832 q 494 892 460 863 q 562 953 528 922 q 619 1008 596 985 q 653 1036 639 1025 q 676 1053 667 1047 q 682 1055 679 1054 q 688 1056 685 1056 q 696 1053 690 1056 q 744 1008 715 1042 q 790 953 763 985 q 845 892 817 922 q 893 842 874 863 q 869 825 892 825 q 832 838 857 825 q 776 871 807 851 q 718 909 746 890 q 674 939 690 928 q 622 909 654 928 q 556 871 590 890 q 494 838 522 851 q 454 825 467 825 m 878 1008 q 853 1024 853 1008 q 914 1069 879 1043 q 983 1124 949 1096 q 1042 1172 1018 1151 q 1084 1203 1065 1192 q 1117 1215 1103 1215 q 1140 1199 1131 1215 q 1149 1163 1149 1182 q 1144 1142 1149 1157 q 1117 1114 1140 1126 q 1065 1087 1099 1104 q 992 1051 1031 1069 q 923 1021 954 1033 q 878 1008 892 1008 z "},"Ộ":{"ha":1153,"x_min":32,"x_max":1126,"o":"m 568 -53 q 433 -37 506 -53 q 207 50 296 -8 q 75 183 118 108 q 32 338 32 258 q 85 514 32 428 q 240 665 138 600 q 490 754 343 729 q 650 767 565 767 q 772 759 714 767 q 873 738 831 751 q 931 701 915 724 q 938 678 938 693 q 928 644 938 658 q 1026 588 981 625 q 1099 501 1072 551 q 1126 390 1126 451 q 1099 272 1126 332 q 977 108 1056 182 q 794 -9 899 35 q 568 -53 690 -53 m 532 -7 q 729 34 638 -7 q 890 144 821 75 q 997 294 960 213 q 1019 356 1013 326 q 1025 411 1025 385 q 983 535 1025 485 q 878 610 940 585 q 756 636 817 636 q 657 614 697 636 q 633 607 643 607 q 617 618 617 607 q 640 626 617 622 q 697 635 663 631 q 769 644 732 640 q 833 652 806 649 q 868 658 860 656 q 833 661 850 660 q 828 663 817 663 l 829 663 q 871 660 871 663 q 868 658 871 660 q 889 656 882 657 l 889 664 q 840 714 889 697 q 721 731 790 731 q 628 724 678 731 q 531 704 579 718 q 319 608 400 668 q 203 474 239 547 q 167 328 167 401 q 199 187 167 254 q 288 72 231 119 q 421 6 346 24 q 532 -7 478 -7 m 388 -236 q 366 -220 379 -236 q 345 -187 353 -204 q 344 -167 338 -169 q 426 -140 399 -140 q 460 -156 450 -140 q 479 -194 469 -171 q 463 -212 483 -203 q 419 -229 443 -222 q 388 -236 394 -236 m 454 825 q 439 828 446 825 q 433 842 432 832 q 494 892 460 863 q 562 953 528 922 q 619 1008 596 985 q 653 1036 639 1025 q 676 1053 667 1047 q 682 1055 679 1054 q 688 1056 685 1056 q 696 1053 690 1056 q 744 1008 715 1042 q 790 953 763 985 q 845 892 817 922 q 893 842 874 863 q 869 825 892 825 q 832 838 857 825 q 776 871 807 851 q 718 909 746 890 q 674 939 690 928 q 622 909 654 928 q 556 871 590 890 q 494 838 522 851 q 454 825 467 825 z "},"Ồ":{"ha":1153,"x_min":32,"x_max":1126,"o":"m 568 -53 q 433 -37 506 -53 q 207 50 296 -8 q 75 183 118 108 q 32 338 32 258 q 85 514 32 428 q 240 665 138 600 q 490 754 343 729 q 650 767 565 767 q 772 759 714 767 q 873 738 831 751 q 931 701 915 724 q 938 678 938 693 q 928 644 938 658 q 1026 588 981 625 q 1099 501 1072 551 q 1126 390 1126 451 q 1099 272 1126 332 q 977 108 1056 182 q 794 -9 899 35 q 568 -53 690 -53 m 532 -7 q 729 34 638 -7 q 890 144 821 75 q 997 294 960 213 q 1019 356 1013 326 q 1025 411 1025 385 q 983 535 1025 485 q 878 610 940 585 q 756 636 817 636 q 657 614 697 636 q 633 607 643 607 q 617 618 617 607 q 640 626 617 622 q 697 635 663 631 q 769 644 732 640 q 833 652 806 649 q 868 658 860 656 q 833 661 850 660 q 828 663 817 663 l 829 663 q 871 660 871 663 q 868 658 871 660 q 889 656 882 657 l 889 664 q 840 714 889 697 q 721 731 790 731 q 628 724 678 731 q 531 704 579 718 q 319 608 400 668 q 203 474 239 547 q 167 328 167 401 q 199 187 167 254 q 288 72 231 119 q 421 6 346 24 q 532 -7 478 -7 m 454 825 q 439 828 446 825 q 433 842 432 832 q 494 892 460 863 q 562 953 528 922 q 619 1008 596 985 q 653 1036 639 1025 q 676 1053 667 1047 q 682 1055 679 1054 q 688 1056 685 1056 q 696 1053 690 1056 q 744 1008 715 1042 q 790 953 763 985 q 845 892 817 922 q 893 842 874 863 q 869 825 892 825 q 832 838 857 825 q 776 871 807 851 q 718 909 746 890 q 674 939 690 928 q 622 909 654 928 q 556 871 590 890 q 494 838 522 851 q 454 825 467 825 m 890 1036 q 845 1049 876 1036 q 776 1079 814 1061 q 704 1115 738 1097 q 651 1142 671 1132 q 624 1169 628 1154 q 619 1190 619 1185 q 628 1226 619 1210 q 651 1243 638 1243 q 683 1231 663 1243 q 726 1200 703 1219 q 785 1151 751 1179 q 855 1097 819 1124 q 915 1051 890 1071 q 890 1036 915 1036 z "},"Ổ":{"ha":1153,"x_min":32,"x_max":1126,"o":"m 568 -53 q 433 -37 506 -53 q 207 50 296 -8 q 75 183 118 108 q 32 338 32 258 q 85 514 32 428 q 240 665 138 600 q 490 754 343 729 q 650 767 565 767 q 772 759 714 767 q 873 738 831 751 q 931 701 915 724 q 938 678 938 693 q 928 644 938 658 q 1026 588 981 625 q 1099 501 1072 551 q 1126 390 1126 451 q 1099 272 1126 332 q 977 108 1056 182 q 794 -9 899 35 q 568 -53 690 -53 m 532 -7 q 729 34 638 -7 q 890 144 821 75 q 997 294 960 213 q 1019 356 1013 326 q 1025 411 1025 385 q 983 535 1025 485 q 878 610 940 585 q 756 636 817 636 q 657 614 697 636 q 633 607 643 607 q 617 618 617 607 q 640 626 617 622 q 697 635 663 631 q 769 644 732 640 q 833 652 806 649 q 868 658 860 656 q 833 661 850 660 q 828 663 817 663 l 829 663 q 871 660 871 663 q 868 658 871 660 q 889 656 882 657 l 889 664 q 840 714 889 697 q 721 731 790 731 q 628 724 678 731 q 531 704 579 718 q 319 608 400 668 q 203 474 239 547 q 167 328 167 401 q 199 187 167 254 q 288 72 231 119 q 421 6 346 24 q 532 -7 478 -7 m 454 825 q 439 828 446 825 q 433 842 432 832 q 494 892 460 863 q 562 953 528 922 q 619 1008 596 985 q 653 1036 639 1025 q 676 1053 667 1047 q 682 1055 679 1054 q 688 1056 685 1056 q 696 1053 690 1056 q 744 1008 715 1042 q 790 953 763 985 q 845 892 817 922 q 893 842 874 863 q 869 825 892 825 q 832 838 857 825 q 776 871 807 851 q 718 909 746 890 q 674 939 690 928 q 622 909 654 928 q 556 871 590 890 q 494 838 522 851 q 454 825 467 825 m 900 943 q 888 945 894 943 q 879 953 881 947 q 878 961 878 957 q 878 969 878 965 q 889 1011 878 996 q 911 1042 900 1026 q 922 1086 922 1058 q 906 1130 922 1117 q 867 1143 889 1143 q 806 1126 836 1143 q 793 1124 797 1124 q 789 1141 779 1124 q 827 1176 799 1158 q 896 1193 856 1193 q 988 1167 957 1193 q 1019 1104 1019 1142 q 989 1028 1019 1064 q 960 998 972 1006 q 939 983 947 990 q 922 956 931 976 q 900 943 917 943 z "},"Ỗ":{"ha":1153,"x_min":32,"x_max":1126,"o":"m 568 -53 q 433 -37 506 -53 q 207 50 296 -8 q 75 183 118 108 q 32 338 32 258 q 85 514 32 428 q 240 665 138 600 q 490 754 343 729 q 650 767 565 767 q 772 759 714 767 q 873 738 831 751 q 931 701 915 724 q 938 678 938 693 q 928 644 938 658 q 1026 588 981 625 q 1099 501 1072 551 q 1126 390 1126 451 q 1099 272 1126 332 q 977 108 1056 182 q 794 -9 899 35 q 568 -53 690 -53 m 532 -7 q 729 34 638 -7 q 890 144 821 75 q 997 294 960 213 q 1019 356 1013 326 q 1025 411 1025 385 q 983 535 1025 485 q 878 610 940 585 q 756 636 817 636 q 657 614 697 636 q 633 607 643 607 q 617 618 617 607 q 640 626 617 622 q 697 635 663 631 q 769 644 732 640 q 833 652 806 649 q 868 658 860 656 q 833 661 850 660 q 828 663 817 663 l 829 663 q 871 660 871 663 q 868 658 871 660 q 889 656 882 657 l 889 664 q 840 714 889 697 q 721 731 790 731 q 628 724 678 731 q 531 704 579 718 q 319 608 400 668 q 203 474 239 547 q 167 328 167 401 q 199 187 167 254 q 288 72 231 119 q 421 6 346 24 q 532 -7 478 -7 m 454 825 q 439 828 446 825 q 433 842 432 832 q 494 892 460 863 q 562 953 528 922 q 619 1008 596 985 q 653 1036 639 1025 q 676 1053 667 1047 q 682 1055 679 1054 q 688 1056 685 1056 q 696 1053 690 1056 q 744 1008 715 1042 q 790 953 763 985 q 845 892 817 922 q 893 842 874 863 q 869 825 892 825 q 832 838 857 825 q 776 871 807 851 q 718 909 746 890 q 674 939 690 928 q 622 909 654 928 q 556 871 590 890 q 494 838 522 851 q 454 825 467 825 m 557 1074 q 542 1085 547 1074 q 536 1114 536 1096 q 569 1192 536 1163 q 654 1221 603 1221 q 724 1205 693 1221 q 783 1174 756 1189 q 838 1158 810 1158 q 868 1165 853 1158 q 901 1189 883 1172 q 921 1208 908 1192 q 936 1224 933 1224 q 947 1217 940 1224 q 953 1197 953 1211 q 948 1175 953 1188 q 932 1146 943 1163 q 873 1090 904 1107 q 797 1078 842 1074 q 745 1096 768 1081 q 701 1126 722 1111 q 656 1140 681 1140 q 612 1119 629 1140 q 576 1082 594 1097 q 557 1074 567 1074 z "},"Ȍ":{"ha":1153,"x_min":32,"x_max":1126,"o":"m 728 836 q 685 857 714 839 q 622 899 656 875 q 557 947 588 924 q 510 982 526 969 q 488 1014 489 999 q 488 1035 486 1029 q 502 1069 490 1054 q 528 1082 514 1085 q 556 1065 539 1079 q 594 1026 574 1050 q 643 968 614 1001 q 702 903 672 935 q 754 847 732 871 q 728 836 751 832 m 553 821 q 510 842 539 824 q 447 884 481 860 q 382 931 413 908 q 335 967 351 954 q 313 999 314 983 q 313 1019 311 1014 q 327 1054 315 1039 q 353 1067 339 1069 q 381 1049 364 1064 q 419 1011 399 1035 q 468 953 439 986 q 527 888 497 919 q 579 832 557 856 q 553 821 576 817 m 568 -53 q 433 -37 506 -53 q 207 50 296 -8 q 75 183 118 108 q 32 338 32 258 q 85 514 32 428 q 240 665 138 600 q 490 754 343 729 q 650 767 565 767 q 772 759 714 767 q 873 738 831 751 q 931 701 915 724 q 938 678 938 693 q 928 644 938 658 q 1026 588 981 625 q 1099 501 1072 551 q 1126 390 1126 451 q 1099 272 1126 332 q 977 108 1056 182 q 794 -9 899 35 q 568 -53 690 -53 m 532 -7 q 729 34 638 -7 q 890 144 821 75 q 997 294 960 213 q 1019 356 1013 326 q 1025 411 1025 385 q 983 535 1025 485 q 878 610 940 585 q 756 636 817 636 q 657 614 697 636 q 633 607 643 607 q 617 618 617 607 q 640 626 617 622 q 697 635 663 631 q 769 644 732 640 q 833 652 806 649 q 868 658 860 656 q 833 661 850 660 q 828 663 817 663 l 829 663 q 871 660 871 663 q 868 658 871 660 q 889 656 882 657 l 889 664 q 840 714 889 697 q 721 731 790 731 q 628 724 678 731 q 531 704 579 718 q 319 608 400 668 q 203 474 239 547 q 167 328 167 401 q 199 187 167 254 q 288 72 231 119 q 421 6 346 24 q 532 -7 478 -7 z "},"Ö":{"ha":1153,"x_min":32,"x_max":1126,"o":"m 568 -53 q 433 -37 506 -53 q 207 50 296 -8 q 75 183 118 108 q 32 338 32 258 q 85 514 32 428 q 240 665 138 600 q 490 754 343 729 q 650 767 565 767 q 772 759 714 767 q 873 738 831 751 q 931 701 915 724 q 938 678 938 693 q 928 644 938 658 q 1026 588 981 625 q 1099 501 1072 551 q 1126 390 1126 451 q 1099 272 1126 332 q 977 108 1056 182 q 794 -9 899 35 q 568 -53 690 -53 m 532 -7 q 729 34 638 -7 q 890 144 821 75 q 997 294 960 213 q 1019 356 1013 326 q 1025 411 1025 385 q 983 535 1025 485 q 878 610 940 585 q 756 636 817 636 q 657 614 697 636 q 633 607 643 607 q 617 618 617 607 q 640 626 617 622 q 697 635 663 631 q 769 644 732 640 q 833 652 806 649 q 868 658 860 656 q 833 661 850 660 q 828 663 817 663 l 829 663 q 871 660 871 663 q 868 658 871 660 q 889 656 882 657 l 889 664 q 840 714 889 697 q 721 731 790 731 q 628 724 678 731 q 531 704 579 718 q 319 608 400 668 q 203 474 239 547 q 167 328 167 401 q 199 187 167 254 q 288 72 231 119 q 421 6 346 24 q 532 -7 478 -7 m 533 836 q 512 852 525 836 q 491 885 499 868 q 490 906 483 903 q 572 932 544 932 q 606 917 596 932 q 625 878 615 901 q 609 860 629 869 q 565 843 589 850 q 533 836 540 836 m 757 836 q 735 852 749 836 q 715 885 722 868 q 714 906 707 903 q 796 932 768 932 q 829 917 819 932 q 849 878 839 901 q 833 860 853 869 q 788 843 813 850 q 757 836 764 836 z "},"Ȫ":{"ha":1153,"x_min":32,"x_max":1126,"o":"m 568 -53 q 433 -37 506 -53 q 207 50 296 -8 q 75 183 118 108 q 32 338 32 258 q 85 514 32 428 q 240 665 138 600 q 490 754 343 729 q 650 767 565 767 q 772 759 714 767 q 873 738 831 751 q 931 701 915 724 q 938 678 938 693 q 928 644 938 658 q 1026 588 981 625 q 1099 501 1072 551 q 1126 390 1126 451 q 1099 272 1126 332 q 977 108 1056 182 q 794 -9 899 35 q 568 -53 690 -53 m 532 -7 q 729 34 638 -7 q 890 144 821 75 q 997 294 960 213 q 1019 356 1013 326 q 1025 411 1025 385 q 983 535 1025 485 q 878 610 940 585 q 756 636 817 636 q 657 614 697 636 q 633 607 643 607 q 617 618 617 607 q 640 626 617 622 q 697 635 663 631 q 769 644 732 640 q 833 652 806 649 q 868 658 860 656 q 833 661 850 660 q 828 663 817 663 l 829 663 q 871 660 871 663 q 868 658 871 660 q 889 656 882 657 l 889 664 q 840 714 889 697 q 721 731 790 731 q 628 724 678 731 q 531 704 579 718 q 319 608 400 668 q 203 474 239 547 q 167 328 167 401 q 199 187 167 254 q 288 72 231 119 q 421 6 346 24 q 532 -7 478 -7 m 533 836 q 512 852 525 836 q 491 885 499 868 q 490 906 483 903 q 572 932 544 932 q 606 917 596 932 q 625 878 615 901 q 609 860 629 869 q 565 843 589 850 q 533 836 540 836 m 757 836 q 735 852 749 836 q 715 885 722 868 q 714 906 707 903 q 796 932 768 932 q 829 917 819 932 q 849 878 839 901 q 833 860 853 869 q 788 843 813 850 q 757 836 764 836 m 611 1001 q 515 1008 558 1001 q 472 1044 472 1014 q 487 1068 472 1057 q 539 1079 501 1079 l 821 1079 q 861 1076 846 1079 q 876 1057 876 1072 q 864 1035 876 1047 q 829 1019 851 1024 q 723 1006 786 1011 q 611 1001 660 1001 z "},"Ȱ":{"ha":1153,"x_min":32,"x_max":1126,"o":"m 568 -53 q 433 -37 506 -53 q 207 50 296 -8 q 75 183 118 108 q 32 338 32 258 q 85 514 32 428 q 240 665 138 600 q 490 754 343 729 q 650 767 565 767 q 772 759 714 767 q 873 738 831 751 q 931 701 915 724 q 938 678 938 693 q 928 644 938 658 q 1026 588 981 625 q 1099 501 1072 551 q 1126 390 1126 451 q 1099 272 1126 332 q 977 108 1056 182 q 794 -9 899 35 q 568 -53 690 -53 m 532 -7 q 729 34 638 -7 q 890 144 821 75 q 997 294 960 213 q 1019 356 1013 326 q 1025 411 1025 385 q 983 535 1025 485 q 878 610 940 585 q 756 636 817 636 q 657 614 697 636 q 633 607 643 607 q 617 618 617 607 q 640 626 617 622 q 697 635 663 631 q 769 644 732 640 q 833 652 806 649 q 868 658 860 656 q 833 661 850 660 q 828 663 817 663 l 829 663 q 871 660 871 663 q 868 658 871 660 q 889 656 882 657 l 889 664 q 840 714 889 697 q 721 731 790 731 q 628 724 678 731 q 531 704 579 718 q 319 608 400 668 q 203 474 239 547 q 167 328 167 401 q 199 187 167 254 q 288 72 231 119 q 421 6 346 24 q 532 -7 478 -7 m 640 839 q 619 855 632 839 q 598 888 606 871 q 597 908 590 906 q 679 935 651 935 q 713 919 703 935 q 732 881 722 904 q 716 863 736 872 q 672 846 696 853 q 640 839 647 839 m 615 1008 q 519 1015 563 1008 q 476 1051 476 1021 q 491 1075 476 1064 q 543 1086 506 1086 l 825 1086 q 865 1083 850 1086 q 881 1064 881 1079 q 868 1042 881 1054 q 833 1026 856 1031 q 727 1013 790 1018 q 615 1008 664 1008 z "},"Ọ":{"ha":1153,"x_min":32,"x_max":1126,"o":"m 568 -53 q 433 -37 506 -53 q 207 50 296 -8 q 75 183 118 108 q 32 338 32 258 q 85 514 32 428 q 240 665 138 600 q 490 754 343 729 q 650 767 565 767 q 772 759 714 767 q 873 738 831 751 q 931 701 915 724 q 938 678 938 693 q 928 644 938 658 q 1026 588 981 625 q 1099 501 1072 551 q 1126 390 1126 451 q 1099 272 1126 332 q 977 108 1056 182 q 794 -9 899 35 q 568 -53 690 -53 m 532 -7 q 729 34 638 -7 q 890 144 821 75 q 997 294 960 213 q 1019 356 1013 326 q 1025 411 1025 385 q 983 535 1025 485 q 878 610 940 585 q 756 636 817 636 q 657 614 697 636 q 633 607 643 607 q 617 618 617 607 q 640 626 617 622 q 697 635 663 631 q 769 644 732 640 q 833 652 806 649 q 868 658 860 656 q 833 661 850 660 q 828 663 817 663 l 829 663 q 871 660 871 663 q 868 658 871 660 q 889 656 882 657 l 889 664 q 840 714 889 697 q 721 731 790 731 q 628 724 678 731 q 531 704 579 718 q 319 608 400 668 q 203 474 239 547 q 167 328 167 401 q 199 187 167 254 q 288 72 231 119 q 421 6 346 24 q 532 -7 478 -7 m 388 -236 q 366 -220 379 -236 q 345 -187 353 -204 q 344 -167 338 -169 q 426 -140 399 -140 q 460 -156 450 -140 q 479 -194 469 -171 q 463 -212 483 -203 q 419 -229 443 -222 q 388 -236 394 -236 z "},"Ò":{"ha":1153,"x_min":32,"x_max":1126,"o":"m 568 -53 q 433 -37 506 -53 q 207 50 296 -8 q 75 183 118 108 q 32 338 32 258 q 85 514 32 428 q 240 665 138 600 q 490 754 343 729 q 650 767 565 767 q 772 759 714 767 q 873 738 831 751 q 931 701 915 724 q 938 678 938 693 q 928 644 938 658 q 1026 588 981 625 q 1099 501 1072 551 q 1126 390 1126 451 q 1099 272 1126 332 q 977 108 1056 182 q 794 -9 899 35 q 568 -53 690 -53 m 532 -7 q 729 34 638 -7 q 890 144 821 75 q 997 294 960 213 q 1019 356 1013 326 q 1025 411 1025 385 q 983 535 1025 485 q 878 610 940 585 q 756 636 817 636 q 657 614 697 636 q 633 607 643 607 q 617 618 617 607 q 640 626 617 622 q 697 635 663 631 q 769 644 732 640 q 833 652 806 649 q 868 658 860 656 q 833 661 850 660 q 828 663 817 663 l 829 663 q 871 660 871 663 q 868 658 871 660 q 889 656 882 657 l 889 664 q 840 714 889 697 q 721 731 790 731 q 628 724 678 731 q 531 704 579 718 q 319 608 400 668 q 203 474 239 547 q 167 328 167 401 q 199 187 167 254 q 288 72 231 119 q 421 6 346 24 q 532 -7 478 -7 m 738 842 q 692 854 724 842 q 623 885 661 867 q 551 920 585 903 q 499 947 518 938 q 471 975 475 960 q 467 996 467 990 q 476 1032 467 1015 q 499 1049 485 1049 q 530 1037 510 1049 q 574 1006 550 1025 q 633 957 599 985 q 702 903 667 929 q 763 857 738 876 q 738 842 763 842 z "},"Ỏ":{"ha":1153,"x_min":32,"x_max":1126,"o":"m 568 -53 q 433 -37 506 -53 q 207 50 296 -8 q 75 183 118 108 q 32 338 32 258 q 85 514 32 428 q 240 665 138 600 q 490 754 343 729 q 650 767 565 767 q 772 759 714 767 q 873 738 831 751 q 931 701 915 724 q 938 678 938 693 q 928 644 938 658 q 1026 588 981 625 q 1099 501 1072 551 q 1126 390 1126 451 q 1099 272 1126 332 q 977 108 1056 182 q 794 -9 899 35 q 568 -53 690 -53 m 532 -7 q 729 34 638 -7 q 890 144 821 75 q 997 294 960 213 q 1019 356 1013 326 q 1025 411 1025 385 q 983 535 1025 485 q 878 610 940 585 q 756 636 817 636 q 657 614 697 636 q 633 607 643 607 q 617 618 617 607 q 640 626 617 622 q 697 635 663 631 q 769 644 732 640 q 833 652 806 649 q 868 658 860 656 q 833 661 850 660 q 828 663 817 663 l 829 663 q 871 660 871 663 q 868 658 871 660 q 889 656 882 657 l 889 664 q 840 714 889 697 q 721 731 790 731 q 628 724 678 731 q 531 704 579 718 q 319 608 400 668 q 203 474 239 547 q 167 328 167 401 q 199 187 167 254 q 288 72 231 119 q 421 6 346 24 q 532 -7 478 -7 m 660 828 q 647 830 654 828 q 639 838 640 832 q 638 846 638 842 q 638 854 638 850 q 649 896 638 881 q 671 927 660 911 q 682 971 682 943 q 665 1015 682 1001 q 626 1028 649 1028 q 565 1011 596 1028 q 553 1008 557 1008 q 549 1026 539 1008 q 587 1060 558 1043 q 656 1078 615 1078 q 748 1052 717 1078 q 779 989 779 1026 q 749 913 779 949 q 719 883 732 890 q 699 868 707 875 q 682 840 690 861 q 660 828 676 828 z "},"Ơ":{"ha":1153,"x_min":32,"x_max":1133,"o":"m 568 -53 q 433 -37 506 -53 q 207 50 296 -8 q 75 183 118 108 q 32 338 32 258 q 85 514 32 428 q 240 665 138 600 q 490 754 343 729 q 650 767 565 767 q 772 759 714 767 q 873 738 831 751 q 931 701 915 724 q 938 678 938 693 q 928 644 938 658 q 1026 588 981 625 q 1099 501 1072 551 q 1126 390 1126 451 q 1099 272 1126 332 q 977 108 1056 182 q 794 -9 899 35 q 568 -53 690 -53 m 532 -7 q 729 34 638 -7 q 890 144 821 75 q 997 294 960 213 q 1019 356 1013 326 q 1025 411 1025 385 q 983 535 1025 485 q 878 610 940 585 q 756 636 817 636 q 657 614 697 636 q 633 607 643 607 q 617 618 617 607 q 640 626 617 622 q 697 635 663 631 q 769 644 732 640 q 833 652 806 649 q 868 658 860 656 q 833 661 850 660 q 828 663 817 663 l 829 663 q 871 660 871 663 q 868 658 871 660 q 889 656 882 657 l 889 664 q 840 714 889 697 q 721 731 790 731 q 628 724 678 731 q 531 704 579 718 q 319 608 400 668 q 203 474 239 547 q 167 328 167 401 q 199 187 167 254 q 288 72 231 119 q 421 6 346 24 q 532 -7 478 -7 m 1036 551 q 977 560 1000 551 q 946 594 954 569 q 944 602 944 599 q 943 610 943 606 q 949 626 943 621 q 957 629 956 632 q 1013 600 985 600 q 1050 639 1050 600 q 1048 658 1050 647 q 1043 681 1046 668 q 1039 704 1039 696 q 1045 729 1039 719 q 1060 743 1051 739 q 1072 746 1068 746 q 1112 722 1093 746 q 1132 682 1131 699 q 1133 673 1132 678 q 1133 664 1133 668 q 1117 600 1133 625 q 1077 563 1100 575 q 1036 551 1054 551 z "},"Ớ":{"ha":1153,"x_min":32,"x_max":1133,"o":"m 568 -53 q 433 -37 506 -53 q 207 50 296 -8 q 75 183 118 108 q 32 338 32 258 q 85 514 32 428 q 240 665 138 600 q 490 754 343 729 q 650 767 565 767 q 772 759 714 767 q 873 738 831 751 q 931 701 915 724 q 938 678 938 693 q 928 644 938 658 q 1026 588 981 625 q 1099 501 1072 551 q 1126 390 1126 451 q 1099 272 1126 332 q 977 108 1056 182 q 794 -9 899 35 q 568 -53 690 -53 m 532 -7 q 729 34 638 -7 q 890 144 821 75 q 997 294 960 213 q 1019 356 1013 326 q 1025 411 1025 385 q 983 535 1025 485 q 878 610 940 585 q 756 636 817 636 q 657 614 697 636 q 633 607 643 607 q 617 618 617 607 q 640 626 617 622 q 697 635 663 631 q 769 644 732 640 q 833 652 806 649 q 868 658 860 656 q 833 661 850 660 q 828 663 817 663 l 829 663 q 871 660 871 663 q 868 658 871 660 q 889 656 882 657 l 889 664 q 840 714 889 697 q 721 731 790 731 q 628 724 678 731 q 531 704 579 718 q 319 608 400 668 q 203 474 239 547 q 167 328 167 401 q 199 187 167 254 q 288 72 231 119 q 421 6 346 24 q 532 -7 478 -7 m 1036 551 q 977 560 1000 551 q 946 594 954 569 q 944 602 944 599 q 943 610 943 606 q 949 626 943 621 q 957 629 956 632 q 1013 600 985 600 q 1050 639 1050 600 q 1048 658 1050 647 q 1043 681 1046 668 q 1039 704 1039 696 q 1045 729 1039 719 q 1060 743 1051 739 q 1072 746 1068 746 q 1112 722 1093 746 q 1132 682 1131 699 q 1133 673 1132 678 q 1133 664 1133 668 q 1117 600 1133 625 q 1077 563 1100 575 q 1036 551 1054 551 m 593 843 q 568 858 568 843 q 629 904 594 878 q 699 958 664 931 q 757 1007 733 986 q 799 1038 781 1026 q 832 1050 818 1050 q 855 1033 846 1050 q 864 997 864 1017 q 860 976 864 992 q 832 949 856 961 q 780 922 814 939 q 708 886 746 904 q 638 856 669 868 q 593 843 607 843 z "},"Ợ":{"ha":1153,"x_min":32,"x_max":1133,"o":"m 568 -53 q 433 -37 506 -53 q 207 50 296 -8 q 75 183 118 108 q 32 338 32 258 q 85 514 32 428 q 240 665 138 600 q 490 754 343 729 q 650 767 565 767 q 772 759 714 767 q 873 738 831 751 q 931 701 915 724 q 938 678 938 693 q 928 644 938 658 q 1026 588 981 625 q 1099 501 1072 551 q 1126 390 1126 451 q 1099 272 1126 332 q 977 108 1056 182 q 794 -9 899 35 q 568 -53 690 -53 m 532 -7 q 729 34 638 -7 q 890 144 821 75 q 997 294 960 213 q 1019 356 1013 326 q 1025 411 1025 385 q 983 535 1025 485 q 878 610 940 585 q 756 636 817 636 q 657 614 697 636 q 633 607 643 607 q 617 618 617 607 q 640 626 617 622 q 697 635 663 631 q 769 644 732 640 q 833 652 806 649 q 868 658 860 656 q 833 661 850 660 q 828 663 817 663 l 829 663 q 871 660 871 663 q 868 658 871 660 q 889 656 882 657 l 889 664 q 840 714 889 697 q 721 731 790 731 q 628 724 678 731 q 531 704 579 718 q 319 608 400 668 q 203 474 239 547 q 167 328 167 401 q 199 187 167 254 q 288 72 231 119 q 421 6 346 24 q 532 -7 478 -7 m 1036 551 q 977 560 1000 551 q 946 594 954 569 q 944 602 944 599 q 943 610 943 606 q 949 626 943 621 q 957 629 956 632 q 1013 600 985 600 q 1050 639 1050 600 q 1048 658 1050 647 q 1043 681 1046 668 q 1039 704 1039 696 q 1045 729 1039 719 q 1060 743 1051 739 q 1072 746 1068 746 q 1112 722 1093 746 q 1132 682 1131 699 q 1133 673 1132 678 q 1133 664 1133 668 q 1117 600 1133 625 q 1077 563 1100 575 q 1036 551 1054 551 m 388 -236 q 366 -220 379 -236 q 345 -187 353 -204 q 344 -167 338 -169 q 426 -140 399 -140 q 460 -156 450 -140 q 479 -194 469 -171 q 463 -212 483 -203 q 419 -229 443 -222 q 388 -236 394 -236 z "}}}
